<svg width="20" height="20" viewBox="0 0 20 20" fill="none" xmlns="http://www.w3.org/2000/svg">
<path d="M13.6667 4.33203H5.66667C4.19391 4.33203 3 5.52594 3 6.9987V13.6654C3 15.1381 4.19391 16.332 5.66667 16.332H13.6667C15.1394 16.332 16.3333 15.1381 16.3333 13.6654V6.9987C16.3333 5.52594 15.1394 4.33203 13.6667 4.33203Z" stroke="#6C738A" stroke-width="1.5" stroke-linecap="round" stroke-linejoin="round"/>
<path d="M7 3V5.66667M12.3333 3V5.66667" stroke="#6C738A" stroke-width="1.5" stroke-linecap="round" stroke-linejoin="round"/>
<path d="M8.9668 13.2375C8.9668 13.1551 8.9668 13.0316 9.0068 12.9493C9.0468 12.8669 9.0868 12.7846 9.1668 12.7434C9.2468 12.7022 9.2868 12.6199 9.3668 12.6199C9.4468 12.5787 9.5668 12.5787 9.6468 12.5787C9.7268 12.5787 9.8468 12.5787 9.9268 12.6199L10.1668 12.7434C10.2468 12.7846 10.2868 12.8669 10.3268 12.9493C10.3668 13.0316 10.3668 13.114 10.3668 13.2375C10.3668 13.3199 10.3668 13.4434 10.3268 13.5257C10.2868 13.6081 10.2468 13.6904 10.1668 13.7316C10.0868 13.7728 10.0468 13.8551 9.9268 13.8551C9.8068 13.8551 9.8068 13.9375 9.6868 13.9375C9.5668 13.9375 9.4868 13.9375 9.4068 13.8963C9.3268 13.8551 9.2468 13.814 9.2068 13.7728C9.1268 13.7316 9.0868 13.6493 9.0468 13.5669C9.0068 13.4434 8.9668 13.361 8.9668 13.2375ZM10.2068 11.4669H9.1668L9.0068 6.9375H10.3268L10.2068 11.4669Z" fill="#6C738A"/>
</svg>
