<svg width="24" height="24" viewBox="0 0 24 24" fill="none" xmlns="http://www.w3.org/2000/svg">
<path d="M11.9294 12.3815C10.686 12.3815 9.66876 11.9765 8.87755 11.1664C8.08634 10.3564 7.69074 9.34851 7.69074 8.14286H7.40816C7.25746 8.14286 7.12559 8.08634 7.01256 7.97331C6.89953 7.86028 6.84301 7.72842 6.84301 7.57771C6.84301 7.427 6.89953 7.29513 7.01256 7.1821C7.12559 7.06907 7.25746 7.01256 7.40816 7.01256H7.69074C7.69074 6.25903 7.87912 5.58085 8.25589 4.97802C8.63265 4.3752 9.12245 3.8854 9.72527 3.50863V4.61068C9.72527 4.72371 9.76766 4.82261 9.85243 4.90738C9.93721 4.99215 10.0361 5.03454 10.1491 5.03454C10.281 5.03454 10.3846 4.99215 10.46 4.90738C10.5353 4.82261 10.573 4.72371 10.573 4.61068V3.14129C10.7237 3.10361 10.9309 3.07064 11.1947 3.04239C11.4584 3.01413 11.7127 3 11.9576 3C12.2025 3 12.4568 3.01413 12.7206 3.04239C12.9843 3.07064 13.1915 3.10361 13.3422 3.14129V4.61068C13.3422 4.72371 13.3799 4.82261 13.4553 4.90738C13.5306 4.99215 13.6342 5.03454 13.7661 5.03454C13.8791 5.03454 13.978 4.99215 14.0628 4.90738C14.1476 4.82261 14.19 4.72371 14.19 4.61068V3.50863C14.7928 3.8854 15.2732 4.3752 15.6311 4.97802C15.989 5.58085 16.168 6.25903 16.168 7.01256H16.4505C16.6013 7.01256 16.7331 7.06907 16.8462 7.1821C16.9592 7.29513 17.0157 7.427 17.0157 7.57771C17.0157 7.72842 16.9592 7.86028 16.8462 7.97331C16.7331 8.08634 16.6013 8.14286 16.4505 8.14286H16.168C16.168 9.34851 15.7724 10.3564 14.9812 11.1664C14.19 11.9765 13.1727 12.3815 11.9294 12.3815ZM11.9294 10.686C12.7206 10.686 13.3422 10.4506 13.7943 9.97959C14.2465 9.50863 14.4725 8.89639 14.4725 8.14286H9.38618C9.38618 8.89639 9.61224 9.50863 10.0644 9.97959C10.5165 10.4506 11.1381 10.686 11.9294 10.686ZM3 21V18.4003C3 17.7598 3.15071 17.2276 3.45212 16.8038C3.75353 16.3799 4.17739 16.0361 4.7237 15.7724C5.74097 15.2826 6.82889 14.8776 7.98744 14.5573C9.146 14.2371 10.46 14.0769 11.9294 14.0769C13.3987 14.0769 14.7127 14.2371 15.8713 14.5573C17.0298 14.8776 18.1177 15.2826 19.135 15.7724C19.6813 16.0361 20.1052 16.3799 20.4066 16.8038C20.708 17.2276 20.8587 17.7598 20.8587 18.4003V21H3ZM4.69545 19.3046H19.1633V18.4003C19.1633 18.1177 19.0832 17.887 18.9231 17.708C18.7629 17.529 18.5699 17.3925 18.3438 17.2983C17.5338 16.9403 16.6295 16.5965 15.6311 16.2669C14.6327 15.9372 13.3987 15.7724 11.9294 15.7724C10.46 15.7724 9.22606 15.9372 8.22763 16.2669C7.2292 16.5965 6.32496 16.9403 5.51491 17.2983C5.28885 17.3925 5.09576 17.529 4.93564 17.708C4.77551 17.887 4.69545 18.1177 4.69545 18.4003V19.3046Z" fill="#979C9E"/>
</svg>
