<svg width="35" height="12" viewBox="0 0 35 12" fill="none" xmlns="http://www.w3.org/2000/svg">
<path d="M3.64283 1.82143C3.64283 1.73618 3.60896 1.65442 3.54868 1.59414C3.4884 1.53386 3.40665 1.5 3.3214 1.5C3.23615 1.5 3.15439 1.53386 3.09411 1.59414C3.03383 1.65442 2.99997 1.73618 2.99997 1.82143V3.75C2.99989 4.1205 3.12783 4.47964 3.36212 4.76665C3.59641 5.05366 3.92267 5.2509 4.28568 5.325V10.1786C4.28568 10.2638 4.31955 10.3456 4.37983 10.4059C4.44011 10.4661 4.52186 10.5 4.60711 10.5C4.69236 10.5 4.77412 10.4661 4.8344 10.4059C4.89468 10.3456 4.92854 10.2638 4.92854 10.1786V5.325C5.29155 5.2509 5.61781 5.05366 5.8521 4.76665C6.0864 4.47964 6.21433 4.1205 6.21426 3.75V1.82143C6.21426 1.73618 6.18039 1.65442 6.12011 1.59414C6.05983 1.53386 5.97807 1.5 5.89283 1.5C5.80758 1.5 5.72582 1.53386 5.66554 1.59414C5.60526 1.65442 5.5714 1.73618 5.5714 1.82143V3.75C5.5715 3.9495 5.50973 4.14411 5.39459 4.30703C5.27946 4.46995 5.11663 4.59314 4.92854 4.65964V1.82143C4.92854 1.73618 4.89468 1.65442 4.8344 1.59414C4.77412 1.53386 4.69236 1.5 4.60711 1.5C4.52186 1.5 4.44011 1.53386 4.37983 1.59414C4.31955 1.65442 4.28568 1.73618 4.28568 1.82143V4.65964C4.0976 4.59314 3.93477 4.46995 3.81963 4.30703C3.70449 4.14411 3.64272 3.9495 3.64283 3.75V1.82143ZM8.14283 10.1786V6H7.17854C7.09329 6 7.01154 5.96614 6.95126 5.90586C6.89098 5.84558 6.85711 5.76382 6.85711 5.67857V3.10714C6.85711 2.68093 7.06668 2.28236 7.35276 1.99564C7.63947 1.70957 8.03804 1.5 8.46426 1.5C8.5495 1.5 8.63126 1.53386 8.69154 1.59414C8.75182 1.65442 8.78568 1.73618 8.78568 1.82143V10.1786C8.78568 10.2638 8.75182 10.3456 8.69154 10.4059C8.63126 10.4661 8.5495 10.5 8.46426 10.5C8.37901 10.5 8.29725 10.4661 8.23697 10.4059C8.17669 10.3456 8.14283 10.2638 8.14283 10.1786Z" fill="#767676"/>
<path d="M12.132 2.67631C12.444 2.46831 12.768 2.32431 13.104 2.24431C13.44 2.1563 13.76 2.1123 14.064 2.1123C14.4 2.1123 14.708 2.16031 14.988 2.25631C15.276 2.35231 15.52 2.48831 15.72 2.6643C15.92 2.8323 16.076 3.0363 16.188 3.2763C16.3 3.50831 16.356 3.76431 16.356 4.04431C16.356 4.51631 16.232 4.9083 15.984 5.2203C15.744 5.53231 15.448 5.7523 15.096 5.8803C15.536 5.9763 15.9 6.18831 16.188 6.51631C16.476 6.83631 16.62 7.22431 16.62 7.68031C16.62 8.0883 16.54 8.43231 16.38 8.71231C16.22 8.99231 16.012 9.22031 15.756 9.39631C15.5 9.56431 15.208 9.68831 14.88 9.76831C14.56 9.84831 14.232 9.88831 13.896 9.88831C13.56 9.88831 13.224 9.85631 12.888 9.79231C12.552 9.72831 12.256 9.63631 12 9.51631L12.24 8.70031C12.376 8.74831 12.504 8.79631 12.624 8.84431C12.744 8.88431 12.868 8.92031 12.996 8.95231C13.124 8.97631 13.256 8.99631 13.392 9.01231C13.536 9.02831 13.7 9.0363 13.884 9.0363C14.084 9.0363 14.28 9.01231 14.472 8.96431C14.672 8.91631 14.848 8.83631 15 8.72431C15.152 8.61231 15.276 8.47231 15.372 8.30431C15.468 8.12831 15.516 7.91231 15.516 7.65631C15.516 7.43231 15.472 7.23631 15.384 7.06831C15.304 6.90031 15.188 6.76431 15.036 6.66031C14.892 6.55631 14.72 6.4803 14.52 6.4323C14.32 6.3763 14.1 6.34831 13.86 6.34831H12.96V5.53231H13.656C14.12 5.53231 14.504 5.42031 14.808 5.1963C15.12 4.9723 15.276 4.62831 15.276 4.16431C15.276 3.99631 15.24 3.8403 15.168 3.6963C15.104 3.5443 15.012 3.41631 14.892 3.3123C14.78 3.2003 14.644 3.11231 14.484 3.04831C14.332 2.98431 14.164 2.95231 13.98 2.95231C13.724 2.95231 13.484 2.98431 13.26 3.04831C13.036 3.11231 12.772 3.23231 12.468 3.40831L12.132 2.67631Z" fill="#282C39"/>
<g clip-path="url(#clip0_631_55306)">
<path d="M22.245 8.4375C22.1337 8.4375 22.025 8.40451 21.9325 8.3427C21.84 8.28089 21.7679 8.19304 21.7253 8.09026C21.6827 7.98748 21.6716 7.87438 21.6933 7.76526C21.715 7.65615 21.7686 7.55592 21.8472 7.47725C21.9259 7.39859 22.0261 7.34501 22.1353 7.32331C22.2444 7.3016 22.3575 7.31274 22.4603 7.35532C22.563 7.39789 22.6509 7.46999 22.7127 7.56249C22.7745 7.65499 22.8075 7.76375 22.8075 7.875C22.8075 8.02418 22.7482 8.16726 22.6427 8.27275C22.5373 8.37824 22.3942 8.4375 22.245 8.4375ZM22.4325 10.125C22.3212 10.125 22.2125 10.158 22.12 10.2198C22.0275 10.2816 21.9554 10.3695 21.9128 10.4722C21.8702 10.575 21.8591 10.6881 21.8808 10.7972C21.9025 10.9064 21.9561 11.0066 22.0347 11.0852C22.1134 11.1639 22.2136 11.2175 22.3228 11.2392C22.4319 11.2609 22.545 11.2498 22.6478 11.2072C22.7505 11.1646 22.8384 11.0925 22.9002 11C22.962 10.9075 22.995 10.7988 22.995 10.6875C22.995 10.5383 22.9357 10.3952 22.8302 10.2898C22.7248 10.1843 22.5817 10.125 22.4325 10.125ZM20.9325 8.625C20.8212 8.625 20.7125 8.65799 20.62 8.7198C20.5275 8.78161 20.4554 8.86946 20.4128 8.97224C20.3702 9.07502 20.3591 9.18812 20.3808 9.29724C20.4025 9.40635 20.4561 9.50658 20.5347 9.58525C20.6134 9.66391 20.7136 9.71749 20.8228 9.73919C20.9319 9.7609 21.045 9.74976 21.1478 9.70718C21.2505 9.66461 21.3384 9.59251 21.4002 9.50001C21.462 9.40751 21.495 9.29875 21.495 9.1875C21.495 9.03832 21.4357 8.89524 21.3302 8.78975C21.2248 8.68426 21.0817 8.625 20.9325 8.625ZM23.745 8.8125C23.6337 8.8125 23.525 8.84549 23.4325 8.9073C23.34 8.96911 23.2679 9.05696 23.2253 9.15974C23.1827 9.26252 23.1716 9.37562 23.1933 9.48474C23.215 9.59385 23.2686 9.69408 23.3472 9.77275C23.4259 9.85141 23.5261 9.90499 23.6353 9.92669C23.7444 9.9484 23.8575 9.93726 23.9603 9.89468C24.063 9.85211 24.1509 9.78001 24.2127 9.68751C24.2745 9.59501 24.3075 9.48625 24.3075 9.375C24.3075 9.22582 24.2482 9.08274 24.1427 8.97725C24.0373 8.87176 23.8942 8.8125 23.745 8.8125ZM31.245 1.5H29.8997C29.8012 1.49991 29.7037 1.51934 29.6128 1.55715C29.5219 1.59497 29.4394 1.65042 29.37 1.72031L28.0669 3.02344L22.1512 4.0125C22.0148 4.03367 21.887 4.09281 21.7826 4.18316C21.6781 4.27352 21.6012 4.39144 21.5606 4.52344C21.5193 4.65394 21.5145 4.79325 21.5468 4.92628C21.579 5.05931 21.647 5.18099 21.7434 5.27813L26.3419 9.87656C26.4811 10.0162 26.6697 10.0953 26.8669 10.0969C26.9449 10.0963 27.0224 10.0836 27.0966 10.0594C27.2286 10.0188 27.3465 9.94187 27.4368 9.83743C27.5272 9.73298 27.5863 9.60522 27.6075 9.46875L28.5966 3.55313L29.8997 2.25H31.245C31.3445 2.25 31.4398 2.21049 31.5102 2.14017C31.5805 2.06984 31.62 1.97446 31.62 1.875C31.62 1.77554 31.5805 1.68016 31.5102 1.60984C31.4398 1.53951 31.3445 1.5 31.245 1.5Z" fill="#767676"/>
</g>
<path d="M33.48 2.21973H34.248V9.77973H33.216V3.32373L31.86 3.94773L31.62 3.07173L33.48 2.21973Z" fill="#282C39"/>
<defs>
<clipPath id="clip0_631_55306">
<rect width="12" height="12" fill="white" transform="translate(19.62)"/>
</clipPath>
</defs>
</svg>
