<svg width="16" height="11" viewBox="0 0 16 11" fill="none" xmlns="http://www.w3.org/2000/svg">
<path d="M16 8.07812H0V8.88437H16V8.07812Z" fill="#B22234"/>
<path d="M7.4469 0V0.403125V0.80625H16V0H7.4469Z" fill="#B22234"/>
<path d="M16 0.806252H7.4469V1.6125H16V0.806252Z" fill="white"/>
<path d="M16 1.61562H7.4469V2.42187H16V1.61562Z" fill="#B22234"/>
<path d="M16 2.42188H7.4469V3.22813H16V2.42188Z" fill="white"/>
<path d="M16 3.23125H7.4469V4.0375H16V3.23125Z" fill="#B22234"/>
<path d="M16 4.0375H7.4469V4.84375H16V4.0375Z" fill="white"/>
<path d="M16 4.84688H7.4469V5.65313H16V4.84688Z" fill="#B22234"/>
<path d="M16 5.65312H0V6.45937H16V5.65312Z" fill="white"/>
<path d="M16 6.4625H0V7.26875H16V6.4625Z" fill="#B22234"/>
<path d="M16 8.88438H0V9.69063H16V8.88438Z" fill="white"/>
<path d="M16 9.69375H0V10.5H16V9.69375Z" fill="#B22234"/>
<path d="M0 0V0.403125V0.80625V5.65312H7.44688V0.80625V0.403125V0H0Z" fill="#3C3B6E"/>
<path d="M0.774987 0.640628L0.837487 0.825003H1.03124C1.05624 0.825003 1.06561 0.856253 1.04686 0.871878L0.890612 0.987503L0.949987 1.17188C0.956237 1.19688 0.931237 1.21563 0.909362 1.2L0.753112 1.0875L0.596862 1.2C0.574987 1.21563 0.549987 1.19375 0.556237 1.17188L0.615612 0.987503L0.459362 0.871878C0.440612 0.856253 0.449987 0.825003 0.474987 0.825003H0.668737L0.731237 0.640628C0.734362 0.618753 0.765612 0.618753 0.774987 0.640628Z" fill="white"/>
<path d="M0.774987 1.6L0.837487 1.78438H1.03124C1.05624 1.78438 1.06561 1.81563 1.04686 1.83125L0.890612 1.94688L0.949987 2.13125C0.956237 2.15625 0.931237 2.175 0.909362 2.15938L0.753112 2.04688L0.596862 2.15938C0.574987 2.175 0.549987 2.15313 0.556237 2.13125L0.615612 1.94688L0.459362 1.83125C0.440612 1.81563 0.449987 1.78438 0.474987 1.78438H0.668737L0.731237 1.6C0.734362 1.575 0.765612 1.575 0.774987 1.6Z" fill="white"/>
<path d="M0.774987 2.55625L0.837487 2.74063H1.03124C1.05624 2.74063 1.06561 2.77188 1.04686 2.7875L0.890612 2.90313L0.949987 3.0875C0.956237 3.1125 0.931237 3.13125 0.909362 3.11563L0.753112 3.00313L0.596862 3.11563C0.574987 3.13125 0.549987 3.10938 0.556237 3.0875L0.615612 2.90313L0.459362 2.7875C0.440612 2.77188 0.449987 2.74063 0.474987 2.74063H0.668737L0.731237 2.55625C0.734362 2.53438 0.765612 2.53438 0.774987 2.55625Z" fill="white"/>
<path d="M0.774987 3.51563L0.837487 3.7H1.03124C1.05624 3.7 1.06561 3.73125 1.04686 3.74688L0.890612 3.8625L0.949987 4.04688C0.956237 4.07188 0.931237 4.09063 0.909362 4.075L0.753112 3.9625L0.596862 4.075C0.574987 4.09063 0.549987 4.06875 0.556237 4.04688L0.615612 3.8625L0.459362 3.74688C0.440612 3.73125 0.449987 3.7 0.474987 3.7H0.668737L0.731237 3.51563C0.734362 3.49063 0.765612 3.49063 0.774987 3.51563Z" fill="white"/>
<path d="M0.774987 4.475L0.837487 4.65938H1.03124C1.05624 4.65938 1.06561 4.69063 1.04686 4.70625L0.890612 4.82188L0.949987 5.00625C0.956237 5.03125 0.931237 5.05 0.909362 5.03438L0.753112 4.92188L0.596862 5.03438C0.574987 5.05 0.549987 5.02813 0.556237 5.00625L0.615612 4.82188L0.459362 4.70625C0.440612 4.69063 0.449987 4.65938 0.474987 4.65938H0.668737L0.731237 4.475C0.734362 4.45 0.765612 4.45 0.774987 4.475Z" fill="white"/>
<path d="M1.51876 1.1125L1.58126 1.29688H1.77501C1.80001 1.29688 1.80939 1.32813 1.79064 1.34375L1.63439 1.45937L1.69376 1.64375C1.70001 1.66875 1.67501 1.6875 1.65314 1.67188L1.49689 1.55937L1.34064 1.67188C1.31876 1.6875 1.29376 1.66563 1.30001 1.64375L1.35939 1.45937L1.20314 1.34375C1.18439 1.32813 1.19376 1.29688 1.21876 1.29688H1.41251L1.47501 1.1125C1.47814 1.0875 1.50939 1.0875 1.51876 1.1125Z" fill="white"/>
<path d="M1.51876 2.06875L1.58126 2.25313H1.77501C1.80001 2.25313 1.80939 2.28438 1.79064 2.3L1.63439 2.41563L1.69376 2.6C1.70001 2.625 1.67501 2.64375 1.65314 2.62813L1.49689 2.51563L1.34064 2.62813C1.31876 2.64375 1.29376 2.62188 1.30001 2.6L1.35939 2.41563L1.20314 2.3C1.18439 2.28438 1.19376 2.25313 1.21876 2.25313H1.41251L1.47501 2.06875C1.47814 2.04688 1.50939 2.04688 1.51876 2.06875Z" fill="white"/>
<path d="M1.51876 3.02813L1.58126 3.2125H1.77501C1.80001 3.2125 1.80939 3.24375 1.79064 3.25938L1.63439 3.375L1.69376 3.55938C1.70001 3.58438 1.67501 3.60313 1.65314 3.5875L1.49689 3.475L1.34064 3.5875C1.31876 3.60313 1.29376 3.58125 1.30001 3.55938L1.35939 3.375L1.20314 3.25938C1.18439 3.24375 1.19376 3.2125 1.21876 3.2125H1.41251L1.47501 3.02813C1.47814 3.00313 1.50939 3.00313 1.51876 3.02813Z" fill="white"/>
<path d="M1.51876 3.98438L1.58126 4.16875H1.77501C1.80001 4.16875 1.80939 4.2 1.79064 4.21563L1.63439 4.33125L1.69376 4.51563C1.70001 4.54063 1.67501 4.55938 1.65314 4.54375L1.49689 4.43125L1.34064 4.54375C1.31876 4.55938 1.29376 4.5375 1.30001 4.51563L1.35939 4.33125L1.20314 4.21563C1.18439 4.2 1.19376 4.16875 1.21876 4.16875H1.41251L1.47501 3.98438C1.47814 3.9625 1.50939 3.9625 1.51876 3.98438Z" fill="white"/>
<path d="M2.26247 0.640628L2.32497 0.825003H2.51872C2.54372 0.825003 2.5531 0.856253 2.53435 0.871878L2.3781 0.987503L2.43747 1.17188C2.44372 1.19688 2.41872 1.21563 2.39685 1.2L2.2406 1.0875L2.08435 1.2C2.06247 1.21563 2.03747 1.19375 2.04372 1.17188L2.1031 0.987503L1.94685 0.871878C1.9281 0.856253 1.93747 0.825003 1.96247 0.825003H2.15622L2.21872 0.640628C2.21872 0.618753 2.2531 0.618753 2.26247 0.640628Z" fill="white"/>
<path d="M2.26247 1.6L2.32497 1.78438H2.51872C2.54372 1.78438 2.5531 1.81563 2.53435 1.83125L2.3781 1.94688L2.43747 2.13125C2.44372 2.15625 2.41872 2.175 2.39685 2.15938L2.2406 2.04688L2.08435 2.15938C2.06247 2.175 2.03747 2.15313 2.04372 2.13125L2.1031 1.94688L1.94685 1.83125C1.9281 1.81563 1.93747 1.78438 1.96247 1.78438H2.15622L2.21872 1.6C2.21872 1.575 2.2531 1.575 2.26247 1.6Z" fill="white"/>
<path d="M2.26247 2.55625L2.32497 2.74063H2.51872C2.54372 2.74063 2.5531 2.77188 2.53435 2.7875L2.3781 2.90313L2.43747 3.0875C2.44372 3.1125 2.41872 3.13125 2.39685 3.11563L2.2406 3.00313L2.08435 3.11563C2.06247 3.13125 2.03747 3.10938 2.04372 3.0875L2.1031 2.90313L1.94685 2.7875C1.9281 2.77188 1.93747 2.74063 1.96247 2.74063H2.15622L2.21872 2.55625C2.21872 2.53438 2.2531 2.53438 2.26247 2.55625Z" fill="white"/>
<path d="M2.26247 3.51563L2.32497 3.7H2.51872C2.54372 3.7 2.5531 3.73125 2.53435 3.74688L2.3781 3.8625L2.43747 4.04688C2.44372 4.07188 2.41872 4.09063 2.39685 4.075L2.2406 3.9625L2.08435 4.075C2.06247 4.09063 2.03747 4.06875 2.04372 4.04688L2.1031 3.8625L1.94685 3.74688C1.9281 3.73125 1.93747 3.7 1.96247 3.7H2.15622L2.21872 3.51563C2.21872 3.49063 2.2531 3.49063 2.26247 3.51563Z" fill="white"/>
<path d="M2.26247 4.475L2.32497 4.65938H2.51872C2.54372 4.65938 2.5531 4.69063 2.53435 4.70625L2.3781 4.82188L2.43747 5.00625C2.44372 5.03125 2.41872 5.05 2.39685 5.03438L2.2406 4.92188L2.08435 5.03438C2.06247 5.05 2.03747 5.02813 2.04372 5.00625L2.1031 4.82188L1.94685 4.70625C1.9281 4.69063 1.93747 4.65938 1.96247 4.65938H2.15622L2.21872 4.475C2.21872 4.45 2.2531 4.45 2.26247 4.475Z" fill="white"/>
<path d="M3.00625 1.1125L3.06875 1.29688H3.2625C3.2875 1.29688 3.29687 1.32813 3.27812 1.34375L3.12187 1.45937L3.18125 1.64375C3.1875 1.66875 3.1625 1.6875 3.14062 1.67188L2.98437 1.55937L2.82812 1.67188C2.80625 1.6875 2.78125 1.66563 2.7875 1.64375L2.84687 1.45937L2.69062 1.34375C2.67187 1.32813 2.68125 1.29688 2.70625 1.29688H2.9L2.9625 1.1125C2.9625 1.0875 2.99687 1.0875 3.00625 1.1125Z" fill="white"/>
<path d="M3.00625 2.06875L3.06875 2.25313H3.2625C3.2875 2.25313 3.29687 2.28438 3.27812 2.3L3.12187 2.41563L3.18125 2.6C3.1875 2.625 3.1625 2.64375 3.14062 2.62813L2.98437 2.51563L2.82812 2.62813C2.80625 2.64375 2.78125 2.62188 2.7875 2.6L2.84687 2.41563L2.69062 2.3C2.67187 2.28438 2.68125 2.25313 2.70625 2.25313H2.9L2.9625 2.06875C2.9625 2.04688 2.99687 2.04688 3.00625 2.06875Z" fill="white"/>
<path d="M3.00625 3.02813L3.06875 3.2125H3.2625C3.2875 3.2125 3.29687 3.24375 3.27812 3.25938L3.12187 3.375L3.18125 3.55938C3.1875 3.58438 3.1625 3.60313 3.14062 3.5875L2.98437 3.475L2.82812 3.5875C2.80625 3.60313 2.78125 3.58125 2.7875 3.55938L2.84687 3.375L2.69062 3.25938C2.67187 3.24375 2.68125 3.2125 2.70625 3.2125H2.9L2.9625 3.02813C2.9625 3.00313 2.99687 3.00313 3.00625 3.02813Z" fill="white"/>
<path d="M3.00625 3.98438L3.06875 4.16875H3.2625C3.2875 4.16875 3.29687 4.2 3.27812 4.21563L3.12187 4.33125L3.18125 4.51563C3.1875 4.54063 3.1625 4.55938 3.14062 4.54375L2.98437 4.43125L2.82812 4.54375C2.80625 4.55938 2.78125 4.5375 2.7875 4.51563L2.84687 4.33125L2.69062 4.21563C2.67187 4.2 2.68125 4.16875 2.70625 4.16875H2.9L2.9625 3.98438C2.9625 3.9625 2.99687 3.9625 3.00625 3.98438Z" fill="white"/>
<path d="M3.74996 0.640628L3.81246 0.825003H4.00621C4.03121 0.825003 4.04059 0.856253 4.02184 0.871878L3.86559 0.987503L3.92496 1.17188C3.93121 1.19688 3.90621 1.21563 3.88434 1.2L3.72809 1.0875L3.57184 1.2C3.54996 1.21563 3.52496 1.19375 3.53121 1.17188L3.59059 0.987503L3.43434 0.871878C3.41559 0.856253 3.42496 0.825003 3.44996 0.825003H3.64371L3.70621 0.640628C3.70621 0.618753 3.74059 0.618753 3.74996 0.640628Z" fill="white"/>
<path d="M3.74996 1.6L3.81246 1.78438H4.00621C4.03121 1.78438 4.04059 1.81563 4.02184 1.83125L3.86559 1.94688L3.92496 2.13125C3.93121 2.15625 3.90621 2.175 3.88434 2.15938L3.72809 2.04688L3.57184 2.15938C3.54996 2.175 3.52496 2.15313 3.53121 2.13125L3.59059 1.94688L3.43434 1.83125C3.41559 1.81563 3.42496 1.78438 3.44996 1.78438H3.64371L3.70621 1.6C3.70621 1.575 3.74059 1.575 3.74996 1.6Z" fill="white"/>
<path d="M3.74996 2.55625L3.81246 2.74063H4.00621C4.03121 2.74063 4.04059 2.77188 4.02184 2.7875L3.86559 2.90313L3.92496 3.0875C3.93121 3.1125 3.90621 3.13125 3.88434 3.11563L3.72809 3.00313L3.57184 3.11563C3.54996 3.13125 3.52496 3.10938 3.53121 3.0875L3.59059 2.90313L3.43434 2.7875C3.41559 2.77188 3.42496 2.74063 3.44996 2.74063H3.64371L3.70621 2.55625C3.70621 2.53438 3.74059 2.53438 3.74996 2.55625Z" fill="white"/>
<path d="M3.74996 3.51563L3.81246 3.7H4.00621C4.03121 3.7 4.04059 3.73125 4.02184 3.74688L3.86559 3.8625L3.92496 4.04688C3.93121 4.07188 3.90621 4.09063 3.88434 4.075L3.72809 3.9625L3.57184 4.075C3.54996 4.09063 3.52496 4.06875 3.53121 4.04688L3.59059 3.8625L3.43434 3.74688C3.41559 3.73125 3.42496 3.7 3.44996 3.7H3.64371L3.70621 3.51563C3.70621 3.49063 3.74059 3.49063 3.74996 3.51563Z" fill="white"/>
<path d="M3.74996 4.475L3.81246 4.65938H4.00621C4.03121 4.65938 4.04059 4.69063 4.02184 4.70625L3.86559 4.82188L3.92496 5.00625C3.93121 5.03125 3.90621 5.05 3.88434 5.03438L3.72809 4.92188L3.57184 5.03438C3.54996 5.05 3.52496 5.02813 3.53121 5.00625L3.59059 4.82188L3.43434 4.70625C3.41559 4.69063 3.42496 4.65938 3.44996 4.65938H3.64371L3.70621 4.475C3.70621 4.45 3.74059 4.45 3.74996 4.475Z" fill="white"/>
<path d="M4.49374 1.1125L4.55624 1.29688H4.74999C4.77499 1.29688 4.78436 1.32813 4.76561 1.34375L4.60936 1.45937L4.66874 1.64375C4.67499 1.66875 4.64999 1.6875 4.62811 1.67188L4.47186 1.55937L4.31561 1.67188C4.29374 1.6875 4.26874 1.66563 4.27499 1.64375L4.33436 1.45937L4.17811 1.34375C4.15936 1.32813 4.16874 1.29688 4.19374 1.29688H4.38749L4.44999 1.1125C4.44999 1.0875 4.48436 1.0875 4.49374 1.1125Z" fill="white"/>
<path d="M4.49374 2.06875L4.55624 2.25313H4.74999C4.77499 2.25313 4.78436 2.28438 4.76561 2.3L4.60936 2.41563L4.66874 2.6C4.67499 2.625 4.64999 2.64375 4.62811 2.62813L4.47186 2.51563L4.31561 2.62813C4.29374 2.64375 4.26874 2.62188 4.27499 2.6L4.33436 2.41563L4.17811 2.3C4.15936 2.28438 4.16874 2.25313 4.19374 2.25313H4.38749L4.44999 2.06875C4.44999 2.04688 4.48436 2.04688 4.49374 2.06875Z" fill="white"/>
<path d="M4.49374 3.02813L4.55624 3.2125H4.74999C4.77499 3.2125 4.78436 3.24375 4.76561 3.25938L4.60936 3.375L4.66874 3.55938C4.67499 3.58438 4.64999 3.60313 4.62811 3.5875L4.47186 3.475L4.31561 3.5875C4.29374 3.60313 4.26874 3.58125 4.27499 3.55938L4.33436 3.375L4.17811 3.25938C4.15936 3.24375 4.16874 3.2125 4.19374 3.2125H4.38749L4.44999 3.02813C4.44999 3.00313 4.48436 3.00313 4.49374 3.02813Z" fill="white"/>
<path d="M4.49374 3.98438L4.55624 4.16875H4.74999C4.77499 4.16875 4.78436 4.2 4.76561 4.21563L4.60936 4.33125L4.66874 4.51563C4.67499 4.54063 4.64999 4.55938 4.62811 4.54375L4.47186 4.43125L4.31561 4.54375C4.29374 4.55938 4.26874 4.5375 4.27499 4.51563L4.33436 4.33125L4.17811 4.21563C4.15936 4.2 4.16874 4.16875 4.19374 4.16875H4.38749L4.44999 3.98438C4.44999 3.9625 4.48436 3.9625 4.49374 3.98438Z" fill="white"/>
<path d="M5.23434 0.640628L5.29684 0.825003H5.49059C5.51559 0.825003 5.52496 0.856253 5.50621 0.871878L5.34996 0.987503L5.40934 1.17188C5.41559 1.19688 5.39059 1.21563 5.36871 1.2L5.21246 1.0875L5.05621 1.2C5.03434 1.21563 5.00934 1.19375 5.01559 1.17188L5.07496 0.987503L4.91871 0.871878C4.89996 0.856253 4.90934 0.825003 4.93434 0.825003H5.12809L5.19059 0.640628C5.19371 0.618753 5.22809 0.618753 5.23434 0.640628Z" fill="white"/>
<path d="M5.23434 1.6L5.29684 1.78438H5.49059C5.51559 1.78438 5.52496 1.81563 5.50621 1.83125L5.34996 1.94688L5.40934 2.13125C5.41559 2.15625 5.39059 2.175 5.36871 2.15938L5.21246 2.04688L5.05621 2.15938C5.03434 2.175 5.00934 2.15313 5.01559 2.13125L5.07496 1.94688L4.91871 1.83125C4.89996 1.81563 4.90934 1.78438 4.93434 1.78438H5.12809L5.19059 1.6C5.19371 1.575 5.22809 1.575 5.23434 1.6Z" fill="white"/>
<path d="M5.23434 2.55625L5.29684 2.74063H5.49059C5.51559 2.74063 5.52496 2.77188 5.50621 2.7875L5.34996 2.90313L5.40934 3.0875C5.41559 3.1125 5.39059 3.13125 5.36871 3.11563L5.21246 3.00313L5.05621 3.11563C5.03434 3.13125 5.00934 3.10938 5.01559 3.0875L5.07496 2.90313L4.91871 2.7875C4.89996 2.77188 4.90934 2.74063 4.93434 2.74063H5.12809L5.19059 2.55625C5.19371 2.53438 5.22809 2.53438 5.23434 2.55625Z" fill="white"/>
<path d="M5.23434 3.51563L5.29684 3.7H5.49059C5.51559 3.7 5.52496 3.73125 5.50621 3.74688L5.34996 3.8625L5.40934 4.04688C5.41559 4.07188 5.39059 4.09063 5.36871 4.075L5.21246 3.9625L5.05621 4.075C5.03434 4.09063 5.00934 4.06875 5.01559 4.04688L5.07496 3.8625L4.91871 3.74688C4.89996 3.73125 4.90934 3.7 4.93434 3.7H5.12809L5.19059 3.51563C5.19371 3.49063 5.22809 3.49063 5.23434 3.51563Z" fill="white"/>
<path d="M5.23434 4.475L5.29684 4.65938H5.49059C5.51559 4.65938 5.52496 4.69063 5.50621 4.70625L5.34996 4.82188L5.40934 5.00625C5.41559 5.03125 5.39059 5.05 5.36871 5.03438L5.21246 4.92188L5.05621 5.03438C5.03434 5.05 5.00934 5.02813 5.01559 5.00625L5.07496 4.82188L4.91871 4.70625C4.89996 4.69063 4.90934 4.65938 4.93434 4.65938H5.12809L5.19059 4.475C5.19371 4.45 5.22809 4.45 5.23434 4.475Z" fill="white"/>
<path d="M5.97811 1.1125L6.04061 1.29688H6.23436C6.25936 1.29688 6.26874 1.32813 6.24999 1.34375L6.09374 1.45937L6.15311 1.64375C6.15936 1.66875 6.13436 1.6875 6.11249 1.67188L5.95624 1.55937L5.79999 1.67188C5.77811 1.6875 5.75311 1.66563 5.75936 1.64375L5.81874 1.45937L5.66249 1.34375C5.64374 1.32813 5.65311 1.29688 5.67811 1.29688H5.87186L5.93436 1.1125C5.93749 1.0875 5.97186 1.0875 5.97811 1.1125Z" fill="white"/>
<path d="M5.97811 2.06875L6.04061 2.25313H6.23436C6.25936 2.25313 6.26874 2.28438 6.24999 2.3L6.09374 2.41563L6.15311 2.6C6.15936 2.625 6.13436 2.64375 6.11249 2.62813L5.95624 2.51563L5.79999 2.62813C5.77811 2.64375 5.75311 2.62188 5.75936 2.6L5.81874 2.41563L5.66249 2.3C5.64374 2.28438 5.65311 2.25313 5.67811 2.25313H5.87186L5.93436 2.06875C5.93749 2.04688 5.97186 2.04688 5.97811 2.06875Z" fill="white"/>
<path d="M5.97811 3.02813L6.04061 3.2125H6.23436C6.25936 3.2125 6.26874 3.24375 6.24999 3.25938L6.09374 3.375L6.15311 3.55938C6.15936 3.58438 6.13436 3.60313 6.11249 3.5875L5.95624 3.475L5.79999 3.5875C5.77811 3.60313 5.75311 3.58125 5.75936 3.55938L5.81874 3.375L5.66249 3.25938C5.64374 3.24375 5.65311 3.2125 5.67811 3.2125H5.87186L5.93436 3.02813C5.93749 3.00313 5.97186 3.00313 5.97811 3.02813Z" fill="white"/>
<path d="M5.97811 3.98438L6.04061 4.16875H6.23436C6.25936 4.16875 6.26874 4.2 6.24999 4.21563L6.09374 4.33125L6.15311 4.51563C6.15936 4.54063 6.13436 4.55938 6.11249 4.54375L5.95624 4.43125L5.79999 4.54375C5.77811 4.55938 5.75311 4.5375 5.75936 4.51563L5.81874 4.33125L5.66249 4.21563C5.64374 4.2 5.65311 4.16875 5.67811 4.16875H5.87186L5.93436 3.98438C5.93749 3.9625 5.97186 3.9625 5.97811 3.98438Z" fill="white"/>
<path d="M6.72189 0.640628L6.78439 0.825003H6.97814C7.00314 0.825003 7.01251 0.856253 6.99376 0.871878L6.83751 0.987503L6.89689 1.17188C6.90314 1.19688 6.87814 1.21563 6.85626 1.2L6.70001 1.0875L6.54376 1.2C6.52189 1.21563 6.49689 1.19375 6.50314 1.17188L6.56251 0.987503L6.40626 0.871878C6.38751 0.856253 6.39689 0.825003 6.42189 0.825003H6.61564L6.67814 0.640628C6.68126 0.618753 6.71564 0.618753 6.72189 0.640628Z" fill="white"/>
<path d="M6.72189 1.6L6.78439 1.78438H6.97814C7.00314 1.78438 7.01251 1.81563 6.99376 1.83125L6.83751 1.94688L6.89689 2.13125C6.90314 2.15625 6.87814 2.175 6.85626 2.15938L6.70001 2.04688L6.54376 2.15938C6.52189 2.175 6.49689 2.15313 6.50314 2.13125L6.56251 1.94688L6.40626 1.83125C6.38751 1.81563 6.39689 1.78438 6.42189 1.78438H6.61564L6.67814 1.6C6.68126 1.575 6.71564 1.575 6.72189 1.6Z" fill="white"/>
<path d="M6.72189 2.55625L6.78439 2.74063H6.97814C7.00314 2.74063 7.01251 2.77188 6.99376 2.7875L6.83751 2.90313L6.89689 3.0875C6.90314 3.1125 6.87814 3.13125 6.85626 3.11563L6.70001 3.00313L6.54376 3.11563C6.52189 3.13125 6.49689 3.10938 6.50314 3.0875L6.56251 2.90313L6.40626 2.7875C6.38751 2.77188 6.39689 2.74063 6.42189 2.74063H6.61564L6.67814 2.55625C6.68126 2.53438 6.71564 2.53438 6.72189 2.55625Z" fill="white"/>
<path d="M6.72189 3.51563L6.78439 3.7H6.97814C7.00314 3.7 7.01251 3.73125 6.99376 3.74688L6.83751 3.8625L6.89689 4.04688C6.90314 4.07188 6.87814 4.09063 6.85626 4.075L6.70001 3.9625L6.54376 4.075C6.52189 4.09063 6.49689 4.06875 6.50314 4.04688L6.56251 3.8625L6.40626 3.74688C6.38751 3.73125 6.39689 3.7 6.42189 3.7H6.61564L6.67814 3.51563C6.68126 3.49063 6.71564 3.49063 6.72189 3.51563Z" fill="white"/>
<path d="M6.72189 4.475L6.78439 4.65938H6.97814C7.00314 4.65938 7.01251 4.69063 6.99376 4.70625L6.83751 4.82188L6.89689 5.00625C6.90314 5.03125 6.87814 5.05 6.85626 5.03438L6.70001 4.92188L6.54376 5.03438C6.52189 5.05 6.49689 5.02813 6.50314 5.00625L6.56251 4.82188L6.40626 4.70625C6.38751 4.69063 6.39689 4.65938 6.42189 4.65938H6.61564L6.67814 4.475C6.68126 4.45 6.71564 4.45 6.72189 4.475Z" fill="white"/>
<path d="M16 7.26875H0V8.075H16V7.26875Z" fill="white"/>
</svg>
