<svg width="48" height="20" viewBox="0 0 48 20" fill="none" xmlns="http://www.w3.org/2000/svg">
<path d="M11.75 5.30272L3.05513 13.9942L2.85097 16.2393C2.84057 16.3548 2.85472 16.4713 2.89249 16.581C2.93026 16.6907 2.9908 16.7912 3.07013 16.8759C3.14806 16.9613 3.24291 17.0296 3.34864 17.0764C3.45437 17.1231 3.56868 17.1474 3.6843 17.1476C3.70962 17.1477 3.73492 17.1466 3.76013 17.1442L6.00513 16.9401L14.6975 8.24938M11.75 5.30272L14.6975 8.24938M11.75 5.30272L13.8435 3.20925C13.9209 3.13177 14.0128 3.0703 14.1139 3.02837C14.2151 2.98643 14.3235 2.96484 14.4331 2.96484C14.5426 2.96484 14.651 2.98643 14.7522 3.02837C14.8533 3.0703 14.9452 3.13177 15.0226 3.20925L16.7901 4.97675C16.8676 5.05414 16.9291 5.14605 16.971 5.24722C17.013 5.34838 17.0345 5.45682 17.0345 5.56633C17.0345 5.67585 17.013 5.78428 16.971 5.88545C16.9291 5.98661 16.8676 6.07852 16.7901 6.15592L14.6975 8.24938" stroke="#6C738A" stroke-width="1.5"/>
<path d="M40 5.25C40.4142 5.25 40.75 4.91421 40.75 4.5C40.75 4.08579 40.4142 3.75 40 3.75C39.5858 3.75 39.25 4.08579 39.25 4.5C39.25 4.91421 39.5858 5.25 40 5.25Z" stroke="#949AAB" stroke-width="1.5" stroke-linecap="round" stroke-linejoin="round"/>
<path d="M40 10.75C40.4142 10.75 40.75 10.4142 40.75 10C40.75 9.58579 40.4142 9.25 40 9.25C39.5858 9.25 39.25 9.58579 39.25 10C39.25 10.4142 39.5858 10.75 40 10.75Z" stroke="#949AAB" stroke-width="1.5" stroke-linecap="round" stroke-linejoin="round"/>
<path d="M40 16.25C40.4142 16.25 40.75 15.9142 40.75 15.5C40.75 15.0858 40.4142 14.75 40 14.75C39.5858 14.75 39.25 15.0858 39.25 15.5C39.25 15.9142 39.5858 16.25 40 16.25Z" stroke="#949AAB" stroke-width="1.5" stroke-linecap="round" stroke-linejoin="round"/>
</svg>
