<svg width="51" height="24" viewBox="0 0 51 24" fill="none" xmlns="http://www.w3.org/2000/svg">
<path d="M14.7186 7.54748L11.98 4.79481C11.799 4.61475 11.5541 4.51367 11.2988 4.51367C11.0435 4.51367 10.7986 4.61475 10.6176 4.79481L0.908636 14.4898L0.0221832 18.3155C-0.0083964 18.4554 -0.0073481 18.6003 0.0252514 18.7397C0.057851 18.8791 0.121178 19.0095 0.210607 19.1212C0.300036 19.233 0.413308 19.3234 0.542147 19.3858C0.670985 19.4482 0.812138 19.4811 0.955291 19.4819C1.02199 19.4887 1.08921 19.4887 1.15591 19.4819L5.02364 18.5955L14.7186 8.90982C14.8987 8.72884 14.9998 8.48394 14.9998 8.22865C14.9998 7.97336 14.8987 7.72845 14.7186 7.54748ZM4.55709 17.7557L0.931963 18.5162L1.75776 14.961L9.02201 7.72477L11.8213 10.5241L4.55709 17.7557ZM12.4465 9.84759L9.64719 7.04827L11.2708 5.43399L14.0235 8.23331L12.4465 9.84759Z" fill="black"/>
<path d="M33.2258 18.8248L32.1758 17.7748L37.9508 11.9998L32.1758 6.2248L33.2258 5.1748L39.0008 10.9498L44.7758 5.1748L45.8258 6.2248L40.0508 11.9998L45.8258 17.7748L44.7758 18.8248L39.0008 13.0498L33.2258 18.8248Z" fill="black"/>
</svg>
