<svg width="13" height="16" viewBox="0 0 13 16" fill="none" xmlns="http://www.w3.org/2000/svg">
<path d="M6.40401 0.00671759C5.55332 -0.0331808 4.70367 0.104981 3.90945 0.412359C3.11523 0.719736 2.39394 1.18956 1.79175 1.79175C1.18956 2.39394 0.719736 3.11523 0.412359 3.90945C0.104981 4.70367 -0.0331808 5.55332 0.00671758 6.40401C0.00671758 8.41915 1.60604 10.4023 2.4057 11.202C3.20536 12.0016 6.40401 15.9999 6.40401 15.9999C6.40401 15.9999 9.60265 12.0016 10.4023 11.202C11.202 10.4023 12.8013 8.41915 12.8013 6.40401C12.8412 5.55332 12.703 4.70367 12.3957 3.90945C12.0883 3.11523 11.6185 2.39394 11.0163 1.79175C10.4141 1.18956 9.69279 0.719736 8.89857 0.412359C8.10435 0.104981 7.2547 -0.0331808 6.40401 0.00671759ZM6.40401 9.00291C5.88999 9.00291 5.38752 8.85048 4.96014 8.56491C4.53275 8.27934 4.19964 7.87345 4.00294 7.39856C3.80623 6.92368 3.75477 6.40112 3.85505 5.89699C3.95532 5.39285 4.20285 4.92977 4.56631 4.56631C4.92977 4.20285 5.39285 3.95532 5.89699 3.85505C6.40112 3.75477 6.92368 3.80623 7.39856 4.00294C7.87345 4.19964 8.27934 4.53275 8.56491 4.96014C8.85048 5.38752 9.00291 5.88999 9.00291 6.40401C9.00291 6.7453 8.93568 7.08325 8.80508 7.39856C8.67447 7.71387 8.48304 8.00038 8.24171 8.24171C8.00038 8.48304 7.71387 8.67447 7.39856 8.80508C7.08325 8.93568 6.7453 9.00291 6.40401 9.00291Z" fill="#05855A"/>
</svg>
