<svg width="24" height="24" viewBox="0 0 24 24" fill="none" xmlns="http://www.w3.org/2000/svg">
<path d="M18.4 19.975C19.2167 19.975 19.9125 19.6875 20.4875 19.1125C21.0625 18.5375 21.35 17.8417 21.35 17.025H23V5.5C23 5.1 22.85 4.75 22.55 4.45C22.25 4.15 21.9 4 21.5 4H7.025V8.175H4.4L1 12.7V17.025H2.775C2.775 17.8417 3.0625 18.5375 3.6375 19.1125C4.2125 19.6875 4.90833 19.975 5.725 19.975C6.54167 19.975 7.2375 19.6875 7.8125 19.1125C8.3875 18.5375 8.675 17.8417 8.675 17.025H15.45C15.45 17.8417 15.7375 18.5375 16.3125 19.1125C16.8875 19.6875 17.5833 19.975 18.4 19.975ZM18.4 18.475C18 18.475 17.6583 18.3333 17.375 18.05C17.0917 17.7667 16.95 17.425 16.95 17.025C16.95 16.625 17.0917 16.2833 17.375 16C17.6583 15.7167 18 15.575 18.4 15.575C18.8 15.575 19.1417 15.7167 19.425 16C19.7083 16.2833 19.85 16.625 19.85 17.025C19.85 17.425 19.7083 17.7667 19.425 18.05C19.1417 18.3333 18.8 18.475 18.4 18.475ZM21.5 15.525H20.95C20.6667 15.075 20.3083 14.7167 19.875 14.45C19.4417 14.1833 18.9583 14.05 18.425 14.05C17.8917 14.05 17.4042 14.1875 16.9625 14.4625C16.5208 14.7375 16.1583 15.0917 15.875 15.525H8.525V5.5H21.5V15.525ZM5.725 18.475C5.325 18.475 4.98333 18.3333 4.7 18.05C4.41667 17.7667 4.275 17.425 4.275 17.025C4.275 16.625 4.41667 16.2833 4.7 16C4.98333 15.7167 5.325 15.575 5.725 15.575C6.125 15.575 6.46667 15.7167 6.75 16C7.03333 16.2833 7.175 16.625 7.175 17.025C7.175 17.425 7.03333 17.7667 6.75 18.05C6.46667 18.3333 6.125 18.475 5.725 18.475ZM7.025 13.375H2.375L5.15 9.675H7.025V13.375Z" fill="#979C9E"/>
</svg>
