<svg width="10" height="6" viewBox="0 0 10 6" fill="none" xmlns="http://www.w3.org/2000/svg">
<path d="M4.49543 0.0923086V0.996934H2.78772V5.90776H1.66156V0.996934H0V0.0923086H4.49543Z" fill="white"/>
<path d="M7.95571 0C8.30648 0 8.62033 0.0276926 8.89726 0.0830779C9.18034 0.138463 9.43573 0.221541 9.66342 0.332311L9.42342 1.12617C9.20803 1.02155 8.98649 0.947703 8.7588 0.904625C8.5311 0.855394 8.30033 0.830779 8.06648 0.830779C7.80802 0.830779 7.56186 0.870779 7.32801 0.95078C7.10032 1.03078 6.89724 1.16001 6.71877 1.33848C6.54647 1.51079 6.408 1.7354 6.30339 2.01233C6.20492 2.2831 6.15569 2.61541 6.15569 3.00926C6.15569 3.70466 6.30954 4.23697 6.61724 4.6062C6.93108 4.97544 7.37724 5.16006 7.95571 5.16006C8.31879 5.16006 8.60187 5.12006 8.80495 5.04005V3.60004H7.79879V2.7508H9.87573V5.64929C9.62958 5.75391 9.34957 5.84006 9.03572 5.90776C8.72187 5.9693 8.36187 6.00007 7.95571 6.00007C7.53725 6.00007 7.1434 5.93545 6.77416 5.80622C6.41108 5.67698 6.09415 5.48621 5.82338 5.2339C5.55261 4.98159 5.3403 4.67082 5.18645 4.30159C5.0326 3.9262 4.95568 3.49542 4.95568 3.00926C4.95568 2.5231 5.0326 2.09233 5.18645 1.71694C5.3403 1.34155 5.54953 1.0277 5.81415 0.775393C6.08492 0.516929 6.40185 0.323081 6.76493 0.193849C7.13416 0.0646162 7.53109 0 7.95571 0Z" fill="white"/>
</svg>
