<svg width="17" height="17" viewBox="0 0 17 17" fill="none" xmlns="http://www.w3.org/2000/svg">
<path d="M3.93115 15.5846C3.41171 15.5846 2.97195 15.4046 2.61188 15.0445C2.25181 14.6845 2.07178 14.2447 2.07178 13.7253V11.5117H4.32074V1.41797L5.38324 2.48047L6.44574 1.41797L7.49053 2.48047L8.55303 1.41797L9.61553 2.48047L10.678 1.41797L11.7405 2.48047L12.803 1.41797L13.8655 2.48047L14.928 1.41797V13.7253C14.928 14.2447 14.748 14.6845 14.3879 15.0445C14.0279 15.4046 13.5881 15.5846 13.0687 15.5846H3.93115ZM13.0687 14.5221C13.3048 14.5221 13.4966 14.4484 13.6442 14.3008C13.7917 14.1532 13.8655 13.9614 13.8655 13.7253V3.1888H5.38324V11.5117H12.2718V13.7253C12.2718 13.9614 12.3456 14.1532 12.4931 14.3008C12.6407 14.4484 12.8325 14.5221 13.0687 14.5221ZM6.32178 5.98672V4.92422H10.5718V5.98672H6.32178ZM6.32178 8.35964V7.29714H10.5718V8.35964H6.32178ZM12.2187 5.98672C12.077 5.98672 11.953 5.93359 11.8468 5.82734C11.7405 5.72109 11.6874 5.59714 11.6874 5.45547C11.6874 5.3138 11.7405 5.18984 11.8468 5.08359C11.953 4.97734 12.077 4.92422 12.2187 4.92422C12.3603 4.92422 12.4843 4.97734 12.5905 5.08359C12.6968 5.18984 12.7499 5.3138 12.7499 5.45547C12.7499 5.59714 12.6968 5.72109 12.5905 5.82734C12.4843 5.93359 12.3603 5.98672 12.2187 5.98672ZM12.2187 8.27109C12.077 8.27109 11.953 8.21797 11.8468 8.11172C11.7405 8.00547 11.6874 7.88151 11.6874 7.73984C11.6874 7.59818 11.7405 7.47422 11.8468 7.36797C11.953 7.26172 12.077 7.20859 12.2187 7.20859C12.3603 7.20859 12.4843 7.26172 12.5905 7.36797C12.6968 7.47422 12.7499 7.59818 12.7499 7.73984C12.7499 7.88151 12.6968 8.00547 12.5905 8.11172C12.4843 8.21797 12.3603 8.27109 12.2187 8.27109ZM3.91344 14.5221H11.2093V12.5742H3.13428V13.7253C3.13428 13.9614 3.20806 14.1532 3.35563 14.3008C3.5032 14.4484 3.68914 14.5221 3.91344 14.5221ZM3.13428 14.5221V12.5742V14.5221Z" fill="#949AAB"/>
</svg>
