<svg width="32" height="32" viewBox="0 0 32 32" fill="none" xmlns="http://www.w3.org/2000/svg">
<rect x="0.5" y="0.5" width="31" height="31" rx="15.5" fill="white"/>
<path d="M16.5 13.2727C14.9932 13.2727 13.7727 14.4932 13.7727 16C13.7727 17.5068 14.9932 18.7273 16.5 18.7273C18.0068 18.7273 19.2273 17.5068 19.2273 16C19.2273 14.4932 18.0068 13.2727 16.5 13.2727ZM22.5955 15.3182C22.441 13.9355 21.821 12.6465 20.8373 11.6627C19.8535 10.679 18.5645 10.059 17.1818 9.90455V8.5H15.8182V9.90455C14.4355 10.059 13.1465 10.679 12.1627 11.6627C11.179 12.6465 10.559 13.9355 10.4045 15.3182H9V16.6818H10.4045C10.559 18.0645 11.179 19.3535 12.1627 20.3373C13.1465 21.321 14.4355 21.941 15.8182 22.0955V23.5H17.1818V22.0955C18.5645 21.941 19.8535 21.321 20.8373 20.3373C21.821 19.3535 22.441 18.0645 22.5955 16.6818H24V15.3182H22.5955ZM16.5 20.7727C13.8614 20.7727 11.7273 18.6386 11.7273 16C11.7273 13.3614 13.8614 11.2273 16.5 11.2273C19.1386 11.2273 21.2727 13.3614 21.2727 16C21.2727 18.6386 19.1386 20.7727 16.5 20.7727Z" fill="#0F96E3"/>
<rect x="0.5" y="0.5" width="31" height="31" rx="15.5" stroke="#E8EBF3"/>
</svg>
