<svg width="21" height="21" viewBox="0 0 21 21" fill="none" xmlns="http://www.w3.org/2000/svg">
<path d="M4.93186 16.0682H12.3561V12.3561H16.0682V4.93186H4.93186V16.0682ZM4.93186 17.1819C4.62252 17.1819 4.35958 17.0736 4.14304 16.8571C3.9265 16.6405 3.81823 16.3776 3.81823 16.0682V4.93186C3.81823 4.62252 3.9265 4.35958 4.14304 4.14304C4.35958 3.9265 4.62252 3.81823 4.93186 3.81823H16.0682C16.3776 3.81823 16.6405 3.9265 16.8571 4.14304C17.0736 4.35958 17.1819 4.62252 17.1819 4.93186V12.7273L12.7273 17.1819H4.93186ZM7.15914 11.6137V10.5H10.3144V11.6137H7.15914ZM7.15914 8.64399V7.53035H13.841V8.64399H7.15914ZM4.93186 16.0682V4.93186V16.0682Z" fill="#4364C6"/>
</svg>
