<svg width="24" height="24" viewBox="0 0 24 24" fill="none" xmlns="http://www.w3.org/2000/svg">
<path d="M6.7498 18.3008C6.45985 18.5907 5.98975 18.5907 5.6998 18.3008C5.40985 18.0108 5.40986 17.5407 5.6998 17.2508L10.9498 12.0008L5.6998 6.75078C5.40986 6.46083 5.40986 5.99073 5.6998 5.70078C5.98975 5.41083 6.45985 5.41083 6.7498 5.70078L11.9998 10.9508L17.2498 5.70078C17.5398 5.41083 18.0099 5.41083 18.2998 5.70078C18.5898 5.99073 18.5898 6.46083 18.2998 6.75078L13.0498 12.0008L18.2998 17.2508C18.5898 17.5407 18.5898 18.0108 18.2998 18.3008C18.0099 18.5907 17.5398 18.5907 17.2498 18.3008L11.9998 13.0508L6.7498 18.3008Z" fill="#6C738A"/>
</svg>
