<svg width="17" height="17" viewBox="0 0 17 17" fill="none" xmlns="http://www.w3.org/2000/svg">
<g clip-path="url(#clip0_601_55580)">
<path d="M15.9797 10.8281H-0.0202637V11.6344H15.9797V10.8281Z" fill="#B22234"/>
<path d="M7.42661 2.75V3.15313V3.55625H15.9797V2.75H7.42661Z" fill="#B22234"/>
<path d="M15.9797 3.55627H7.42661V4.36252H15.9797V3.55627Z" fill="white"/>
<path d="M15.9797 4.3656H7.42661V5.17185H15.9797V4.3656Z" fill="#B22234"/>
<path d="M15.9797 5.17188H7.42661V5.97813H15.9797V5.17188Z" fill="white"/>
<path d="M15.9797 5.9812H7.42661V6.78745H15.9797V5.9812Z" fill="#B22234"/>
<path d="M15.9797 6.78748H7.42661V7.59373H15.9797V6.78748Z" fill="white"/>
<path d="M15.9797 7.59692H7.42661V8.40317H15.9797V7.59692Z" fill="#B22234"/>
<path d="M15.9797 8.40308H-0.0202637V9.20933H15.9797V8.40308Z" fill="white"/>
<path d="M15.9797 9.21252H-0.0202637V10.0188H15.9797V9.21252Z" fill="#B22234"/>
<path d="M15.9797 11.6344H-0.0202637V12.4406H15.9797V11.6344Z" fill="white"/>
<path d="M15.9797 12.4437H-0.0202637V13.25H15.9797V12.4437Z" fill="#B22234"/>
<path d="M-0.0202637 2.75V3.15313V3.55625V8.40312H7.42661V3.55625V3.15313V2.75H-0.0202637Z" fill="#3C3B6E"/>
<path d="M0.754723 3.39067L0.817223 3.57505H1.01097C1.03597 3.57505 1.04535 3.6063 1.0266 3.62192L0.870348 3.73755L0.929723 3.92192C0.935973 3.94692 0.910973 3.96567 0.889098 3.95005L0.732848 3.83755L0.576598 3.95005C0.554723 3.96567 0.529723 3.9438 0.535973 3.92192L0.595348 3.73755L0.439098 3.62192C0.420348 3.6063 0.429723 3.57505 0.454723 3.57505H0.648473L0.710973 3.39067C0.714098 3.3688 0.745348 3.3688 0.754723 3.39067Z" fill="white"/>
<path d="M0.754723 4.35005L0.817223 4.53442H1.01097C1.03597 4.53442 1.04535 4.56567 1.0266 4.5813L0.870348 4.69692L0.929723 4.8813C0.935973 4.9063 0.910973 4.92505 0.889098 4.90942L0.732848 4.79692L0.576598 4.90942C0.554723 4.92505 0.529723 4.90317 0.535973 4.8813L0.595348 4.69692L0.439098 4.5813C0.420348 4.56567 0.429723 4.53442 0.454723 4.53442H0.648473L0.710973 4.35005C0.714098 4.32505 0.745348 4.32505 0.754723 4.35005Z" fill="white"/>
<path d="M0.754723 5.30632L0.817223 5.4907H1.01097C1.03597 5.4907 1.04535 5.52195 1.0266 5.53757L0.870348 5.6532L0.929723 5.83757C0.935973 5.86257 0.910973 5.88132 0.889098 5.8657L0.732848 5.7532L0.576598 5.8657C0.554723 5.88132 0.529723 5.85945 0.535973 5.83757L0.595348 5.6532L0.439098 5.53757C0.420348 5.52195 0.429723 5.4907 0.454723 5.4907H0.648473L0.710973 5.30632C0.714098 5.28445 0.745348 5.28445 0.754723 5.30632Z" fill="white"/>
<path d="M0.754723 6.2657L0.817223 6.45007H1.01097C1.03597 6.45007 1.04535 6.48132 1.0266 6.49695L0.870348 6.61257L0.929723 6.79695C0.935973 6.82195 0.910973 6.8407 0.889098 6.82507L0.732848 6.71257L0.576598 6.82507C0.554723 6.8407 0.529723 6.81882 0.535973 6.79695L0.595348 6.61257L0.439098 6.49695C0.420348 6.48132 0.429723 6.45007 0.454723 6.45007H0.648473L0.710973 6.2657C0.714098 6.2407 0.745348 6.2407 0.754723 6.2657Z" fill="white"/>
<path d="M0.754723 7.22505L0.817223 7.40942H1.01097C1.03597 7.40942 1.04535 7.44067 1.0266 7.4563L0.870348 7.57192L0.929723 7.7563C0.935973 7.7813 0.910973 7.80005 0.889098 7.78442L0.732848 7.67192L0.576598 7.78442C0.554723 7.80005 0.529723 7.77817 0.535973 7.7563L0.595348 7.57192L0.439098 7.4563C0.420348 7.44067 0.429723 7.40942 0.454723 7.40942H0.648473L0.710973 7.22505C0.714098 7.20005 0.745348 7.20005 0.754723 7.22505Z" fill="white"/>
<path d="M1.49847 3.8625L1.56097 4.04688H1.75472C1.77972 4.04688 1.78909 4.07813 1.77034 4.09375L1.61409 4.20937L1.67347 4.39375C1.67972 4.41875 1.65472 4.4375 1.63284 4.42188L1.47659 4.30937L1.32034 4.42188C1.29847 4.4375 1.27347 4.41563 1.27972 4.39375L1.33909 4.20937L1.18284 4.09375C1.16409 4.07813 1.17347 4.04688 1.19847 4.04688H1.39222L1.45472 3.8625C1.45784 3.8375 1.48909 3.8375 1.49847 3.8625Z" fill="white"/>
<path d="M1.49847 4.81877L1.56097 5.00315H1.75472C1.77972 5.00315 1.78909 5.0344 1.77034 5.05002L1.61409 5.16565L1.67347 5.35002C1.67972 5.37502 1.65472 5.39377 1.63284 5.37815L1.47659 5.26565L1.32034 5.37815C1.29847 5.39377 1.27347 5.3719 1.27972 5.35002L1.33909 5.16565L1.18284 5.05002C1.16409 5.0344 1.17347 5.00315 1.19847 5.00315H1.39222L1.45472 4.81877C1.45784 4.7969 1.48909 4.7969 1.49847 4.81877Z" fill="white"/>
<path d="M1.49847 5.77815L1.56097 5.96252H1.75472C1.77972 5.96252 1.78909 5.99377 1.77034 6.0094L1.61409 6.12502L1.67347 6.3094C1.67972 6.3344 1.65472 6.35315 1.63284 6.33752L1.47659 6.22502L1.32034 6.33752C1.29847 6.35315 1.27347 6.33127 1.27972 6.3094L1.33909 6.12502L1.18284 6.0094C1.16409 5.99377 1.17347 5.96252 1.19847 5.96252H1.39222L1.45472 5.77815C1.45784 5.75315 1.48909 5.75315 1.49847 5.77815Z" fill="white"/>
<path d="M1.49847 6.73442L1.56097 6.9188H1.75472C1.77972 6.9188 1.78909 6.95005 1.77034 6.96567L1.61409 7.0813L1.67347 7.26567C1.67972 7.29067 1.65472 7.30942 1.63284 7.2938L1.47659 7.1813L1.32034 7.2938C1.29847 7.30942 1.27347 7.28755 1.27972 7.26567L1.33909 7.0813L1.18284 6.96567C1.16409 6.95005 1.17347 6.9188 1.19847 6.9188H1.39222L1.45472 6.73442C1.45784 6.71255 1.48909 6.71255 1.49847 6.73442Z" fill="white"/>
<path d="M2.24221 3.39067L2.30471 3.57505H2.49846C2.52346 3.57505 2.53284 3.6063 2.51409 3.62192L2.35784 3.73755L2.41721 3.92192C2.42346 3.94692 2.39846 3.96567 2.37659 3.95005L2.22034 3.83755L2.06409 3.95005C2.04221 3.96567 2.01721 3.9438 2.02346 3.92192L2.08284 3.73755L1.92659 3.62192C1.90784 3.6063 1.91721 3.57505 1.94221 3.57505H2.13596L2.19846 3.39067C2.19846 3.3688 2.23284 3.3688 2.24221 3.39067Z" fill="white"/>
<path d="M2.24221 4.35005L2.30471 4.53442H2.49846C2.52346 4.53442 2.53284 4.56567 2.51409 4.5813L2.35784 4.69692L2.41721 4.8813C2.42346 4.9063 2.39846 4.92505 2.37659 4.90942L2.22034 4.79692L2.06409 4.90942C2.04221 4.92505 2.01721 4.90317 2.02346 4.8813L2.08284 4.69692L1.92659 4.5813C1.90784 4.56567 1.91721 4.53442 1.94221 4.53442H2.13596L2.19846 4.35005C2.19846 4.32505 2.23284 4.32505 2.24221 4.35005Z" fill="white"/>
<path d="M2.24221 5.30632L2.30471 5.4907H2.49846C2.52346 5.4907 2.53284 5.52195 2.51409 5.53757L2.35784 5.6532L2.41721 5.83757C2.42346 5.86257 2.39846 5.88132 2.37659 5.8657L2.22034 5.7532L2.06409 5.8657C2.04221 5.88132 2.01721 5.85945 2.02346 5.83757L2.08284 5.6532L1.92659 5.53757C1.90784 5.52195 1.91721 5.4907 1.94221 5.4907H2.13596L2.19846 5.30632C2.19846 5.28445 2.23284 5.28445 2.24221 5.30632Z" fill="white"/>
<path d="M2.24221 6.2657L2.30471 6.45007H2.49846C2.52346 6.45007 2.53284 6.48132 2.51409 6.49695L2.35784 6.61257L2.41721 6.79695C2.42346 6.82195 2.39846 6.8407 2.37659 6.82507L2.22034 6.71257L2.06409 6.82507C2.04221 6.8407 2.01721 6.81882 2.02346 6.79695L2.08284 6.61257L1.92659 6.49695C1.90784 6.48132 1.91721 6.45007 1.94221 6.45007H2.13596L2.19846 6.2657C2.19846 6.2407 2.23284 6.2407 2.24221 6.2657Z" fill="white"/>
<path d="M2.24221 7.22505L2.30471 7.40942H2.49846C2.52346 7.40942 2.53284 7.44067 2.51409 7.4563L2.35784 7.57192L2.41721 7.7563C2.42346 7.7813 2.39846 7.80005 2.37659 7.78442L2.22034 7.67192L2.06409 7.78442C2.04221 7.80005 2.01721 7.77817 2.02346 7.7563L2.08284 7.57192L1.92659 7.4563C1.90784 7.44067 1.91721 7.40942 1.94221 7.40942H2.13596L2.19846 7.22505C2.19846 7.20005 2.23284 7.20005 2.24221 7.22505Z" fill="white"/>
<path d="M2.98599 3.8625L3.04849 4.04688H3.24224C3.26724 4.04688 3.27661 4.07813 3.25786 4.09375L3.10161 4.20937L3.16099 4.39375C3.16724 4.41875 3.14224 4.4375 3.12036 4.42188L2.96411 4.30937L2.80786 4.42188C2.78599 4.4375 2.76099 4.41563 2.76724 4.39375L2.82661 4.20937L2.67036 4.09375C2.65161 4.07813 2.66099 4.04688 2.68599 4.04688H2.87974L2.94224 3.8625C2.94224 3.8375 2.97661 3.8375 2.98599 3.8625Z" fill="white"/>
<path d="M2.98599 4.81877L3.04849 5.00315H3.24224C3.26724 5.00315 3.27661 5.0344 3.25786 5.05002L3.10161 5.16565L3.16099 5.35002C3.16724 5.37502 3.14224 5.39377 3.12036 5.37815L2.96411 5.26565L2.80786 5.37815C2.78599 5.39377 2.76099 5.3719 2.76724 5.35002L2.82661 5.16565L2.67036 5.05002C2.65161 5.0344 2.66099 5.00315 2.68599 5.00315H2.87974L2.94224 4.81877C2.94224 4.7969 2.97661 4.7969 2.98599 4.81877Z" fill="white"/>
<path d="M2.98599 5.77815L3.04849 5.96252H3.24224C3.26724 5.96252 3.27661 5.99377 3.25786 6.0094L3.10161 6.12502L3.16099 6.3094C3.16724 6.3344 3.14224 6.35315 3.12036 6.33752L2.96411 6.22502L2.80786 6.33752C2.78599 6.35315 2.76099 6.33127 2.76724 6.3094L2.82661 6.12502L2.67036 6.0094C2.65161 5.99377 2.66099 5.96252 2.68599 5.96252H2.87974L2.94224 5.77815C2.94224 5.75315 2.97661 5.75315 2.98599 5.77815Z" fill="white"/>
<path d="M2.98599 6.73442L3.04849 6.9188H3.24224C3.26724 6.9188 3.27661 6.95005 3.25786 6.96567L3.10161 7.0813L3.16099 7.26567C3.16724 7.29067 3.14224 7.30942 3.12036 7.2938L2.96411 7.1813L2.80786 7.2938C2.78599 7.30942 2.76099 7.28755 2.76724 7.26567L2.82661 7.0813L2.67036 6.96567C2.65161 6.95005 2.66099 6.9188 2.68599 6.9188H2.87974L2.94224 6.73442C2.94224 6.71255 2.97661 6.71255 2.98599 6.73442Z" fill="white"/>
<path d="M3.72973 3.39067L3.79223 3.57505H3.98598C4.01098 3.57505 4.02035 3.6063 4.0016 3.62192L3.84535 3.73755L3.90473 3.92192C3.91098 3.94692 3.88598 3.96567 3.8641 3.95005L3.70785 3.83755L3.5516 3.95005C3.52973 3.96567 3.50473 3.9438 3.51098 3.92192L3.57035 3.73755L3.4141 3.62192C3.39535 3.6063 3.40473 3.57505 3.42973 3.57505H3.62348L3.68598 3.39067C3.68598 3.3688 3.72035 3.3688 3.72973 3.39067Z" fill="white"/>
<path d="M3.72973 4.35005L3.79223 4.53442H3.98598C4.01098 4.53442 4.02035 4.56567 4.0016 4.5813L3.84535 4.69692L3.90473 4.8813C3.91098 4.9063 3.88598 4.92505 3.8641 4.90942L3.70785 4.79692L3.5516 4.90942C3.52973 4.92505 3.50473 4.90317 3.51098 4.8813L3.57035 4.69692L3.4141 4.5813C3.39535 4.56567 3.40473 4.53442 3.42973 4.53442H3.62348L3.68598 4.35005C3.68598 4.32505 3.72035 4.32505 3.72973 4.35005Z" fill="white"/>
<path d="M3.72973 5.30632L3.79223 5.4907H3.98598C4.01098 5.4907 4.02035 5.52195 4.0016 5.53757L3.84535 5.6532L3.90473 5.83757C3.91098 5.86257 3.88598 5.88132 3.8641 5.8657L3.70785 5.7532L3.5516 5.8657C3.52973 5.88132 3.50473 5.85945 3.51098 5.83757L3.57035 5.6532L3.4141 5.53757C3.39535 5.52195 3.40473 5.4907 3.42973 5.4907H3.62348L3.68598 5.30632C3.68598 5.28445 3.72035 5.28445 3.72973 5.30632Z" fill="white"/>
<path d="M3.72973 6.2657L3.79223 6.45007H3.98598C4.01098 6.45007 4.02035 6.48132 4.0016 6.49695L3.84535 6.61257L3.90473 6.79695C3.91098 6.82195 3.88598 6.8407 3.8641 6.82507L3.70785 6.71257L3.5516 6.82507C3.52973 6.8407 3.50473 6.81882 3.51098 6.79695L3.57035 6.61257L3.4141 6.49695C3.39535 6.48132 3.40473 6.45007 3.42973 6.45007H3.62348L3.68598 6.2657C3.68598 6.2407 3.72035 6.2407 3.72973 6.2657Z" fill="white"/>
<path d="M3.72973 7.22505L3.79223 7.40942H3.98598C4.01098 7.40942 4.02035 7.44067 4.0016 7.4563L3.84535 7.57192L3.90473 7.7563C3.91098 7.7813 3.88598 7.80005 3.8641 7.78442L3.70785 7.67192L3.5516 7.78442C3.52973 7.80005 3.50473 7.77817 3.51098 7.7563L3.57035 7.57192L3.4141 7.4563C3.39535 7.44067 3.40473 7.40942 3.42973 7.40942H3.62348L3.68598 7.22505C3.68598 7.20005 3.72035 7.20005 3.72973 7.22505Z" fill="white"/>
<path d="M4.47347 3.8625L4.53597 4.04688H4.72972C4.75472 4.04688 4.7641 4.07813 4.74535 4.09375L4.5891 4.20937L4.64847 4.39375C4.65472 4.41875 4.62972 4.4375 4.60785 4.42188L4.4516 4.30937L4.29535 4.42188C4.27347 4.4375 4.24847 4.41563 4.25472 4.39375L4.3141 4.20937L4.15785 4.09375C4.1391 4.07813 4.14847 4.04688 4.17347 4.04688H4.36722L4.42972 3.8625C4.42972 3.8375 4.4641 3.8375 4.47347 3.8625Z" fill="white"/>
<path d="M4.47347 4.81877L4.53597 5.00315H4.72972C4.75472 5.00315 4.7641 5.0344 4.74535 5.05002L4.5891 5.16565L4.64847 5.35002C4.65472 5.37502 4.62972 5.39377 4.60785 5.37815L4.4516 5.26565L4.29535 5.37815C4.27347 5.39377 4.24847 5.3719 4.25472 5.35002L4.3141 5.16565L4.15785 5.05002C4.1391 5.0344 4.14847 5.00315 4.17347 5.00315H4.36722L4.42972 4.81877C4.42972 4.7969 4.4641 4.7969 4.47347 4.81877Z" fill="white"/>
<path d="M4.47347 5.77815L4.53597 5.96252H4.72972C4.75472 5.96252 4.7641 5.99377 4.74535 6.0094L4.5891 6.12502L4.64847 6.3094C4.65472 6.3344 4.62972 6.35315 4.60785 6.33752L4.4516 6.22502L4.29535 6.33752C4.27347 6.35315 4.24847 6.33127 4.25472 6.3094L4.3141 6.12502L4.15785 6.0094C4.1391 5.99377 4.14847 5.96252 4.17347 5.96252H4.36722L4.42972 5.77815C4.42972 5.75315 4.4641 5.75315 4.47347 5.77815Z" fill="white"/>
<path d="M4.47347 6.73442L4.53597 6.9188H4.72972C4.75472 6.9188 4.7641 6.95005 4.74535 6.96567L4.5891 7.0813L4.64847 7.26567C4.65472 7.29067 4.62972 7.30942 4.60785 7.2938L4.4516 7.1813L4.29535 7.2938C4.27347 7.30942 4.24847 7.28755 4.25472 7.26567L4.3141 7.0813L4.15785 6.96567C4.1391 6.95005 4.14847 6.9188 4.17347 6.9188H4.36722L4.42972 6.73442C4.42972 6.71255 4.4641 6.71255 4.47347 6.73442Z" fill="white"/>
<path d="M5.2141 3.39067L5.2766 3.57505H5.47035C5.49535 3.57505 5.50473 3.6063 5.48598 3.62192L5.32973 3.73755L5.3891 3.92192C5.39535 3.94692 5.37035 3.96567 5.34848 3.95005L5.19223 3.83755L5.03598 3.95005C5.0141 3.96567 4.9891 3.9438 4.99535 3.92192L5.05473 3.73755L4.89848 3.62192C4.87973 3.6063 4.8891 3.57505 4.9141 3.57505H5.10785L5.17035 3.39067C5.17348 3.3688 5.20785 3.3688 5.2141 3.39067Z" fill="white"/>
<path d="M5.2141 4.35005L5.2766 4.53442H5.47035C5.49535 4.53442 5.50473 4.56567 5.48598 4.5813L5.32973 4.69692L5.3891 4.8813C5.39535 4.9063 5.37035 4.92505 5.34848 4.90942L5.19223 4.79692L5.03598 4.90942C5.0141 4.92505 4.9891 4.90317 4.99535 4.8813L5.05473 4.69692L4.89848 4.5813C4.87973 4.56567 4.8891 4.53442 4.9141 4.53442H5.10785L5.17035 4.35005C5.17348 4.32505 5.20785 4.32505 5.2141 4.35005Z" fill="white"/>
<path d="M5.2141 5.30632L5.2766 5.4907H5.47035C5.49535 5.4907 5.50473 5.52195 5.48598 5.53757L5.32973 5.6532L5.3891 5.83757C5.39535 5.86257 5.37035 5.88132 5.34848 5.8657L5.19223 5.7532L5.03598 5.8657C5.0141 5.88132 4.9891 5.85945 4.99535 5.83757L5.05473 5.6532L4.89848 5.53757C4.87973 5.52195 4.8891 5.4907 4.9141 5.4907H5.10785L5.17035 5.30632C5.17348 5.28445 5.20785 5.28445 5.2141 5.30632Z" fill="white"/>
<path d="M5.2141 6.2657L5.2766 6.45007H5.47035C5.49535 6.45007 5.50473 6.48132 5.48598 6.49695L5.32973 6.61257L5.3891 6.79695C5.39535 6.82195 5.37035 6.8407 5.34848 6.82507L5.19223 6.71257L5.03598 6.82507C5.0141 6.8407 4.9891 6.81882 4.99535 6.79695L5.05473 6.61257L4.89848 6.49695C4.87973 6.48132 4.8891 6.45007 4.9141 6.45007H5.10785L5.17035 6.2657C5.17348 6.2407 5.20785 6.2407 5.2141 6.2657Z" fill="white"/>
<path d="M5.2141 7.22505L5.2766 7.40942H5.47035C5.49535 7.40942 5.50473 7.44067 5.48598 7.4563L5.32973 7.57192L5.3891 7.7563C5.39535 7.7813 5.37035 7.80005 5.34848 7.78442L5.19223 7.67192L5.03598 7.78442C5.0141 7.80005 4.9891 7.77817 4.99535 7.7563L5.05473 7.57192L4.89848 7.4563C4.87973 7.44067 4.8891 7.40942 4.9141 7.40942H5.10785L5.17035 7.22505C5.17348 7.20005 5.20785 7.20005 5.2141 7.22505Z" fill="white"/>
<path d="M5.95785 3.8625L6.02035 4.04688H6.2141C6.2391 4.04688 6.24847 4.07813 6.22972 4.09375L6.07347 4.20937L6.13285 4.39375C6.1391 4.41875 6.1141 4.4375 6.09222 4.42188L5.93597 4.30937L5.77972 4.42188C5.75785 4.4375 5.73285 4.41563 5.7391 4.39375L5.79847 4.20937L5.64222 4.09375C5.62347 4.07813 5.63285 4.04688 5.65785 4.04688H5.8516L5.9141 3.8625C5.91722 3.8375 5.9516 3.8375 5.95785 3.8625Z" fill="white"/>
<path d="M5.95785 4.81877L6.02035 5.00315H6.2141C6.2391 5.00315 6.24847 5.0344 6.22972 5.05002L6.07347 5.16565L6.13285 5.35002C6.1391 5.37502 6.1141 5.39377 6.09222 5.37815L5.93597 5.26565L5.77972 5.37815C5.75785 5.39377 5.73285 5.3719 5.7391 5.35002L5.79847 5.16565L5.64222 5.05002C5.62347 5.0344 5.63285 5.00315 5.65785 5.00315H5.8516L5.9141 4.81877C5.91722 4.7969 5.9516 4.7969 5.95785 4.81877Z" fill="white"/>
<path d="M5.95785 5.77815L6.02035 5.96252H6.2141C6.2391 5.96252 6.24847 5.99377 6.22972 6.0094L6.07347 6.12502L6.13285 6.3094C6.1391 6.3344 6.1141 6.35315 6.09222 6.33752L5.93597 6.22502L5.77972 6.33752C5.75785 6.35315 5.73285 6.33127 5.7391 6.3094L5.79847 6.12502L5.64222 6.0094C5.62347 5.99377 5.63285 5.96252 5.65785 5.96252H5.8516L5.9141 5.77815C5.91722 5.75315 5.9516 5.75315 5.95785 5.77815Z" fill="white"/>
<path d="M5.95785 6.73442L6.02035 6.9188H6.2141C6.2391 6.9188 6.24847 6.95005 6.22972 6.96567L6.07347 7.0813L6.13285 7.26567C6.1391 7.29067 6.1141 7.30942 6.09222 7.2938L5.93597 7.1813L5.77972 7.2938C5.75785 7.30942 5.73285 7.28755 5.7391 7.26567L5.79847 7.0813L5.64222 6.96567C5.62347 6.95005 5.63285 6.9188 5.65785 6.9188H5.8516L5.9141 6.73442C5.91722 6.71255 5.9516 6.71255 5.95785 6.73442Z" fill="white"/>
<path d="M6.70159 3.39067L6.76409 3.57505H6.95784C6.98284 3.57505 6.99222 3.6063 6.97347 3.62192L6.81722 3.73755L6.87659 3.92192C6.88284 3.94692 6.85784 3.96567 6.83597 3.95005L6.67972 3.83755L6.52347 3.95005C6.50159 3.96567 6.47659 3.9438 6.48284 3.92192L6.54222 3.73755L6.38597 3.62192C6.36722 3.6063 6.37659 3.57505 6.40159 3.57505H6.59534L6.65784 3.39067C6.66097 3.3688 6.69534 3.3688 6.70159 3.39067Z" fill="white"/>
<path d="M6.70159 4.35005L6.76409 4.53442H6.95784C6.98284 4.53442 6.99222 4.56567 6.97347 4.5813L6.81722 4.69692L6.87659 4.8813C6.88284 4.9063 6.85784 4.92505 6.83597 4.90942L6.67972 4.79692L6.52347 4.90942C6.50159 4.92505 6.47659 4.90317 6.48284 4.8813L6.54222 4.69692L6.38597 4.5813C6.36722 4.56567 6.37659 4.53442 6.40159 4.53442H6.59534L6.65784 4.35005C6.66097 4.32505 6.69534 4.32505 6.70159 4.35005Z" fill="white"/>
<path d="M6.70159 5.30632L6.76409 5.4907H6.95784C6.98284 5.4907 6.99222 5.52195 6.97347 5.53757L6.81722 5.6532L6.87659 5.83757C6.88284 5.86257 6.85784 5.88132 6.83597 5.8657L6.67972 5.7532L6.52347 5.8657C6.50159 5.88132 6.47659 5.85945 6.48284 5.83757L6.54222 5.6532L6.38597 5.53757C6.36722 5.52195 6.37659 5.4907 6.40159 5.4907H6.59534L6.65784 5.30632C6.66097 5.28445 6.69534 5.28445 6.70159 5.30632Z" fill="white"/>
<path d="M6.70159 6.2657L6.76409 6.45007H6.95784C6.98284 6.45007 6.99222 6.48132 6.97347 6.49695L6.81722 6.61257L6.87659 6.79695C6.88284 6.82195 6.85784 6.8407 6.83597 6.82507L6.67972 6.71257L6.52347 6.82507C6.50159 6.8407 6.47659 6.81882 6.48284 6.79695L6.54222 6.61257L6.38597 6.49695C6.36722 6.48132 6.37659 6.45007 6.40159 6.45007H6.59534L6.65784 6.2657C6.66097 6.2407 6.69534 6.2407 6.70159 6.2657Z" fill="white"/>
<path d="M6.70159 7.22505L6.76409 7.40942H6.95784C6.98284 7.40942 6.99222 7.44067 6.97347 7.4563L6.81722 7.57192L6.87659 7.7563C6.88284 7.7813 6.85784 7.80005 6.83597 7.78442L6.67972 7.67192L6.52347 7.78442C6.50159 7.80005 6.47659 7.77817 6.48284 7.7563L6.54222 7.57192L6.38597 7.4563C6.36722 7.44067 6.37659 7.40942 6.40159 7.40942H6.59534L6.65784 7.22505C6.66097 7.20005 6.69534 7.20005 6.70159 7.22505Z" fill="white"/>
<path d="M15.9797 10.0188H-0.0202637V10.825H15.9797V10.0188Z" fill="white"/>
</g>
<defs>
<clipPath id="clip0_601_55580">
<rect width="17" height="17" fill="white"/>
</clipPath>
</defs>
</svg>
