<svg width="15" height="18" viewBox="0 0 15 18" fill="none" xmlns="http://www.w3.org/2000/svg">
<path d="M7.20454 0.00755731C6.24751 -0.0373285 5.29165 0.118104 4.39815 0.463905C3.50465 0.809707 2.69319 1.33826 2.01572 2.01572C1.33826 2.69319 0.809707 3.50465 0.463905 4.39815C0.118104 5.29165 -0.0373285 6.24751 0.00755731 7.20454C0.00755731 9.47158 1.8068 11.7026 2.70642 12.6023C3.60605 13.5019 7.20454 18 7.20454 18C7.20454 18 10.803 13.5019 11.7026 12.6023C12.6023 11.7026 14.4015 9.47158 14.4015 7.20454C14.4464 6.24751 14.291 5.29165 13.9452 4.39815C13.5994 3.50465 13.0708 2.69319 12.3933 2.01572C11.7159 1.33826 10.9044 0.809707 10.0109 0.463905C9.11743 0.118104 8.16157 -0.0373285 7.20454 0.00755731ZM7.20454 10.1283C6.62627 10.1283 6.06099 9.95683 5.58018 9.63556C5.09936 9.3143 4.72462 8.85767 4.50332 8.32342C4.28203 7.78917 4.22413 7.20129 4.33694 6.63414C4.44976 6.06698 4.72822 5.54601 5.13712 5.13712C5.54601 4.72822 6.06698 4.44976 6.63414 4.33694C7.20129 4.22413 7.78917 4.28203 8.32342 4.50332C8.85767 4.72462 9.3143 5.09936 9.63556 5.58018C9.95683 6.06099 10.1283 6.62627 10.1283 7.20454C10.1283 7.58849 10.0527 7.96869 9.90575 8.32342C9.75882 8.67814 9.54345 9.00046 9.27196 9.27196C9.00046 9.54345 8.67814 9.75882 8.32342 9.90575C7.96869 10.0527 7.58849 10.1283 7.20454 10.1283Z" fill="#2C30B6"/>
</svg>
