<svg width="30" height="30" viewBox="0 0 30 30" fill="none" xmlns="http://www.w3.org/2000/svg">
<path d="M9.0002 4.5002C7.80673 4.5002 6.66213 4.97431 5.81822 5.81822C4.97431 6.66213 4.5002 7.80673 4.5002 9.0002V21.0002C4.5002 22.1937 4.97431 23.3383 5.81822 24.1822C6.66213 25.0261 7.80673 25.5002 9.0002 25.5002H21.0002C22.1937 25.5002 23.3383 25.0261 24.1822 24.1822C25.0261 23.3383 25.5002 22.1937 25.5002 21.0002V9.0002C25.5002 7.80673 25.0261 6.66213 24.1822 5.81822C23.3383 4.97431 22.1937 4.5002 21.0002 4.5002H9.0002ZM6.0002 9.0002C6.0002 8.20455 6.31627 7.44149 6.87888 6.87888C7.44149 6.31627 8.20455 6.0002 9.0002 6.0002H21.0002C21.7958 6.0002 22.5589 6.31627 23.1215 6.87888C23.6841 7.44149 24.0002 8.20455 24.0002 9.0002V21.0002C24.0002 21.7958 23.6841 22.5589 23.1215 23.1215C22.5589 23.6841 21.7958 24.0002 21.0002 24.0002H9.0002C8.20455 24.0002 7.44149 23.6841 6.87888 23.1215C6.31627 22.5589 6.0002 21.7958 6.0002 21.0002V9.0002Z" fill="#8F97B1"/>
</svg>
