<svg width="17" height="17" viewBox="0 0 17 17" fill="none" xmlns="http://www.w3.org/2000/svg">
<path d="M9.98741 4.50725L2.59677 11.8951L2.42323 13.8033C2.41439 13.9015 2.42642 14.0005 2.45853 14.0938C2.49063 14.1871 2.54209 14.2725 2.60952 14.3445C2.67576 14.4171 2.75638 14.4751 2.84625 14.5148C2.93613 14.5546 3.03329 14.5752 3.13157 14.5754C3.15308 14.5755 3.1746 14.5745 3.19602 14.5726L5.10427 14.399L12.4928 7.01192M9.98741 4.50725L12.4928 7.01192M9.98741 4.50725L11.7669 2.7278C11.8326 2.66194 11.9108 2.6097 11.9968 2.57405C12.0827 2.53841 12.1749 2.52006 12.268 2.52006C12.3611 2.52006 12.4533 2.53841 12.5393 2.57405C12.6252 2.6097 12.7034 2.66194 12.7691 2.7278L14.2715 4.23018C14.3374 4.29596 14.3896 4.37408 14.4253 4.46007C14.4609 4.54606 14.4793 4.63824 14.4793 4.73132C14.4793 4.82441 14.4609 4.91658 14.4253 5.00257C14.3896 5.08856 14.3374 5.16668 14.2715 5.23247L12.4928 7.01192" stroke="#6C738A" stroke-width="1.24336"/>
</svg>
