<svg width="12" height="12" viewBox="0 0 12 12" fill="none" xmlns="http://www.w3.org/2000/svg">
<path d="M5.28762 7.97729L8.77512 4.47729L8.17512 3.87729L5.28762 6.77729L3.80012 5.28979L3.21262 5.87729L5.28762 7.97729ZM2.27512 10.5898C2.04179 10.5898 1.84179 10.5065 1.67512 10.3398C1.50846 10.1731 1.42512 9.96895 1.42512 9.72729V2.28979C1.42512 2.05645 1.50846 1.85437 1.67512 1.68354C1.84179 1.5127 2.04179 1.42729 2.27512 1.42729H4.76262C4.82096 1.13562 4.96471 0.896038 5.19387 0.708538C5.42304 0.521038 5.69179 0.427288 6.00012 0.427288C6.30846 0.427288 6.57721 0.521038 6.80637 0.708538C7.03554 0.896038 7.17929 1.13562 7.23762 1.42729H9.72512C9.95846 1.42729 10.1585 1.5127 10.3251 1.68354C10.4918 1.85437 10.5751 2.05645 10.5751 2.28979V9.72729C10.5751 9.96895 10.4918 10.1731 10.3251 10.3398C10.1585 10.5065 9.95846 10.5898 9.72512 10.5898H2.27512ZM2.27512 9.72729H9.72512V2.28979H2.27512V9.72729ZM6.00012 2.06479C6.12512 2.06479 6.23137 2.01895 6.31887 1.92729C6.40637 1.83562 6.45012 1.73145 6.45012 1.61479C6.45012 1.48979 6.40637 1.38145 6.31887 1.28979C6.23137 1.19812 6.12512 1.15229 6.00012 1.15229C5.87512 1.15229 5.76887 1.19812 5.68137 1.28979C5.59388 1.38145 5.55012 1.48562 5.55012 1.60229C5.55012 1.72729 5.59388 1.83562 5.68137 1.92729C5.76887 2.01895 5.87512 2.06479 6.00012 2.06479ZM2.27512 9.72729V2.28979V9.72729Z" fill="white"/>
</svg>
