<svg width="12" height="11" viewBox="0 0 12 11" fill="none" xmlns="http://www.w3.org/2000/svg">
<path d="M10.2403 8.33115L6.27277 1.02343C6.16773 0.830433 6.0126 0.669331 5.82371 0.557081C5.63482 0.444832 5.41915 0.385589 5.19943 0.385589C4.9797 0.385589 4.76404 0.444832 4.57514 0.557081C4.38625 0.669331 4.23112 0.830433 4.12608 1.02343L0.154493 8.33115C0.0505415 8.51773 -0.00269008 8.72831 0.000104637 8.94188C0.00289935 9.15545 0.0616226 9.36456 0.170421 9.54837C0.27922 9.73217 0.434293 9.88425 0.620184 9.98944C0.806075 10.0946 1.01629 10.1493 1.22988 10.1479H9.1649C9.37674 10.1481 9.58499 10.0932 9.76922 9.98865C9.95345 9.88408 10.1073 9.73343 10.2158 9.55146C10.3242 9.36948 10.3835 9.16245 10.3878 8.95065C10.3921 8.73886 10.3413 8.52959 10.2403 8.34337V8.33115ZM4.59045 3.11717C4.59045 2.95512 4.65482 2.7997 4.76941 2.68511C4.884 2.57053 5.03941 2.50615 5.20146 2.50615C5.36351 2.50615 5.51893 2.57053 5.63352 2.68511C5.7481 2.7997 5.81248 2.95512 5.81248 3.11717V5.92375C5.81248 6.0858 5.7481 6.24122 5.63352 6.35581C5.51893 6.47039 5.36351 6.53477 5.20146 6.53477C5.03941 6.53477 4.884 6.47039 4.76941 6.35581C4.65482 6.24122 4.59045 6.0858 4.59045 5.92375V3.11717ZM5.21776 8.62036C5.07919 8.62036 4.94373 8.57927 4.82851 8.50228C4.71329 8.4253 4.62349 8.31587 4.57046 8.18785C4.51743 8.05983 4.50356 7.91895 4.53059 7.78305C4.55762 7.64714 4.62435 7.5223 4.72234 7.42431C4.82032 7.32633 4.94516 7.2596 5.08107 7.23256C5.21698 7.20553 5.35785 7.21941 5.48588 7.27243C5.6139 7.32546 5.72332 7.41526 5.80031 7.53048C5.8773 7.6457 5.91839 7.78116 5.91839 7.91973C5.91839 8.10555 5.84457 8.28376 5.71318 8.41515C5.58178 8.54654 5.40358 8.62036 5.21776 8.62036Z" fill="white"/>
</svg>
