<svg width="12" height="15" viewBox="0 0 12 15" fill="none" xmlns="http://www.w3.org/2000/svg">
<path d="M5.14067 8.0179L8.59335 4.56522L7.96036 3.95141L5.14067 6.7711L3.93223 5.56266L3.31841 6.19565L5.14067 8.0179ZM5.94629 13.8491C7.62148 12.3529 8.88747 10.9303 9.74425 9.5812C10.601 8.2321 11.0294 7.07161 11.0294 6.09974C11.0294 4.56522 10.5371 3.30882 9.55243 2.33056C8.56778 1.3523 7.36573 0.863171 5.94629 0.863171C4.52685 0.863171 3.32481 1.3523 2.34015 2.33056C1.3555 3.30882 0.863171 4.56522 0.863171 6.09974C0.863171 7.07161 1.29795 8.2321 2.16752 9.5812C3.03708 10.9303 4.29668 12.3529 5.94629 13.8491ZM5.94629 15C3.95141 13.2609 2.46164 11.6496 1.47698 10.1662C0.492328 8.68287 0 7.32737 0 6.09974C0 4.24552 0.597826 2.76535 1.79348 1.65921C2.98913 0.553069 4.3734 0 5.94629 0C7.51918 0 8.90345 0.553069 10.0991 1.65921C11.2948 2.76535 11.8926 4.24552 11.8926 6.09974C11.8926 7.32737 11.4003 8.68287 10.4156 10.1662C9.43095 11.6496 7.94118 13.2609 5.94629 15Z" fill="#05855A"/>
</svg>
