<svg width="16" height="16" viewBox="0 0 16 16" fill="none" xmlns="http://www.w3.org/2000/svg">
<circle cx="8" cy="8" r="8" fill="#EE3F32"/>
<path fill-rule="evenodd" clip-rule="evenodd" d="M9.13391 8.25016L12.442 4.94203C12.6864 4.69766 12.6864 4.30266 12.442 4.05828C12.1977 3.81391 11.8027 3.81391 11.5583 4.05828L8.25016 7.36641L4.94203 4.05828C4.69766 3.81391 4.30266 3.81391 4.05828 4.05828C3.81391 4.30266 3.81391 4.69766 4.05828 4.94203L7.36641 8.25016L4.05828 11.5583C3.81391 11.8027 3.81391 12.1977 4.05828 12.442C4.18016 12.5639 4.34016 12.6252 4.50016 12.6252C4.66016 12.6252 4.82016 12.5639 4.94203 12.442L8.25016 9.13391L11.5583 12.442C11.6802 12.5639 11.8402 12.6252 12.0002 12.6252C12.1602 12.6252 12.3202 12.5639 12.442 12.442C12.6864 12.1977 12.6864 11.8027 12.442 11.5583L9.13391 8.25016Z" fill="white"/>
</svg>
