<svg width="38" height="36" viewBox="0 0 38 36" fill="none" xmlns="http://www.w3.org/2000/svg">
<path d="M22.8083 24.0006C23.4218 24.0006 23.9446 23.7846 24.3766 23.3526C24.8086 22.9206 25.0246 22.3979 25.0246 21.7843H26.2642V13.1259C26.2642 12.8254 26.1515 12.5625 25.9261 12.3371C25.7007 12.1117 25.4378 11.999 25.1373 11.999H14.2626V15.1356H12.2905L9.73619 18.5351V21.7843H11.0697C11.0697 22.3979 11.2857 22.9206 11.7177 23.3526C12.1496 23.7846 12.6724 24.0006 13.2859 24.0006C13.8995 24.0006 14.4222 23.7846 14.8542 23.3526C15.2862 22.9206 15.5022 22.3979 15.5022 21.7843H20.5921C20.5921 22.3979 20.8081 22.9206 21.24 23.3526C21.672 23.7846 22.1948 24.0006 22.8083 24.0006ZM22.8083 22.8737C22.5078 22.8737 22.2511 22.7672 22.0383 22.5544C21.8254 22.3415 21.719 22.0848 21.719 21.7843C21.719 21.4838 21.8254 21.2271 22.0383 21.0143C22.2511 20.8014 22.5078 20.695 22.8083 20.695C23.1088 20.695 23.3655 20.8014 23.5784 21.0143C23.7912 21.2271 23.8977 21.4838 23.8977 21.7843C23.8977 22.0848 23.7912 22.3415 23.5784 22.5544C23.3655 22.7672 23.1088 22.8737 22.8083 22.8737ZM25.1373 20.6574H24.7241C24.5112 20.3194 24.242 20.0501 23.9164 19.8498C23.5909 19.6495 23.2278 19.5493 22.8271 19.5493C22.4264 19.5493 22.0602 19.6526 21.7284 19.8592C21.3965 20.0658 21.1242 20.3319 20.9114 20.6574H15.3895V13.1259H25.1373V20.6574ZM13.2859 22.8737C12.9854 22.8737 12.7288 22.7672 12.5159 22.5544C12.303 22.3415 12.1966 22.0848 12.1966 21.7843C12.1966 21.4838 12.303 21.2271 12.5159 21.0143C12.7288 20.8014 12.9854 20.695 13.2859 20.695C13.5865 20.695 13.8431 20.8014 14.056 21.0143C14.2689 21.2271 14.3753 21.4838 14.3753 21.7843C14.3753 22.0848 14.2689 22.3415 14.056 22.5544C13.8431 22.7672 13.5865 22.8737 13.2859 22.8737ZM14.2626 19.0422H10.7692L12.854 16.2625H14.2626V19.0422Z" fill="#4364C6"/>
<rect x="23" y="19" width="14.8333" height="14.8333" rx="7.41667" fill="#E3EAFF"/>
<path d="M30.4168 22.584V30.2495M26.584 26.4168H34.2495" stroke="#4247C7" stroke-width="1.15856" stroke-linecap="round" stroke-linejoin="round"/>
<rect x="0.5" y="0.5" width="35" height="35" rx="17.5" stroke="#EFEFEF"/>
</svg>
