<svg width="80" height="20" viewBox="0 0 80 20" fill="none" xmlns="http://www.w3.org/2000/svg">
<path d="M11.75 5.30272L3.05513 13.9942L2.85097 16.2393C2.84057 16.3548 2.85472 16.4713 2.89249 16.581C2.93026 16.6907 2.9908 16.7912 3.07013 16.8759C3.14806 16.9613 3.24291 17.0296 3.34864 17.0764C3.45437 17.1231 3.56868 17.1474 3.6843 17.1476C3.70962 17.1477 3.73492 17.1466 3.76013 17.1442L6.00513 16.9401L14.6975 8.24938M11.75 5.30272L14.6975 8.24938M11.75 5.30272L13.8435 3.20925C13.9209 3.13177 14.0128 3.0703 14.1139 3.02837C14.2151 2.98643 14.3235 2.96484 14.4331 2.96484C14.5426 2.96484 14.651 2.98643 14.7522 3.02837C14.8533 3.0703 14.9452 3.13177 15.0226 3.20925L16.7901 4.97675C16.8676 5.05414 16.9291 5.14605 16.971 5.24722C17.013 5.34838 17.0345 5.45682 17.0345 5.56633C17.0345 5.67585 17.013 5.78428 16.971 5.88545C16.9291 5.98661 16.8676 6.07852 16.7901 6.15592L14.6975 8.24938" stroke="#6C738A" stroke-width="1.5"/>
<path d="M49.3194 2.68202C49.235 2.59807 49.1284 2.53994 49.0122 2.51448C48.8959 2.48901 48.7748 2.49727 48.6631 2.53827L34.9131 7.53827C34.7945 7.58325 34.6924 7.66324 34.6204 7.76762C34.5483 7.87199 34.5098 7.99582 34.5098 8.12265C34.5098 8.24947 34.5483 8.3733 34.6204 8.47767C34.6924 8.58205 34.7945 8.66204 34.9131 8.70702L40.9131 11.107L43.3131 17.107C43.3582 17.2204 43.4355 17.3181 43.5354 17.3881C43.6354 17.458 43.7537 17.4972 43.8756 17.5008C44.0019 17.4982 44.1245 17.4574 44.2271 17.3837C44.3298 17.3101 44.4077 17.2071 44.4506 17.0883L49.4506 3.33827C49.4932 3.22769 49.5035 3.10729 49.4802 2.9911C49.457 2.87491 49.4012 2.76772 49.3194 2.68202ZM43.8756 15.1258L42.1319 10.7508L45.1256 7.75702L44.2444 6.87577L41.2256 9.89452L36.8756 8.12577L47.8319 4.16952L43.8756 15.1258Z" fill="#6C738A"/>
<path d="M72 5.25C72.4142 5.25 72.75 4.91421 72.75 4.5C72.75 4.08579 72.4142 3.75 72 3.75C71.5858 3.75 71.25 4.08579 71.25 4.5C71.25 4.91421 71.5858 5.25 72 5.25Z" stroke="#949AAB" stroke-width="1.5" stroke-linecap="round" stroke-linejoin="round"/>
<path d="M72 10.75C72.4142 10.75 72.75 10.4142 72.75 10C72.75 9.58579 72.4142 9.25 72 9.25C71.5858 9.25 71.25 9.58579 71.25 10C71.25 10.4142 71.5858 10.75 72 10.75Z" stroke="#949AAB" stroke-width="1.5" stroke-linecap="round" stroke-linejoin="round"/>
<path d="M72 16.25C72.4142 16.25 72.75 15.9142 72.75 15.5C72.75 15.0858 72.4142 14.75 72 14.75C71.5858 14.75 71.25 15.0858 71.25 15.5C71.25 15.9142 71.5858 16.25 72 16.25Z" stroke="#949AAB" stroke-width="1.5" stroke-linecap="round" stroke-linejoin="round"/>
</svg>
