<svg width="18" height="18" viewBox="0 0 18 18" fill="none" xmlns="http://www.w3.org/2000/svg">
<path d="M10.5002 1.49988H4.50025C4.10242 1.49988 3.72089 1.65791 3.43959 1.93922C3.15828 2.22052 3.00025 2.60205 3.00025 2.99988V14.9999C3.00025 15.3977 3.15828 15.7792 3.43959 16.0605C3.72089 16.3418 4.10242 16.4999 4.50025 16.4999H13.5002C13.8981 16.4999 14.2796 16.3418 14.5609 16.0605C14.8422 15.7792 15.0002 15.3977 15.0002 14.9999V5.99988M10.5002 1.49988L15.0002 5.99988M10.5002 1.49988L10.5002 5.99988H15.0002M12.0002 9.74988H6.00025M12.0002 12.7499H6.00025M7.50025 6.74988H6.00025" stroke="#1A1A1A" stroke-width="0.886157" stroke-linecap="round" stroke-linejoin="round"/>
</svg>
