<svg width="24" height="24" viewBox="0 0 24 24" fill="none" xmlns="http://www.w3.org/2000/svg">
<path d="M13.6001 2.3999H5.6001C5.06966 2.3999 4.56096 2.61062 4.18588 2.98569C3.81081 3.36076 3.6001 3.86947 3.6001 4.3999V20.3999C3.6001 20.9303 3.81081 21.439 4.18588 21.8141C4.56096 22.1892 5.06966 22.3999 5.6001 22.3999H17.6001C18.1305 22.3999 18.6392 22.1892 19.0143 21.8141C19.3894 21.439 19.6001 20.9303 19.6001 20.3999V8.3999M13.6001 2.3999L19.6001 8.3999M13.6001 2.3999L13.6001 8.3999H19.6001" stroke="#1A1A1A" stroke-linecap="round" stroke-linejoin="round"/>
<path fill-rule="evenodd" clip-rule="evenodd" d="M11.3999 17.6567C11.2863 17.6567 11.1773 17.6116 11.097 17.5312C11.0166 17.4509 10.9715 17.3419 10.9715 17.2282L10.9715 12.2638L9.13238 14.1037C9.09254 14.1436 9.04525 14.1752 8.99319 14.1967C8.94114 14.2183 8.88535 14.2294 8.82901 14.2294C8.77267 14.2294 8.71688 14.2183 8.66483 14.1967C8.61278 14.1752 8.56548 14.1436 8.52564 14.1037C8.4858 14.0639 8.4542 14.0166 8.43264 13.9645C8.41108 13.9125 8.39998 13.8567 8.39998 13.8003C8.39998 13.744 8.41108 13.6882 8.43264 13.6362C8.4542 13.5841 8.4858 13.5368 8.52564 13.497L11.0966 10.926C11.1364 10.8861 11.1837 10.8545 11.2357 10.8329C11.2878 10.8113 11.3436 10.8002 11.3999 10.8002C11.4563 10.8002 11.5121 10.8113 11.5642 10.8329C11.6162 10.8545 11.6635 10.8861 11.7033 10.926L14.2742 13.497C14.3141 13.5368 14.3457 13.5841 14.3672 13.6362C14.3888 13.6882 14.3999 13.744 14.3999 13.8003C14.3999 13.8567 14.3888 13.9125 14.3672 13.9645C14.3457 14.0166 14.3141 14.0639 14.2742 14.1037C14.1938 14.1842 14.0847 14.2294 13.9709 14.2294C13.9145 14.2294 13.8587 14.2183 13.8067 14.1967C13.7546 14.1752 13.7073 14.1436 13.6675 14.1037L11.8284 12.2638L11.8284 17.2282C11.8284 17.3419 11.7833 17.4509 11.7029 17.5312C11.6226 17.6116 11.5136 17.6567 11.3999 17.6567Z" fill="#1A1A1A"/>
</svg>
