<svg width="20" height="20" viewBox="0 0 20 20" fill="none" xmlns="http://www.w3.org/2000/svg">
<path d="M9.99935 9.64583C10.3605 9.64583 10.6695 9.51736 10.9264 9.26042C11.1834 9.00347 11.3118 8.69444 11.3118 8.33333C11.3118 7.97222 11.1834 7.66319 10.9264 7.40625C10.6695 7.14931 10.3605 7.02083 9.99935 7.02083C9.63824 7.02083 9.32921 7.14931 9.07227 7.40625C8.81532 7.66319 8.68685 7.97222 8.68685 8.33333C8.68685 8.69444 8.81532 9.00347 9.07227 9.26042C9.32921 9.51736 9.63824 9.64583 9.99935 9.64583ZM9.99935 16.9167C11.8188 15.2917 13.1938 13.7465 14.1243 12.2812C15.0549 10.816 15.5202 9.55556 15.5202 8.5C15.5202 6.83333 14.9889 5.46875 13.9264 4.40625C12.8639 3.34375 11.5549 2.8125 9.99935 2.8125C8.44379 2.8125 7.13477 3.34375 6.07227 4.40625C5.00977 5.46875 4.47852 6.83333 4.47852 8.5C4.47852 9.55556 4.95074 10.816 5.89518 12.2812C6.83963 13.7465 8.20768 15.2917 9.99935 16.9167ZM9.99935 18.1667C7.83268 16.2778 6.21463 14.5278 5.14518 12.9167C4.07574 11.3056 3.54102 9.83333 3.54102 8.5C3.54102 6.48611 4.19032 4.87847 5.48893 3.67708C6.78754 2.47569 8.29102 1.875 9.99935 1.875C11.7077 1.875 13.2112 2.47569 14.5098 3.67708C15.8084 4.87847 16.4577 6.48611 16.4577 8.5C16.4577 9.83333 15.923 11.3056 14.8535 12.9167C13.7841 14.5278 12.166 16.2778 9.99935 18.1667Z" fill="#A82525"/>
</svg>
