<svg width="22" height="22" viewBox="0 0 22 22" fill="none" xmlns="http://www.w3.org/2000/svg">
<path d="M11 10.6103C11.3972 10.6103 11.7371 10.469 12.0198 10.1864C12.3024 9.90375 12.4437 9.56382 12.4437 9.1666C12.4437 8.76938 12.3024 8.42945 12.0198 8.14681C11.7371 7.86418 11.3972 7.72286 11 7.72286C10.6028 7.72286 10.2628 7.86418 9.98019 8.14681C9.69755 8.42945 9.55623 8.76938 9.55623 9.1666C9.55623 9.56382 9.69755 9.90375 9.98019 10.1864C10.2628 10.469 10.6028 10.6103 11 10.6103ZM11 18.6082C13.0013 16.8207 14.5138 15.1211 15.5374 13.5093C16.561 11.8975 17.0728 10.511 17.0728 9.34993C17.0728 7.51661 16.4885 6.01558 15.3197 4.84684C14.151 3.6781 12.7111 3.09373 11 3.09373C9.28887 3.09373 7.84895 3.6781 6.68021 4.84684C5.51147 6.01558 4.9271 7.51661 4.9271 9.34993C4.9271 10.511 5.44654 11.8975 6.48542 13.5093C7.5243 15.1211 9.02915 16.8207 11 18.6082ZM11 19.9832C8.61666 17.9054 6.83681 15.9804 5.66043 14.2082C4.48405 12.436 3.89586 10.8166 3.89586 9.34993C3.89586 7.13467 4.61009 5.36628 6.03855 4.04476C7.46701 2.72324 9.12082 2.06248 11 2.06248C12.8791 2.06248 14.5329 2.72324 15.9614 4.04476C17.3899 5.36628 18.1041 7.13467 18.1041 9.34993C18.1041 10.8166 17.5159 12.436 16.3395 14.2082C15.1631 15.9804 13.3833 17.9054 11 19.9832Z" fill="#EE3F32"/>
</svg>
