<svg width="38" height="36" viewBox="0 0 38 36" fill="none" xmlns="http://www.w3.org/2000/svg">
<path d="M12.5333 23.4664H19.822V19.822H23.4664V12.5333H12.5333V23.4664ZM12.5333 24.5597C12.2296 24.5597 11.9714 24.4534 11.7588 24.2408C11.5462 24.0282 11.4399 23.77 11.4399 23.4664V12.5333C11.4399 12.2296 11.5462 11.9714 11.7588 11.7588C11.9714 11.5462 12.2296 11.4399 12.5333 11.4399H23.4664C23.77 11.4399 24.0282 11.5462 24.2408 11.7588C24.4534 11.9714 24.5597 12.2296 24.5597 12.5333V20.1864L20.1864 24.5597H12.5333ZM14.7199 19.0931V17.9998H17.8176V19.0931H14.7199ZM14.7199 16.1776V15.0843H21.2797V16.1776H14.7199ZM12.5333 23.4664V12.5333V23.4664Z" fill="#4364C6"/>
<rect x="23" y="19" width="14.8333" height="14.8333" rx="7.41667" fill="#E3EAFF"/>
<path d="M30.4168 22.584V30.2495M26.584 26.4168H34.2495" stroke="#4247C7" stroke-width="1.15856" stroke-linecap="round" stroke-linejoin="round"/>
<rect x="0.333333" y="0.333333" width="35.3333" height="35.3333" rx="17.6667" stroke="#EFEFEF" stroke-width="0.666667"/>
</svg>
