<svg width="16" height="10" viewBox="0 0 16 10" fill="none" xmlns="http://www.w3.org/2000/svg">
<path d="M11.5 0C11.6326 0 11.7598 0.0526785 11.8536 0.146447C11.9473 0.240215 12 0.367392 12 0.5V1H13.02C13.2447 1.0002 13.4666 1.0509 13.6691 1.14835C13.8716 1.24579 14.0496 1.3875 14.19 1.563L15.671 3.413C15.8841 3.67919 16.0001 4.01003 16 4.351V6.5C16 6.89782 15.842 7.27936 15.5607 7.56066C15.2794 7.84196 14.8978 8 14.5 8H14C14 8.53043 13.7893 9.03914 13.4142 9.41421C13.0391 9.78929 12.5304 10 12 10C11.4696 10 10.9609 9.78929 10.5858 9.41421C10.2107 9.03914 10 8.53043 10 8H5C5 8.53043 4.78929 9.03914 4.41421 9.41421C4.03914 9.78929 3.53043 10 3 10C2.46957 10 1.96086 9.78929 1.58579 9.41421C1.21071 9.03914 1 8.53043 1 8C0.734784 8 0.48043 7.89464 0.292893 7.70711C0.105357 7.51957 0 7.26522 0 7V6H11V0.5C11 0.367392 11.0527 0.240215 11.1464 0.146447C11.2402 0.0526785 11.3674 0 11.5 0ZM3 7C2.73478 7 2.48043 7.10536 2.29289 7.29289C2.10536 7.48043 2 7.73478 2 8C2 8.26522 2.10536 8.51957 2.29289 8.70711C2.48043 8.89464 2.73478 9 3 9C3.26522 9 3.51957 8.89464 3.70711 8.70711C3.89464 8.51957 4 8.26522 4 8C4 7.73478 3.89464 7.48043 3.70711 7.29289C3.51957 7.10536 3.26522 7 3 7ZM12 7C11.7348 7 11.4804 7.10536 11.2929 7.29289C11.1054 7.48043 11 7.73478 11 8C11 8.26522 11.1054 8.51957 11.2929 8.70711C11.4804 8.89464 11.7348 9 12 9C12.2652 9 12.5196 8.89464 12.7071 8.70711C12.8946 8.51957 13 8.26522 13 8C13 7.73478 12.8946 7.48043 12.7071 7.29289C12.5196 7.10536 12.2652 7 12 7ZM13.732 7H14.5C14.6326 7 14.7598 6.94732 14.8536 6.85355C14.9473 6.75979 15 6.63261 15 6.5V4.35C14.9998 4.23653 14.961 4.12651 14.89 4.038L13.41 2.188C13.3632 2.12944 13.3039 2.08214 13.2364 2.0496C13.1689 2.01706 13.0949 2.00011 13.02 2H12V6C12.3511 6.00001 12.6959 6.09243 13 6.26796C13.304 6.4435 13.5565 6.69597 13.732 7Z" fill="white"/>
</svg>
