<svg width="15" height="15" viewBox="0 0 15 15" fill="none" xmlns="http://www.w3.org/2000/svg">
<g clip-path="url(#clip0_598_52360)">
<path d="M1.87568 1.87499V14.5312C1.87562 14.6126 1.89676 14.6926 1.93702 14.7634C1.97727 14.8341 2.03526 14.8931 2.10526 14.9347C2.17527 14.9762 2.25489 14.9988 2.33628 15.0002C2.41766 15.0016 2.49802 14.9818 2.56943 14.9428L7.50066 12.2521L12.4319 14.9428C12.5033 14.9818 12.5836 15.0016 12.665 15.0002C12.7464 14.9988 12.826 14.9762 12.896 14.9347C12.9661 14.8931 13.024 14.8341 13.0643 14.7634C13.1046 14.6926 13.1257 14.6126 13.1256 14.5312V1.87499C13.1256 1.37771 12.9281 0.900802 12.5765 0.549173C12.2248 0.197543 11.7479 0 11.2506 0L3.75067 0C3.25339 0 2.77648 0.197543 2.42485 0.549173C2.07322 0.900802 1.87568 1.37771 1.87568 1.87499Z" fill="#4247C7"/>
</g>
<defs>
<clipPath id="clip0_598_52360">
<rect width="14.8154" height="14.8154" fill="white" transform="scale(1.01246)"/>
</clipPath>
</defs>
</svg>
