<svg width="22" height="22" viewBox="0 0 22 22" fill="none" xmlns="http://www.w3.org/2000/svg">
<path d="M1.89062 22C1.36354 22 0.916667 21.8167 0.55 21.45C0.183333 21.0833 0 20.6365 0 20.1094V1.89062C0 1.36354 0.183333 0.916667 0.55 0.55C0.916667 0.183333 1.36354 0 1.89062 0H20.1094C20.6365 0 21.0833 0.183333 21.45 0.55C21.8167 0.916667 22 1.36354 22 1.89062V20.1094C22 20.6365 21.8167 21.0833 21.45 21.45C21.0833 21.8167 20.6365 22 20.1094 22H1.89062ZM1.89062 20.9344H20.1094C20.3156 20.9344 20.5047 20.8484 20.6766 20.6766C20.8484 20.5047 20.9344 20.3156 20.9344 20.1094V1.89062C20.9344 1.68438 20.8484 1.49531 20.6766 1.32344C20.5047 1.15156 20.3156 1.06563 20.1094 1.06563H1.89062C1.68438 1.06563 1.49531 1.15156 1.32344 1.32344C1.15156 1.49531 1.06563 1.68438 1.06563 1.89062V20.1094C1.06563 20.3156 1.15156 20.5047 1.32344 20.6766C1.49531 20.8484 1.68438 20.9344 1.89062 20.9344ZM4.74375 17.2219H17.4969L13.6125 12.1L9.86563 16.8438L7.39062 13.8188L4.74375 17.2219ZM1.06563 20.9344V1.06563V20.9344Z" fill="black"/>
</svg>
