<svg width="38" height="36" viewBox="0 0 38 36" fill="none" xmlns="http://www.w3.org/2000/svg">
<path d="M18.0002 18.3418C16.8863 18.3418 15.9748 17.9789 15.266 17.2532C14.5571 16.5274 14.2026 15.6244 14.2026 14.5442H13.9495C13.8144 14.5442 13.6963 14.4936 13.595 14.3923C13.4938 14.2911 13.4431 14.1729 13.4431 14.0379C13.4431 13.9029 13.4938 13.7847 13.595 13.6835C13.6963 13.5822 13.8144 13.5316 13.9495 13.5316H14.2026C14.2026 12.8564 14.3714 12.2488 14.709 11.7087C15.0465 11.1686 15.4854 10.7298 16.0255 10.3922V11.3796C16.0255 11.4809 16.0634 11.5695 16.1394 11.6454C16.2154 11.7214 16.304 11.7594 16.4052 11.7594C16.5234 11.7594 16.6162 11.7214 16.6837 11.6454C16.7512 11.5695 16.785 11.4809 16.785 11.3796V10.0631C16.92 10.0294 17.1057 9.99982 17.342 9.9745C17.5783 9.94918 17.8061 9.93652 18.0255 9.93652C18.2449 9.93652 18.4728 9.94918 18.7091 9.9745C18.9454 9.99982 19.131 10.0294 19.2661 10.0631V11.3796C19.2661 11.4809 19.2998 11.5695 19.3673 11.6454C19.4348 11.7214 19.5277 11.7594 19.6458 11.7594C19.7471 11.7594 19.8357 11.7214 19.9117 11.6454C19.9876 11.5695 20.0256 11.4809 20.0256 11.3796V10.3922C20.5657 10.7298 20.9961 11.1686 21.3168 11.7087C21.6374 12.2488 21.7978 12.8564 21.7978 13.5316H22.0509C22.186 13.5316 22.3041 13.5822 22.4054 13.6835C22.5067 13.7847 22.5573 13.9029 22.5573 14.0379C22.5573 14.1729 22.5067 14.2911 22.4054 14.3923C22.3041 14.4936 22.186 14.5442 22.0509 14.5442H21.7978C21.7978 15.6244 21.4433 16.5274 20.7345 17.2532C20.0256 17.9789 19.1142 18.3418 18.0002 18.3418ZM18.0002 16.8228C18.7091 16.8228 19.2661 16.6118 19.6711 16.1899C20.0762 15.7679 20.2787 15.2194 20.2787 14.5442H15.7217C15.7217 15.2194 15.9242 15.7679 16.3293 16.1899C16.7344 16.6118 17.2913 16.8228 18.0002 16.8228ZM10 26.0635V23.7344C10 23.1605 10.135 22.6837 10.4051 22.3039C10.6751 21.9242 11.0549 21.6162 11.5443 21.3799C12.4558 20.941 13.4305 20.5782 14.4685 20.2912C15.5065 20.0043 16.6837 19.8608 18.0002 19.8608C19.3167 19.8608 20.4939 20.0043 21.5319 20.2912C22.5699 20.5782 23.5447 20.941 24.4561 21.3799C24.9455 21.6162 25.3253 21.9242 25.5953 22.3039C25.8654 22.6837 26.0004 23.1605 26.0004 23.7344V26.0635H10ZM11.519 24.5445H24.4814V23.7344C24.4814 23.4812 24.4097 23.2744 24.2662 23.1141C24.1227 22.9537 23.9497 22.8314 23.7472 22.747C23.0214 22.4263 22.2113 22.1183 21.3168 21.8229C20.4222 21.5275 19.3167 21.3799 18.0002 21.3799C16.6837 21.3799 15.5782 21.5275 14.6837 21.8229C13.7891 22.1183 12.979 22.4263 12.2532 22.747C12.0507 22.8314 11.8777 22.9537 11.7342 23.1141C11.5908 23.2744 11.519 23.4812 11.519 23.7344V24.5445Z" fill="#4364C6"/>
<rect x="23" y="19" width="14.8333" height="14.8333" rx="7.41667" fill="#E3EAFF"/>
<path d="M30.4168 22.584V30.2495M26.584 26.4168H34.2495" stroke="#4247C7" stroke-width="1.15856" stroke-linecap="round" stroke-linejoin="round"/>
<rect x="0.428571" y="0.428571" width="35.1429" height="35.1429" rx="17.5714" stroke="#EFEFEF" stroke-width="0.857143"/>
</svg>
