<svg width="14" height="18" viewBox="0 0 14 18" fill="none" xmlns="http://www.w3.org/2000/svg">
<path d="M6.99997 8.42255C7.39137 8.42255 7.72631 8.2833 8.00481 8.00481C8.2833 7.72631 8.42255 7.39137 8.42255 6.99997C8.42255 6.60858 8.2833 6.27363 8.00481 5.99514C7.72631 5.71664 7.39137 5.5774 6.99997 5.5774C6.60858 5.5774 6.27363 5.71664 5.99514 5.99514C5.71664 6.27363 5.5774 6.60858 5.5774 6.99997C5.5774 7.39137 5.71664 7.72631 5.99514 8.00481C6.27363 8.2833 6.60858 8.42255 6.99997 8.42255ZM6.99997 16.3032C8.97201 14.5419 10.4623 12.8672 11.4709 11.279C12.4795 9.69082 12.9838 8.3247 12.9838 7.18062C12.9838 5.37417 12.408 3.89515 11.2564 2.74354C10.1048 1.59193 8.68599 1.01613 6.99997 1.01613C5.31396 1.01613 3.89515 1.59193 2.74354 2.74354C1.59193 3.89515 1.01613 5.37417 1.01613 7.18062C1.01613 8.3247 1.52795 9.69082 2.5516 11.279C3.57525 12.8672 5.05804 14.5419 6.99997 16.3032ZM6.99997 17.658C4.65159 15.6107 2.89784 13.7139 1.7387 11.9677C0.579568 10.2215 0 8.62577 0 7.18062C0 4.99783 0.703761 3.25536 2.11128 1.95322C3.5188 0.651073 5.14837 0 6.99997 0C8.85158 0 10.4811 0.651073 11.8887 1.95322C13.2962 3.25536 13.9999 4.99783 13.9999 7.18062C13.9999 8.62577 13.4204 10.2215 12.2612 11.9677C11.1021 13.7139 9.34835 15.6107 6.99997 17.658Z" fill="#198460"/>
</svg>
