<svg width="16" height="11" viewBox="0 0 16 11" fill="none" xmlns="http://www.w3.org/2000/svg">
<path d="M16 8.07812H0V8.88437H16V8.07812Z" fill="#B22234"/>
<path d="M7.44687 0V0.403125V0.80625H16V0H7.44687Z" fill="#B22234"/>
<path d="M16 0.806274H7.44687V1.61252H16V0.806274Z" fill="white"/>
<path d="M16 1.6156H7.44687V2.42185H16V1.6156Z" fill="#B22234"/>
<path d="M16 2.42188H7.44687V3.22813H16V2.42188Z" fill="white"/>
<path d="M16 3.2312H7.44687V4.03745H16V3.2312Z" fill="#B22234"/>
<path d="M16 4.03748H7.44687V4.84373H16V4.03748Z" fill="white"/>
<path d="M16 4.84692H7.44687V5.65317H16V4.84692Z" fill="#B22234"/>
<path d="M16 5.65308H0V6.45933H16V5.65308Z" fill="white"/>
<path d="M16 6.46252H0V7.26877H16V6.46252Z" fill="#B22234"/>
<path d="M16 8.8844H0V9.69065H16V8.8844Z" fill="white"/>
<path d="M16 9.69373H0V10.5H16V9.69373Z" fill="#B22234"/>
<path d="M0 0V0.403125V0.80625V5.65312H7.44688V0.80625V0.403125V0H0Z" fill="#3C3B6E"/>
<path d="M0.774987 0.640674L0.837487 0.825049H1.03124C1.05624 0.825049 1.06561 0.856299 1.04686 0.871924L0.890612 0.987549L0.949987 1.17192C0.956237 1.19692 0.931237 1.21567 0.909362 1.20005L0.753112 1.08755L0.596862 1.20005C0.574987 1.21567 0.549987 1.1938 0.556237 1.17192L0.615612 0.987549L0.459362 0.871924C0.440612 0.856299 0.449987 0.825049 0.474987 0.825049H0.668737L0.731237 0.640674C0.734362 0.618799 0.765612 0.618799 0.774987 0.640674Z" fill="white"/>
<path d="M0.774987 1.60005L0.837487 1.78442H1.03124C1.05624 1.78442 1.06561 1.81567 1.04686 1.8313L0.890612 1.94692L0.949987 2.1313C0.956237 2.1563 0.931237 2.17505 0.909362 2.15942L0.753112 2.04692L0.596862 2.15942C0.574987 2.17505 0.549987 2.15317 0.556237 2.1313L0.615612 1.94692L0.459362 1.8313C0.440612 1.81567 0.449987 1.78442 0.474987 1.78442H0.668737L0.731237 1.60005C0.734362 1.57505 0.765612 1.57505 0.774987 1.60005Z" fill="white"/>
<path d="M0.774987 2.55632L0.837487 2.7407H1.03124C1.05624 2.7407 1.06561 2.77195 1.04686 2.78757L0.890612 2.9032L0.949987 3.08757C0.956237 3.11257 0.931237 3.13132 0.909362 3.1157L0.753112 3.0032L0.596862 3.1157C0.574987 3.13132 0.549987 3.10945 0.556237 3.08757L0.615612 2.9032L0.459362 2.78757C0.440612 2.77195 0.449987 2.7407 0.474987 2.7407H0.668737L0.731237 2.55632C0.734362 2.53445 0.765612 2.53445 0.774987 2.55632Z" fill="white"/>
<path d="M0.774987 3.5157L0.837487 3.70007H1.03124C1.05624 3.70007 1.06561 3.73132 1.04686 3.74695L0.890612 3.86257L0.949987 4.04695C0.956237 4.07195 0.931237 4.0907 0.909362 4.07507L0.753112 3.96257L0.596862 4.07507C0.574987 4.0907 0.549987 4.06882 0.556237 4.04695L0.615612 3.86257L0.459362 3.74695C0.440612 3.73132 0.449987 3.70007 0.474987 3.70007H0.668737L0.731237 3.5157C0.734362 3.4907 0.765612 3.4907 0.774987 3.5157Z" fill="white"/>
<path d="M0.774987 4.47505L0.837487 4.65942H1.03124C1.05624 4.65942 1.06561 4.69067 1.04686 4.7063L0.890612 4.82192L0.949987 5.0063C0.956237 5.0313 0.931237 5.05005 0.909362 5.03442L0.753112 4.92192L0.596862 5.03442C0.574987 5.05005 0.549987 5.02817 0.556237 5.0063L0.615612 4.82192L0.459362 4.7063C0.440612 4.69067 0.449987 4.65942 0.474987 4.65942H0.668737L0.731237 4.47505C0.734362 4.45005 0.765612 4.45005 0.774987 4.47505Z" fill="white"/>
<path d="M1.51873 1.1125L1.58123 1.29688H1.77498C1.79998 1.29688 1.80936 1.32813 1.79061 1.34375L1.63436 1.45937L1.69373 1.64375C1.69998 1.66875 1.67498 1.6875 1.65311 1.67188L1.49686 1.55937L1.34061 1.67188C1.31873 1.6875 1.29373 1.66563 1.29998 1.64375L1.35936 1.45937L1.20311 1.34375C1.18436 1.32813 1.19373 1.29688 1.21873 1.29688H1.41248L1.47498 1.1125C1.47811 1.0875 1.50936 1.0875 1.51873 1.1125Z" fill="white"/>
<path d="M1.51873 2.06877L1.58123 2.25315H1.77498C1.79998 2.25315 1.80936 2.2844 1.79061 2.30002L1.63436 2.41565L1.69373 2.60002C1.69998 2.62502 1.67498 2.64377 1.65311 2.62815L1.49686 2.51565L1.34061 2.62815C1.31873 2.64377 1.29373 2.6219 1.29998 2.60002L1.35936 2.41565L1.20311 2.30002C1.18436 2.2844 1.19373 2.25315 1.21873 2.25315H1.41248L1.47498 2.06877C1.47811 2.0469 1.50936 2.0469 1.51873 2.06877Z" fill="white"/>
<path d="M1.51873 3.02815L1.58123 3.21252H1.77498C1.79998 3.21252 1.80936 3.24377 1.79061 3.2594L1.63436 3.37502L1.69373 3.5594C1.69998 3.5844 1.67498 3.60315 1.65311 3.58752L1.49686 3.47502L1.34061 3.58752C1.31873 3.60315 1.29373 3.58127 1.29998 3.5594L1.35936 3.37502L1.20311 3.2594C1.18436 3.24377 1.19373 3.21252 1.21873 3.21252H1.41248L1.47498 3.02815C1.47811 3.00315 1.50936 3.00315 1.51873 3.02815Z" fill="white"/>
<path d="M1.51873 3.98442L1.58123 4.1688H1.77498C1.79998 4.1688 1.80936 4.20005 1.79061 4.21567L1.63436 4.3313L1.69373 4.51567C1.69998 4.54067 1.67498 4.55942 1.65311 4.5438L1.49686 4.4313L1.34061 4.5438C1.31873 4.55942 1.29373 4.53755 1.29998 4.51567L1.35936 4.3313L1.20311 4.21567C1.18436 4.20005 1.19373 4.1688 1.21873 4.1688H1.41248L1.47498 3.98442C1.47811 3.96255 1.50936 3.96255 1.51873 3.98442Z" fill="white"/>
<path d="M2.26247 0.640674L2.32497 0.825049H2.51872C2.54372 0.825049 2.5531 0.856299 2.53435 0.871924L2.3781 0.987549L2.43747 1.17192C2.44372 1.19692 2.41872 1.21567 2.39685 1.20005L2.2406 1.08755L2.08435 1.20005C2.06247 1.21567 2.03747 1.1938 2.04372 1.17192L2.1031 0.987549L1.94685 0.871924C1.9281 0.856299 1.93747 0.825049 1.96247 0.825049H2.15622L2.21872 0.640674C2.21872 0.618799 2.2531 0.618799 2.26247 0.640674Z" fill="white"/>
<path d="M2.26247 1.60005L2.32497 1.78442H2.51872C2.54372 1.78442 2.5531 1.81567 2.53435 1.8313L2.3781 1.94692L2.43747 2.1313C2.44372 2.1563 2.41872 2.17505 2.39685 2.15942L2.2406 2.04692L2.08435 2.15942C2.06247 2.17505 2.03747 2.15317 2.04372 2.1313L2.1031 1.94692L1.94685 1.8313C1.9281 1.81567 1.93747 1.78442 1.96247 1.78442H2.15622L2.21872 1.60005C2.21872 1.57505 2.2531 1.57505 2.26247 1.60005Z" fill="white"/>
<path d="M2.26247 2.55632L2.32497 2.7407H2.51872C2.54372 2.7407 2.5531 2.77195 2.53435 2.78757L2.3781 2.9032L2.43747 3.08757C2.44372 3.11257 2.41872 3.13132 2.39685 3.1157L2.2406 3.0032L2.08435 3.1157C2.06247 3.13132 2.03747 3.10945 2.04372 3.08757L2.1031 2.9032L1.94685 2.78757C1.9281 2.77195 1.93747 2.7407 1.96247 2.7407H2.15622L2.21872 2.55632C2.21872 2.53445 2.2531 2.53445 2.26247 2.55632Z" fill="white"/>
<path d="M2.26247 3.5157L2.32497 3.70007H2.51872C2.54372 3.70007 2.5531 3.73132 2.53435 3.74695L2.3781 3.86257L2.43747 4.04695C2.44372 4.07195 2.41872 4.0907 2.39685 4.07507L2.2406 3.96257L2.08435 4.07507C2.06247 4.0907 2.03747 4.06882 2.04372 4.04695L2.1031 3.86257L1.94685 3.74695C1.9281 3.73132 1.93747 3.70007 1.96247 3.70007H2.15622L2.21872 3.5157C2.21872 3.4907 2.2531 3.4907 2.26247 3.5157Z" fill="white"/>
<path d="M2.26247 4.47505L2.32497 4.65942H2.51872C2.54372 4.65942 2.5531 4.69067 2.53435 4.7063L2.3781 4.82192L2.43747 5.0063C2.44372 5.0313 2.41872 5.05005 2.39685 5.03442L2.2406 4.92192L2.08435 5.03442C2.06247 5.05005 2.03747 5.02817 2.04372 5.0063L2.1031 4.82192L1.94685 4.7063C1.9281 4.69067 1.93747 4.65942 1.96247 4.65942H2.15622L2.21872 4.47505C2.21872 4.45005 2.2531 4.45005 2.26247 4.47505Z" fill="white"/>
<path d="M3.00625 1.1125L3.06875 1.29688H3.2625C3.2875 1.29688 3.29687 1.32813 3.27812 1.34375L3.12187 1.45937L3.18125 1.64375C3.1875 1.66875 3.1625 1.6875 3.14062 1.67188L2.98437 1.55937L2.82812 1.67188C2.80625 1.6875 2.78125 1.66563 2.7875 1.64375L2.84687 1.45937L2.69062 1.34375C2.67187 1.32813 2.68125 1.29688 2.70625 1.29688H2.9L2.9625 1.1125C2.9625 1.0875 2.99687 1.0875 3.00625 1.1125Z" fill="white"/>
<path d="M3.00625 2.06877L3.06875 2.25315H3.2625C3.2875 2.25315 3.29687 2.2844 3.27812 2.30002L3.12187 2.41565L3.18125 2.60002C3.1875 2.62502 3.1625 2.64377 3.14062 2.62815L2.98437 2.51565L2.82812 2.62815C2.80625 2.64377 2.78125 2.6219 2.7875 2.60002L2.84687 2.41565L2.69062 2.30002C2.67187 2.2844 2.68125 2.25315 2.70625 2.25315H2.9L2.9625 2.06877C2.9625 2.0469 2.99687 2.0469 3.00625 2.06877Z" fill="white"/>
<path d="M3.00625 3.02815L3.06875 3.21252H3.2625C3.2875 3.21252 3.29687 3.24377 3.27812 3.2594L3.12187 3.37502L3.18125 3.5594C3.1875 3.5844 3.1625 3.60315 3.14062 3.58752L2.98437 3.47502L2.82812 3.58752C2.80625 3.60315 2.78125 3.58127 2.7875 3.5594L2.84687 3.37502L2.69062 3.2594C2.67187 3.24377 2.68125 3.21252 2.70625 3.21252H2.9L2.9625 3.02815C2.9625 3.00315 2.99687 3.00315 3.00625 3.02815Z" fill="white"/>
<path d="M3.00625 3.98442L3.06875 4.1688H3.2625C3.2875 4.1688 3.29687 4.20005 3.27812 4.21567L3.12187 4.3313L3.18125 4.51567C3.1875 4.54067 3.1625 4.55942 3.14062 4.5438L2.98437 4.4313L2.82812 4.5438C2.80625 4.55942 2.78125 4.53755 2.7875 4.51567L2.84687 4.3313L2.69062 4.21567C2.67187 4.20005 2.68125 4.1688 2.70625 4.1688H2.9L2.9625 3.98442C2.9625 3.96255 2.99687 3.96255 3.00625 3.98442Z" fill="white"/>
<path d="M3.74999 0.640674L3.81249 0.825049H4.00624C4.03124 0.825049 4.04062 0.856299 4.02187 0.871924L3.86562 0.987549L3.92499 1.17192C3.93124 1.19692 3.90624 1.21567 3.88437 1.20005L3.72812 1.08755L3.57187 1.20005C3.54999 1.21567 3.52499 1.1938 3.53124 1.17192L3.59062 0.987549L3.43437 0.871924C3.41562 0.856299 3.42499 0.825049 3.44999 0.825049H3.64374L3.70624 0.640674C3.70624 0.618799 3.74062 0.618799 3.74999 0.640674Z" fill="white"/>
<path d="M3.74999 1.60005L3.81249 1.78442H4.00624C4.03124 1.78442 4.04062 1.81567 4.02187 1.8313L3.86562 1.94692L3.92499 2.1313C3.93124 2.1563 3.90624 2.17505 3.88437 2.15942L3.72812 2.04692L3.57187 2.15942C3.54999 2.17505 3.52499 2.15317 3.53124 2.1313L3.59062 1.94692L3.43437 1.8313C3.41562 1.81567 3.42499 1.78442 3.44999 1.78442H3.64374L3.70624 1.60005C3.70624 1.57505 3.74062 1.57505 3.74999 1.60005Z" fill="white"/>
<path d="M3.74999 2.55632L3.81249 2.7407H4.00624C4.03124 2.7407 4.04062 2.77195 4.02187 2.78757L3.86562 2.9032L3.92499 3.08757C3.93124 3.11257 3.90624 3.13132 3.88437 3.1157L3.72812 3.0032L3.57187 3.1157C3.54999 3.13132 3.52499 3.10945 3.53124 3.08757L3.59062 2.9032L3.43437 2.78757C3.41562 2.77195 3.42499 2.7407 3.44999 2.7407H3.64374L3.70624 2.55632C3.70624 2.53445 3.74062 2.53445 3.74999 2.55632Z" fill="white"/>
<path d="M3.74999 3.5157L3.81249 3.70007H4.00624C4.03124 3.70007 4.04062 3.73132 4.02187 3.74695L3.86562 3.86257L3.92499 4.04695C3.93124 4.07195 3.90624 4.0907 3.88437 4.07507L3.72812 3.96257L3.57187 4.07507C3.54999 4.0907 3.52499 4.06882 3.53124 4.04695L3.59062 3.86257L3.43437 3.74695C3.41562 3.73132 3.42499 3.70007 3.44999 3.70007H3.64374L3.70624 3.5157C3.70624 3.4907 3.74062 3.4907 3.74999 3.5157Z" fill="white"/>
<path d="M3.74999 4.47505L3.81249 4.65942H4.00624C4.03124 4.65942 4.04062 4.69067 4.02187 4.7063L3.86562 4.82192L3.92499 5.0063C3.93124 5.0313 3.90624 5.05005 3.88437 5.03442L3.72812 4.92192L3.57187 5.03442C3.54999 5.05005 3.52499 5.02817 3.53124 5.0063L3.59062 4.82192L3.43437 4.7063C3.41562 4.69067 3.42499 4.65942 3.44999 4.65942H3.64374L3.70624 4.47505C3.70624 4.45005 3.74062 4.45005 3.74999 4.47505Z" fill="white"/>
<path d="M4.49374 1.1125L4.55624 1.29688H4.74999C4.77499 1.29688 4.78436 1.32813 4.76561 1.34375L4.60936 1.45937L4.66874 1.64375C4.67499 1.66875 4.64999 1.6875 4.62811 1.67188L4.47186 1.55937L4.31561 1.67188C4.29374 1.6875 4.26874 1.66563 4.27499 1.64375L4.33436 1.45937L4.17811 1.34375C4.15936 1.32813 4.16874 1.29688 4.19374 1.29688H4.38749L4.44999 1.1125C4.44999 1.0875 4.48436 1.0875 4.49374 1.1125Z" fill="white"/>
<path d="M4.49374 2.06877L4.55624 2.25315H4.74999C4.77499 2.25315 4.78436 2.2844 4.76561 2.30002L4.60936 2.41565L4.66874 2.60002C4.67499 2.62502 4.64999 2.64377 4.62811 2.62815L4.47186 2.51565L4.31561 2.62815C4.29374 2.64377 4.26874 2.6219 4.27499 2.60002L4.33436 2.41565L4.17811 2.30002C4.15936 2.2844 4.16874 2.25315 4.19374 2.25315H4.38749L4.44999 2.06877C4.44999 2.0469 4.48436 2.0469 4.49374 2.06877Z" fill="white"/>
<path d="M4.49374 3.02815L4.55624 3.21252H4.74999C4.77499 3.21252 4.78436 3.24377 4.76561 3.2594L4.60936 3.37502L4.66874 3.5594C4.67499 3.5844 4.64999 3.60315 4.62811 3.58752L4.47186 3.47502L4.31561 3.58752C4.29374 3.60315 4.26874 3.58127 4.27499 3.5594L4.33436 3.37502L4.17811 3.2594C4.15936 3.24377 4.16874 3.21252 4.19374 3.21252H4.38749L4.44999 3.02815C4.44999 3.00315 4.48436 3.00315 4.49374 3.02815Z" fill="white"/>
<path d="M4.49374 3.98442L4.55624 4.1688H4.74999C4.77499 4.1688 4.78436 4.20005 4.76561 4.21567L4.60936 4.3313L4.66874 4.51567C4.67499 4.54067 4.64999 4.55942 4.62811 4.5438L4.47186 4.4313L4.31561 4.5438C4.29374 4.55942 4.26874 4.53755 4.27499 4.51567L4.33436 4.3313L4.17811 4.21567C4.15936 4.20005 4.16874 4.1688 4.19374 4.1688H4.38749L4.44999 3.98442C4.44999 3.96255 4.48436 3.96255 4.49374 3.98442Z" fill="white"/>
<path d="M5.23437 0.640674L5.29687 0.825049H5.49062C5.51562 0.825049 5.52499 0.856299 5.50624 0.871924L5.34999 0.987549L5.40937 1.17192C5.41562 1.19692 5.39062 1.21567 5.36874 1.20005L5.21249 1.08755L5.05624 1.20005C5.03437 1.21567 5.00937 1.1938 5.01562 1.17192L5.07499 0.987549L4.91874 0.871924C4.89999 0.856299 4.90937 0.825049 4.93437 0.825049H5.12812L5.19062 0.640674C5.19374 0.618799 5.22812 0.618799 5.23437 0.640674Z" fill="white"/>
<path d="M5.23437 1.60005L5.29687 1.78442H5.49062C5.51562 1.78442 5.52499 1.81567 5.50624 1.8313L5.34999 1.94692L5.40937 2.1313C5.41562 2.1563 5.39062 2.17505 5.36874 2.15942L5.21249 2.04692L5.05624 2.15942C5.03437 2.17505 5.00937 2.15317 5.01562 2.1313L5.07499 1.94692L4.91874 1.8313C4.89999 1.81567 4.90937 1.78442 4.93437 1.78442H5.12812L5.19062 1.60005C5.19374 1.57505 5.22812 1.57505 5.23437 1.60005Z" fill="white"/>
<path d="M5.23437 2.55632L5.29687 2.7407H5.49062C5.51562 2.7407 5.52499 2.77195 5.50624 2.78757L5.34999 2.9032L5.40937 3.08757C5.41562 3.11257 5.39062 3.13132 5.36874 3.1157L5.21249 3.0032L5.05624 3.1157C5.03437 3.13132 5.00937 3.10945 5.01562 3.08757L5.07499 2.9032L4.91874 2.78757C4.89999 2.77195 4.90937 2.7407 4.93437 2.7407H5.12812L5.19062 2.55632C5.19374 2.53445 5.22812 2.53445 5.23437 2.55632Z" fill="white"/>
<path d="M5.23437 3.5157L5.29687 3.70007H5.49062C5.51562 3.70007 5.52499 3.73132 5.50624 3.74695L5.34999 3.86257L5.40937 4.04695C5.41562 4.07195 5.39062 4.0907 5.36874 4.07507L5.21249 3.96257L5.05624 4.07507C5.03437 4.0907 5.00937 4.06882 5.01562 4.04695L5.07499 3.86257L4.91874 3.74695C4.89999 3.73132 4.90937 3.70007 4.93437 3.70007H5.12812L5.19062 3.5157C5.19374 3.4907 5.22812 3.4907 5.23437 3.5157Z" fill="white"/>
<path d="M5.23437 4.47505L5.29687 4.65942H5.49062C5.51562 4.65942 5.52499 4.69067 5.50624 4.7063L5.34999 4.82192L5.40937 5.0063C5.41562 5.0313 5.39062 5.05005 5.36874 5.03442L5.21249 4.92192L5.05624 5.03442C5.03437 5.05005 5.00937 5.02817 5.01562 5.0063L5.07499 4.82192L4.91874 4.7063C4.89999 4.69067 4.90937 4.65942 4.93437 4.65942H5.12812L5.19062 4.47505C5.19374 4.45005 5.22812 4.45005 5.23437 4.47505Z" fill="white"/>
<path d="M5.97811 1.1125L6.04061 1.29688H6.23436C6.25936 1.29688 6.26874 1.32813 6.24999 1.34375L6.09374 1.45937L6.15311 1.64375C6.15936 1.66875 6.13436 1.6875 6.11249 1.67188L5.95624 1.55937L5.79999 1.67188C5.77811 1.6875 5.75311 1.66563 5.75936 1.64375L5.81874 1.45937L5.66249 1.34375C5.64374 1.32813 5.65311 1.29688 5.67811 1.29688H5.87186L5.93436 1.1125C5.93749 1.0875 5.97186 1.0875 5.97811 1.1125Z" fill="white"/>
<path d="M5.97811 2.06877L6.04061 2.25315H6.23436C6.25936 2.25315 6.26874 2.2844 6.24999 2.30002L6.09374 2.41565L6.15311 2.60002C6.15936 2.62502 6.13436 2.64377 6.11249 2.62815L5.95624 2.51565L5.79999 2.62815C5.77811 2.64377 5.75311 2.6219 5.75936 2.60002L5.81874 2.41565L5.66249 2.30002C5.64374 2.2844 5.65311 2.25315 5.67811 2.25315H5.87186L5.93436 2.06877C5.93749 2.0469 5.97186 2.0469 5.97811 2.06877Z" fill="white"/>
<path d="M5.97811 3.02815L6.04061 3.21252H6.23436C6.25936 3.21252 6.26874 3.24377 6.24999 3.2594L6.09374 3.37502L6.15311 3.5594C6.15936 3.5844 6.13436 3.60315 6.11249 3.58752L5.95624 3.47502L5.79999 3.58752C5.77811 3.60315 5.75311 3.58127 5.75936 3.5594L5.81874 3.37502L5.66249 3.2594C5.64374 3.24377 5.65311 3.21252 5.67811 3.21252H5.87186L5.93436 3.02815C5.93749 3.00315 5.97186 3.00315 5.97811 3.02815Z" fill="white"/>
<path d="M5.97811 3.98442L6.04061 4.1688H6.23436C6.25936 4.1688 6.26874 4.20005 6.24999 4.21567L6.09374 4.3313L6.15311 4.51567C6.15936 4.54067 6.13436 4.55942 6.11249 4.5438L5.95624 4.4313L5.79999 4.5438C5.77811 4.55942 5.75311 4.53755 5.75936 4.51567L5.81874 4.3313L5.66249 4.21567C5.64374 4.20005 5.65311 4.1688 5.67811 4.1688H5.87186L5.93436 3.98442C5.93749 3.96255 5.97186 3.96255 5.97811 3.98442Z" fill="white"/>
<path d="M6.72186 0.640674L6.78436 0.825049H6.97811C7.00311 0.825049 7.01248 0.856299 6.99373 0.871924L6.83748 0.987549L6.89686 1.17192C6.90311 1.19692 6.87811 1.21567 6.85623 1.20005L6.69998 1.08755L6.54373 1.20005C6.52186 1.21567 6.49686 1.1938 6.50311 1.17192L6.56248 0.987549L6.40623 0.871924C6.38748 0.856299 6.39686 0.825049 6.42186 0.825049H6.61561L6.67811 0.640674C6.68123 0.618799 6.71561 0.618799 6.72186 0.640674Z" fill="white"/>
<path d="M6.72186 1.60005L6.78436 1.78442H6.97811C7.00311 1.78442 7.01248 1.81567 6.99373 1.8313L6.83748 1.94692L6.89686 2.1313C6.90311 2.1563 6.87811 2.17505 6.85623 2.15942L6.69998 2.04692L6.54373 2.15942C6.52186 2.17505 6.49686 2.15317 6.50311 2.1313L6.56248 1.94692L6.40623 1.8313C6.38748 1.81567 6.39686 1.78442 6.42186 1.78442H6.61561L6.67811 1.60005C6.68123 1.57505 6.71561 1.57505 6.72186 1.60005Z" fill="white"/>
<path d="M6.72186 2.55632L6.78436 2.7407H6.97811C7.00311 2.7407 7.01248 2.77195 6.99373 2.78757L6.83748 2.9032L6.89686 3.08757C6.90311 3.11257 6.87811 3.13132 6.85623 3.1157L6.69998 3.0032L6.54373 3.1157C6.52186 3.13132 6.49686 3.10945 6.50311 3.08757L6.56248 2.9032L6.40623 2.78757C6.38748 2.77195 6.39686 2.7407 6.42186 2.7407H6.61561L6.67811 2.55632C6.68123 2.53445 6.71561 2.53445 6.72186 2.55632Z" fill="white"/>
<path d="M6.72186 3.5157L6.78436 3.70007H6.97811C7.00311 3.70007 7.01248 3.73132 6.99373 3.74695L6.83748 3.86257L6.89686 4.04695C6.90311 4.07195 6.87811 4.0907 6.85623 4.07507L6.69998 3.96257L6.54373 4.07507C6.52186 4.0907 6.49686 4.06882 6.50311 4.04695L6.56248 3.86257L6.40623 3.74695C6.38748 3.73132 6.39686 3.70007 6.42186 3.70007H6.61561L6.67811 3.5157C6.68123 3.4907 6.71561 3.4907 6.72186 3.5157Z" fill="white"/>
<path d="M6.72186 4.47505L6.78436 4.65942H6.97811C7.00311 4.65942 7.01248 4.69067 6.99373 4.7063L6.83748 4.82192L6.89686 5.0063C6.90311 5.0313 6.87811 5.05005 6.85623 5.03442L6.69998 4.92192L6.54373 5.03442C6.52186 5.05005 6.49686 5.02817 6.50311 5.0063L6.56248 4.82192L6.40623 4.7063C6.38748 4.69067 6.39686 4.65942 6.42186 4.65942H6.61561L6.67811 4.47505C6.68123 4.45005 6.71561 4.45005 6.72186 4.47505Z" fill="white"/>
<path d="M16 7.2688H0V8.07505H16V7.2688Z" fill="white"/>
</svg>
