<svg width="16" height="16" viewBox="0 0 16 16" fill="none" xmlns="http://www.w3.org/2000/svg">
<path d="M3.29967 14.3335C3.03301 14.3335 2.80523 14.2391 2.61634 14.0502C2.42745 13.8613 2.33301 13.6335 2.33301 13.3668V3.71683C2.33301 3.46127 2.42745 3.23627 2.61634 3.04183C2.80523 2.84739 3.03301 2.75016 3.29967 2.75016H4.53301V1.5835H5.36634V2.75016H10.6663V1.5835H11.483V2.75016H12.6997C12.9663 2.75016 13.1941 2.84739 13.383 3.04183C13.5719 3.23627 13.6663 3.46127 13.6663 3.71683V13.3668C13.6663 13.6335 13.5719 13.8613 13.383 14.0502C13.1941 14.2391 12.9663 14.3335 12.6997 14.3335H3.29967ZM3.29967 13.5835H12.6997C12.7552 13.5835 12.8052 13.5613 12.8497 13.5168C12.8941 13.4724 12.9163 13.4224 12.9163 13.3668V6.75016H3.08301V13.3668C3.08301 13.4224 3.10523 13.4724 3.14967 13.5168C3.19412 13.5613 3.24412 13.5835 3.29967 13.5835ZM3.08301 6.00016H12.9163V3.71683C12.9163 3.66127 12.8941 3.61405 12.8497 3.57516C12.8052 3.53627 12.7552 3.51683 12.6997 3.51683H3.29967C3.24412 3.51683 3.19412 3.53627 3.14967 3.57516C3.10523 3.61405 3.08301 3.66127 3.08301 3.71683V6.00016ZM3.08301 6.00016V3.51683V6.00016ZM7.99967 9.3835C7.83301 9.3835 7.69412 9.32516 7.58301 9.2085C7.4719 9.09183 7.41634 8.95572 7.41634 8.80016C7.41634 8.6335 7.4719 8.49183 7.58301 8.37516C7.69412 8.2585 7.83301 8.20016 7.99967 8.20016C8.16634 8.20016 8.30523 8.2585 8.41634 8.37516C8.52745 8.49183 8.58301 8.6335 8.58301 8.80016C8.58301 8.95572 8.52745 9.09183 8.41634 9.2085C8.30523 9.32516 8.16634 9.3835 7.99967 9.3835ZM5.33301 9.3835C5.16634 9.3835 5.02745 9.32516 4.91634 9.2085C4.80523 9.09183 4.74967 8.95572 4.74967 8.80016C4.74967 8.6335 4.80523 8.49183 4.91634 8.37516C5.02745 8.2585 5.16634 8.20016 5.33301 8.20016C5.49967 8.20016 5.63856 8.2585 5.74967 8.37516C5.86079 8.49183 5.91634 8.6335 5.91634 8.80016C5.91634 8.95572 5.86079 9.09183 5.74967 9.2085C5.63856 9.32516 5.49967 9.3835 5.33301 9.3835ZM10.6663 9.3835C10.4997 9.3835 10.3608 9.32516 10.2497 9.2085C10.1386 9.09183 10.083 8.95572 10.083 8.80016C10.083 8.6335 10.1386 8.49183 10.2497 8.37516C10.3608 8.2585 10.4997 8.20016 10.6663 8.20016C10.833 8.20016 10.9719 8.2585 11.083 8.37516C11.1941 8.49183 11.2497 8.6335 11.2497 8.80016C11.2497 8.95572 11.1941 9.09183 11.083 9.2085C10.9719 9.32516 10.833 9.3835 10.6663 9.3835ZM7.99967 12.0002C7.83301 12.0002 7.69412 11.9418 7.58301 11.8252C7.4719 11.7085 7.41634 11.5724 7.41634 11.4168C7.41634 11.2502 7.4719 11.1085 7.58301 10.9918C7.69412 10.8752 7.83301 10.8168 7.99967 10.8168C8.16634 10.8168 8.30523 10.8752 8.41634 10.9918C8.52745 11.1085 8.58301 11.2502 8.58301 11.4168C8.58301 11.5724 8.52745 11.7085 8.41634 11.8252C8.30523 11.9418 8.16634 12.0002 7.99967 12.0002ZM5.33301 12.0002C5.16634 12.0002 5.02745 11.9418 4.91634 11.8252C4.80523 11.7085 4.74967 11.5724 4.74967 11.4168C4.74967 11.2502 4.80523 11.1085 4.91634 10.9918C5.02745 10.8752 5.16634 10.8168 5.33301 10.8168C5.49967 10.8168 5.63856 10.8752 5.74967 10.9918C5.86079 11.1085 5.91634 11.2502 5.91634 11.4168C5.91634 11.5724 5.86079 11.7085 5.74967 11.8252C5.63856 11.9418 5.49967 12.0002 5.33301 12.0002ZM10.6663 12.0002C10.4997 12.0002 10.3608 11.9418 10.2497 11.8252C10.1386 11.7085 10.083 11.5724 10.083 11.4168C10.083 11.2502 10.1386 11.1085 10.2497 10.9918C10.3608 10.8752 10.4997 10.8168 10.6663 10.8168C10.833 10.8168 10.9719 10.8752 11.083 10.9918C11.1941 11.1085 11.2497 11.2502 11.2497 11.4168C11.2497 11.5724 11.1941 11.7085 11.083 11.8252C10.9719 11.9418 10.833 12.0002 10.6663 12.0002Z" fill="#282C39"/>
</svg>
