<svg width="32" height="32" viewBox="0 0 32 32" fill="none" xmlns="http://www.w3.org/2000/svg">
<path d="M14.9689 16C14.9689 16.2735 15.0775 16.5358 15.2709 16.7292C15.4643 16.9226 15.7266 17.0312 16.0001 17.0312C16.2736 17.0312 16.5359 16.9226 16.7293 16.7292C16.9227 16.5358 17.0314 16.2735 17.0314 16C17.0314 15.7265 16.9227 15.4642 16.7293 15.2708C16.5359 15.0774 16.2736 14.9688 16.0001 14.9688C15.7266 14.9688 15.4643 15.0774 15.2709 15.2708C15.0775 15.4642 14.9689 15.7265 14.9689 16ZM19.2657 16C19.2657 16.2735 19.3744 16.5358 19.5678 16.7292C19.7612 16.9226 20.0235 17.0312 20.297 17.0312C20.5705 17.0312 20.8328 16.9226 21.0262 16.7292C21.2196 16.5358 21.3282 16.2735 21.3282 16C21.3282 15.7265 21.2196 15.4642 21.0262 15.2708C20.8328 15.0774 20.5705 14.9688 20.297 14.9688C20.0235 14.9688 19.7612 15.0774 19.5678 15.2708C19.3744 15.4642 19.2657 15.7265 19.2657 16ZM10.672 16C10.672 16.2735 10.7806 16.5358 10.974 16.7292C11.1674 16.9226 11.4297 17.0312 11.7032 17.0312C11.9768 17.0312 12.2391 16.9226 12.4324 16.7292C12.6258 16.5358 12.7345 16.2735 12.7345 16C12.7345 15.7265 12.6258 15.4642 12.4324 15.2708C12.2391 15.0774 11.9768 14.9688 11.7032 14.9688C11.4297 14.9688 11.1674 15.0774 10.974 15.2708C10.7806 15.4642 10.672 15.7265 10.672 16ZM24.8775 12.2703C24.3919 11.1166 23.6958 10.0811 22.8085 9.1916C21.9274 8.3073 20.8814 7.60438 19.7298 7.12266C18.5482 6.62637 17.2935 6.375 16.0001 6.375H15.9572C14.6552 6.38145 13.3941 6.63926 12.2081 7.14629C11.0664 7.63296 10.0302 8.33712 9.15735 9.21953C8.27864 10.1068 7.58899 11.1381 7.11204 12.2875C6.6179 13.4777 6.36868 14.7432 6.37512 16.0451C6.38241 17.5371 6.7354 19.0072 7.40637 20.3398V23.6055C7.40637 23.8676 7.51049 24.1189 7.69583 24.3043C7.88117 24.4896 8.13254 24.5938 8.39465 24.5938H11.6624C12.9951 25.2647 14.4651 25.6177 15.9572 25.625H16.0023C17.2892 25.625 18.5374 25.3758 19.7126 24.8881C20.8584 24.4121 21.9005 23.7174 22.7806 22.8428C23.6679 21.9641 24.3661 20.9371 24.8538 19.792C25.3609 18.6061 25.6187 17.3449 25.6251 16.043C25.6316 14.7346 25.378 13.4648 24.8775 12.2703ZM21.6312 21.6805C20.1251 23.1715 18.1271 23.9922 16.0001 23.9922H15.9636C14.6681 23.9857 13.3812 23.6635 12.2447 23.0576L12.0642 22.9609H9.03918V19.9359L8.9425 19.7555C8.33665 18.6189 8.01438 17.332 8.00793 16.0365C7.99934 13.8945 8.81789 11.8836 10.3197 10.3689C11.8193 8.8543 13.8238 8.01641 15.9657 8.00781H16.0023C17.0765 8.00781 18.1185 8.21621 19.1003 8.62871C20.0585 9.03047 20.9179 9.6084 21.657 10.3475C22.3939 11.0844 22.9739 11.9459 23.3757 12.9041C23.7925 13.8967 24.0009 14.9494 23.9966 16.0365C23.9837 18.1764 23.1437 20.1809 21.6312 21.6805Z" fill="#282C39"/>
</svg>
