<svg width="16" height="16" viewBox="0 0 16 16" fill="none" xmlns="http://www.w3.org/2000/svg">
<path d="M3.5 11.25C3.35166 11.25 3.20666 11.206 3.08332 11.1236C2.95999 11.0412 2.86386 10.9241 2.80709 10.787C2.75032 10.65 2.73547 10.4992 2.76441 10.3537C2.79335 10.2082 2.86478 10.0746 2.96967 9.96967C3.07456 9.86478 3.2082 9.79335 3.35368 9.76441C3.49917 9.73547 3.64997 9.75033 3.78701 9.80709C3.92406 9.86386 4.04119 9.95999 4.1236 10.0833C4.20601 10.2067 4.25 10.3517 4.25 10.5C4.25 10.6989 4.17098 10.8897 4.03033 11.0303C3.88968 11.171 3.69891 11.25 3.5 11.25ZM3.75 13.5C3.60166 13.5 3.45666 13.544 3.33332 13.6264C3.20999 13.7088 3.11386 13.8259 3.05709 13.963C3.00032 14.1 2.98547 14.2508 3.01441 14.3963C3.04335 14.5418 3.11478 14.6754 3.21967 14.7803C3.32456 14.8852 3.4582 14.9566 3.60368 14.9856C3.74917 15.0145 3.89997 14.9997 4.03701 14.9429C4.17406 14.8861 4.29119 14.79 4.3736 14.6667C4.45601 14.5433 4.5 14.3983 4.5 14.25C4.5 14.0511 4.42098 13.8603 4.28033 13.7197C4.13968 13.579 3.94891 13.5 3.75 13.5ZM1.75 11.5C1.60166 11.5 1.45666 11.544 1.33332 11.6264C1.20999 11.7088 1.11386 11.8259 1.05709 11.963C1.00032 12.1 0.985472 12.2508 1.01441 12.3963C1.04335 12.5418 1.11478 12.6754 1.21967 12.7803C1.32456 12.8852 1.4582 12.9566 1.60368 12.9856C1.74917 13.0145 1.89997 12.9997 2.03701 12.9429C2.17406 12.8861 2.29119 12.79 2.3736 12.6667C2.45601 12.5433 2.5 12.3983 2.5 12.25C2.5 12.0511 2.42098 11.8603 2.28033 11.7197C2.13968 11.579 1.94891 11.5 1.75 11.5ZM5.5 11.75C5.35166 11.75 5.20666 11.794 5.08332 11.8764C4.95999 11.9588 4.86386 12.0759 4.80709 12.213C4.75032 12.35 4.73547 12.5008 4.76441 12.6463C4.79335 12.7918 4.86478 12.9254 4.96967 13.0303C5.07456 13.1352 5.2082 13.2066 5.35368 13.2356C5.49917 13.2645 5.64997 13.2497 5.78701 13.1929C5.92406 13.1361 6.04119 13.04 6.1236 12.9167C6.20601 12.7933 6.25 12.6483 6.25 12.5C6.25 12.3011 6.17098 12.1103 6.03033 11.9697C5.88968 11.829 5.69891 11.75 5.5 11.75ZM15.5 2H13.7063C13.575 1.99988 13.445 2.02578 13.3237 2.0762C13.2025 2.12662 13.0925 2.20056 13 2.29375L11.2625 4.03125L3.375 5.35C3.19304 5.37823 3.02269 5.45708 2.88343 5.57755C2.74417 5.69802 2.64162 5.85525 2.5875 6.03125C2.53244 6.20525 2.52604 6.391 2.56901 6.56838C2.61198 6.74575 2.70267 6.90799 2.83125 7.0375L8.9625 13.1687C9.14815 13.3549 9.39963 13.4604 9.6625 13.4625C9.76655 13.4617 9.86984 13.4448 9.96875 13.4125C10.1448 13.3584 10.302 13.2558 10.4224 13.1166C10.5429 12.9773 10.6218 12.807 10.65 12.625L11.9688 4.7375L13.7063 3H15.5C15.6326 3 15.7598 2.94732 15.8536 2.85355C15.9473 2.75979 16 2.63261 16 2.5C16 2.36739 15.9473 2.24022 15.8536 2.14645C15.7598 2.05268 15.6326 2 15.5 2Z" fill="#F98418"/>
</svg>
