<svg width="11" height="11" viewBox="0 0 11 11" fill="none" xmlns="http://www.w3.org/2000/svg">
<g clip-path="url(#clip0_568_50824)">
<path d="M5.49967 3.66536C4.48676 3.66536 3.66634 4.48578 3.66634 5.4987C3.66634 6.51161 4.48676 7.33203 5.49967 7.33203C6.51259 7.33203 7.33301 6.51161 7.33301 5.4987C7.33301 4.48578 6.51259 3.66536 5.49967 3.66536ZM9.59717 5.04036C9.49336 4.11092 9.07658 3.2444 8.41527 2.5831C7.75397 1.9218 6.88745 1.50502 5.95801 1.4012V0.457031H5.04134V1.4012C4.1119 1.50502 3.24538 1.9218 2.58408 2.5831C1.92277 3.2444 1.50599 4.11092 1.40217 5.04036H0.458008V5.95703H1.40217C1.50599 6.88648 1.92277 7.75299 2.58408 8.4143C3.24538 9.0756 4.1119 9.49238 5.04134 9.5962V10.5404H5.95801V9.5962C6.88745 9.49238 7.75397 9.0756 8.41527 8.4143C9.07658 7.75299 9.49336 6.88648 9.59717 5.95703H10.5413V5.04036H9.59717ZM5.49967 8.70703C3.72592 8.70703 2.29134 7.27245 2.29134 5.4987C2.29134 3.72495 3.72592 2.29036 5.49967 2.29036C7.27342 2.29036 8.70801 3.72495 8.70801 5.4987C8.70801 7.27245 7.27342 8.70703 5.49967 8.70703Z" fill="#0F96E3"/>
</g>
<defs>
<clipPath id="clip0_568_50824">
<rect width="11" height="11" fill="white"/>
</clipPath>
</defs>
</svg>
