<svg width="32" height="188" viewBox="0 0 32 188" fill="none" xmlns="http://www.w3.org/2000/svg">
<rect x="0.5" y="0.5" width="31" height="31" rx="15.5" fill="white"/>
<path d="M15.0516 16.1215L19.1161 11.9783L18.371 11.2417L15.0516 14.6253L13.629 13.1752L12.9065 13.9348L15.0516 16.1215ZM16 23.1189C17.972 21.3235 19.4624 19.6164 20.471 17.9974C21.4796 16.3785 21.9839 14.9859 21.9839 13.8197C21.9839 11.9783 21.4043 10.4706 20.2452 9.29668C19.086 8.12276 17.671 7.53581 16 7.53581C14.329 7.53581 12.914 8.12276 11.7548 9.29668C10.5957 10.4706 10.0161 11.9783 10.0161 13.8197C10.0161 14.9859 10.528 16.3785 11.5516 17.9974C12.5753 19.6164 14.0581 21.3235 16 23.1189ZM16 24.5C13.6516 22.413 11.8978 20.4795 10.7387 18.6995C9.57957 16.9194 9 15.2928 9 13.8197C9 11.5946 9.70376 9.81841 11.1113 8.49105C12.5188 7.16368 14.1484 6.5 16 6.5C17.8516 6.5 19.4812 7.16368 20.8887 8.49105C22.2962 9.81841 23 11.5946 23 13.8197C23 15.2928 22.4204 16.9194 21.2613 18.6995C20.1022 20.4795 18.3484 22.413 16 24.5Z" fill="#198460"/>
<rect x="0.5" y="0.5" width="31" height="31" rx="15.5" stroke="#E8EBF3"/>
<path d="M16 39L16 71" stroke="#198460" stroke-linecap="round" stroke-dasharray="4 4"/>
<rect x="0.5" y="78.5" width="31" height="31" rx="15.5" fill="white"/>
<path d="M16.5 91.2727C14.9932 91.2727 13.7727 92.4932 13.7727 94C13.7727 95.5068 14.9932 96.7273 16.5 96.7273C18.0068 96.7273 19.2273 95.5068 19.2273 94C19.2273 92.4932 18.0068 91.2727 16.5 91.2727ZM22.5955 93.3182C22.441 91.9355 21.821 90.6465 20.8373 89.6627C19.8535 88.679 18.5645 88.059 17.1818 87.9045V86.5H15.8182V87.9045C14.4355 88.059 13.1465 88.679 12.1627 89.6627C11.179 90.6465 10.559 91.9355 10.4045 93.3182H9V94.6818H10.4045C10.559 96.0645 11.179 97.3535 12.1627 98.3373C13.1465 99.321 14.4355 99.941 15.8182 100.095V101.5H17.1818V100.095C18.5645 99.941 19.8535 99.321 20.8373 98.3373C21.821 97.3535 22.441 96.0645 22.5955 94.6818H24V93.3182H22.5955ZM16.5 98.7727C13.8614 98.7727 11.7273 96.6386 11.7273 94C11.7273 91.3614 13.8614 89.2273 16.5 89.2273C19.1386 89.2273 21.2727 91.3614 21.2727 94C21.2727 96.6386 19.1386 98.7727 16.5 98.7727Z" fill="#0F96E3"/>
<rect x="0.5" y="78.5" width="31" height="31" rx="15.5" stroke="#E8EBF3"/>
<path d="M16 117L16 149" stroke="#D7D8D8" stroke-linecap="round" stroke-dasharray="4 4"/>
<rect x="0.5" y="156.5" width="31" height="31" rx="15.5" fill="white"/>
<path d="M16.0002 171.621C16.3854 171.621 16.715 171.484 16.9891 171.21C17.2632 170.936 17.4002 170.606 17.4002 170.221C17.4002 169.836 17.2632 169.506 16.9891 169.232C16.715 168.958 16.3854 168.821 16.0002 168.821C15.615 168.821 15.2854 168.958 15.0113 169.232C14.7373 169.506 14.6002 169.836 14.6002 170.221C14.6002 170.606 14.7373 170.936 15.0113 171.21C15.2854 171.484 15.615 171.621 16.0002 171.621ZM16.0002 179.376C17.941 177.643 19.4076 175.995 20.4002 174.432C21.3928 172.869 21.8891 171.525 21.8891 170.399C21.8891 168.621 21.3224 167.165 20.1891 166.032C19.0558 164.899 17.6595 164.332 16.0002 164.332C14.341 164.332 12.9447 164.899 11.8113 166.032C10.678 167.165 10.1113 168.621 10.1113 170.399C10.1113 171.525 10.615 172.869 11.6224 174.432C12.6298 175.995 14.0891 177.643 16.0002 179.376ZM16.0002 180.71C13.6891 178.695 11.9632 176.828 10.8224 175.11C9.6817 173.391 9.11133 171.821 9.11133 170.399C9.11133 168.251 9.80392 166.536 11.1891 165.254C12.5743 163.973 14.178 163.332 16.0002 163.332C17.8224 163.332 19.4261 163.973 20.8113 165.254C22.1965 166.536 22.8891 168.251 22.8891 170.399C22.8891 171.821 22.3187 173.391 21.178 175.11C20.0373 176.828 18.3113 178.695 16.0002 180.71Z" fill="#6C738A"/>
<rect x="0.5" y="156.5" width="31" height="31" rx="15.5" stroke="#E8EBF3"/>
</svg>
