<svg width="32" height="32" viewBox="0 0 32 32" fill="none" xmlns="http://www.w3.org/2000/svg">
<path fill-rule="evenodd" clip-rule="evenodd" d="M22.1099 16.8517C22.2473 17.6758 22.3846 18.3626 22.6593 19.1868L23.4835 21.522L22.7967 22.4835H17.989C17.989 23.1703 17.7143 23.8571 17.1648 24.4066C16.6154 24.956 15.9286 25.2308 15.2418 25.2308C14.5549 25.2308 13.7308 24.956 13.3187 24.4066C12.7692 23.8571 12.4945 23.1703 12.4945 22.4835H7.68681L7 21.522L7.82418 19.1868C8.0989 18.0879 8.37363 16.989 8.37363 15.8901V12.8681C8.37363 11.9066 8.51099 10.9451 8.92308 10.1209C9.33517 9.15934 9.88462 8.47253 10.5714 7.78571C11.2582 7.0989 12.0824 6.68681 13.044 6.41209C13.7308 6.13736 14.5549 6 15.2418 6C14.967 6.41209 14.6923 6.96154 14.4176 7.51099C14.1429 7.51099 13.8681 7.51099 13.456 7.78571C12.7692 7.92308 12.0824 8.33517 11.533 8.88462C10.9835 9.2967 10.4341 9.98352 10.1593 10.6703C9.88462 11.3571 9.74725 12.044 9.74725 12.8681V15.8901C9.74725 17.1264 9.47253 18.3626 9.1978 19.5989L8.64835 21.1099H21.8352L21.2857 19.5989C21.0453 18.8764 20.9093 18.0467 20.7871 17.2995L20.7363 16.989C21.2857 16.989 21.6978 16.989 22.1099 16.8517ZM15.2418 23.8571C15.5165 23.8571 15.9286 23.7198 16.2033 23.4451C16.478 23.1703 16.6154 22.8956 16.6154 22.4835H13.8681C13.8681 22.8956 14.0055 23.1703 14.2802 23.4451C14.5549 23.7198 14.967 23.8571 15.2418 23.8571ZM24.8571 10.1209C24.8571 11.2138 24.423 12.262 23.6502 13.0348C22.8774 13.8076 21.8292 14.2418 20.7363 14.2418C19.6433 14.2418 18.5952 13.8076 17.8224 13.0348C17.0495 12.262 16.6154 11.2138 16.6154 10.1209C16.6154 9.02795 17.0495 7.97979 17.8224 7.20698C18.5952 6.43416 19.6433 6 20.7363 6C21.8292 6 22.8774 6.43416 23.6502 7.20698C24.423 7.97979 24.8571 9.02795 24.8571 10.1209Z" fill="#282C39"/>
</svg>
