<svg width="17" height="13" viewBox="0 0 17 13" fill="none" xmlns="http://www.w3.org/2000/svg">
<path d="M13.4454 12.3444C14.0765 12.3444 14.6142 12.1223 15.0585 11.6779C15.5028 11.2336 15.725 10.6959 15.725 10.0649H17V1.1591C17 0.850007 16.8841 0.57955 16.6523 0.34773C16.4204 0.11591 16.15 0 15.8409 0H4.65558V3.22616H2.62715L-0.000145176 6.72278V10.0649H1.37146C1.37146 10.6959 1.59362 11.2336 2.03794 11.6779C2.48226 12.1223 3.01996 12.3444 3.65102 12.3444C4.28209 12.3444 4.81978 12.1223 5.2641 11.6779C5.70843 11.2336 5.93059 10.6959 5.93059 10.0649H11.1659C11.1659 10.6959 11.388 11.2336 11.8323 11.6779C12.2767 12.1223 12.8144 12.3444 13.4454 12.3444ZM13.4454 11.1853C13.1363 11.1853 12.8723 11.0759 12.6534 10.8569C12.4344 10.638 12.325 10.374 12.325 10.0649C12.325 9.75576 12.4344 9.49175 12.6534 9.27281C12.8723 9.05387 13.1363 8.94439 13.4454 8.94439C13.7545 8.94439 14.0185 9.05387 14.2375 9.27281C14.4564 9.49175 14.5659 9.75576 14.5659 10.0649C14.5659 10.374 14.4564 10.638 14.2375 10.8569C14.0185 11.0759 13.7545 11.1853 13.4454 11.1853ZM15.8409 8.90576H15.4159C15.197 8.55803 14.9201 8.28113 14.5852 8.07507C14.2504 7.86901 13.8769 7.76598 13.4647 7.76598C13.0526 7.76598 12.6759 7.87223 12.3346 8.08473C11.9933 8.29723 11.7132 8.57091 11.4943 8.90576H5.81468V1.1591H15.8409V8.90576ZM3.65102 11.1853C3.34193 11.1853 3.07791 11.0759 2.85897 10.8569C2.64003 10.638 2.53056 10.374 2.53056 10.0649C2.53056 9.75576 2.64003 9.49175 2.85897 9.27281C3.07791 9.05387 3.34193 8.94439 3.65102 8.94439C3.96012 8.94439 4.22413 9.05387 4.44308 9.27281C4.66202 9.49175 4.77149 9.75576 4.77149 10.0649C4.77149 10.374 4.66202 10.638 4.44308 10.8569C4.22413 11.0759 3.96012 11.1853 3.65102 11.1853ZM4.65558 7.24438H1.06236L3.2067 4.38526H4.65558V7.24438Z" fill="#4247C7"/>
</svg>
