<svg width="8" height="7" viewBox="0 0 8 7" fill="none" xmlns="http://www.w3.org/2000/svg">
<path d="M0.68921 6.88846C0.531726 7.03719 0.285541 7.03719 0.128057 6.88846C-0.0426832 6.7272 -0.0426833 6.45555 0.128057 6.2943L3.08673 3.5L0.128058 0.705701C-0.042683 0.544446 -0.0426831 0.272795 0.128057 0.11154C0.285541 -0.0371944 0.531726 -0.0371945 0.689209 0.11154L3.68186 2.93793L6.67451 0.111541C6.83199 -0.0371941 7.07818 -0.0371946 7.23566 0.11154C7.4064 0.272795 7.4064 0.544446 7.23566 0.705702L4.27699 3.5L7.23566 6.2943C7.4064 6.45555 7.4064 6.7272 7.23566 6.88846C7.07818 7.03719 6.83199 7.03719 6.67451 6.88846L3.68186 4.06207L0.68921 6.88846Z" fill="#282C39"/>
</svg>
