<svg width="17" height="17" viewBox="0 0 17 17" fill="none" xmlns="http://www.w3.org/2000/svg">
<g clip-path="url(#clip0_598_52675)">
<path d="M15.9805 10.8281H-0.0195312V11.6344H15.9805V10.8281Z" fill="#B22234"/>
<path d="M7.42773 2.75V3.15313V3.55625H15.9809V2.75H7.42773Z" fill="#B22234"/>
<path d="M15.9809 3.55469H7.42773V4.36094H15.9809V3.55469Z" fill="white"/>
<path d="M15.9809 4.36719H7.42773V5.17344H15.9809V4.36719Z" fill="#B22234"/>
<path d="M15.9809 5.17188H7.42773V5.97813H15.9809V5.17188Z" fill="white"/>
<path d="M15.9809 5.98047H7.42773V6.78672H15.9809V5.98047Z" fill="#B22234"/>
<path d="M15.9809 6.78906H7.42773V7.59531H15.9809V6.78906Z" fill="white"/>
<path d="M15.9809 7.59766H7.42773V8.40391H15.9809V7.59766Z" fill="#B22234"/>
<path d="M15.9805 8.40234H-0.0195312V9.20859H15.9805V8.40234Z" fill="white"/>
<path d="M15.9805 9.21094H-0.0195312V10.0172H15.9805V9.21094Z" fill="#B22234"/>
<path d="M15.9805 11.6328H-0.0195312V12.4391H15.9805V11.6328Z" fill="white"/>
<path d="M15.9805 12.4453H-0.0195312V13.2516H15.9805V12.4453Z" fill="#B22234"/>
<path d="M-0.0195312 2.75V3.15313V3.55625V8.40312H7.42734V3.55625V3.15313V2.75H-0.0195312Z" fill="#3C3B6E"/>
<path d="M0.755211 3.39141L0.817711 3.57578H1.01146C1.03646 3.57578 1.04584 3.60703 1.02709 3.62266L0.870836 3.73828L0.930211 3.92266C0.936461 3.94766 0.911461 3.96641 0.889586 3.95078L0.733336 3.83828L0.577086 3.95078C0.555211 3.96641 0.530211 3.94453 0.536461 3.92266L0.595836 3.73828L0.439586 3.62266C0.420836 3.60703 0.430211 3.57578 0.455211 3.57578H0.648961L0.711461 3.39141C0.714586 3.36953 0.745836 3.36953 0.755211 3.39141Z" fill="white"/>
<path d="M0.755211 4.35078L0.817711 4.53516H1.01146C1.03646 4.53516 1.04584 4.56641 1.02709 4.58203L0.870836 4.69766L0.930211 4.88203C0.936461 4.90703 0.911461 4.92578 0.889586 4.91016L0.733336 4.79766L0.577086 4.91016C0.555211 4.92578 0.530211 4.90391 0.536461 4.88203L0.595836 4.69766L0.439586 4.58203C0.420836 4.56641 0.430211 4.53516 0.455211 4.53516H0.648961L0.711461 4.35078C0.714586 4.32578 0.745836 4.32578 0.755211 4.35078Z" fill="white"/>
<path d="M0.755211 5.30547L0.817711 5.48984H1.01146C1.03646 5.48984 1.04584 5.52109 1.02709 5.53672L0.870836 5.65234L0.930211 5.83672C0.936461 5.86172 0.911461 5.88047 0.889586 5.86484L0.733336 5.75234L0.577086 5.86484C0.555211 5.88047 0.530211 5.85859 0.536461 5.83672L0.595836 5.65234L0.439586 5.53672C0.420836 5.52109 0.430211 5.48984 0.455211 5.48984H0.648961L0.711461 5.30547C0.714586 5.28359 0.745836 5.28359 0.755211 5.30547Z" fill="white"/>
<path d="M0.755211 6.26484L0.817711 6.44922H1.01146C1.03646 6.44922 1.04584 6.48047 1.02709 6.49609L0.870836 6.61172L0.930211 6.79609C0.936461 6.82109 0.911461 6.83984 0.889586 6.82422L0.733336 6.71172L0.577086 6.82422C0.555211 6.83984 0.530211 6.81797 0.536461 6.79609L0.595836 6.61172L0.439586 6.49609C0.420836 6.48047 0.430211 6.44922 0.455211 6.44922H0.648961L0.711461 6.26484C0.714586 6.23984 0.745836 6.23984 0.755211 6.26484Z" fill="white"/>
<path d="M0.755211 7.22578L0.817711 7.41016H1.01146C1.03646 7.41016 1.04584 7.44141 1.02709 7.45703L0.870836 7.57266L0.930211 7.75703C0.936461 7.78203 0.911461 7.80078 0.889586 7.78516L0.733336 7.67266L0.577086 7.78516C0.555211 7.80078 0.530211 7.77891 0.536461 7.75703L0.595836 7.57266L0.439586 7.45703C0.420836 7.44141 0.430211 7.41016 0.455211 7.41016H0.648961L0.711461 7.22578C0.714586 7.20078 0.745836 7.20078 0.755211 7.22578Z" fill="white"/>
<path d="M1.49935 3.8625L1.56185 4.04688H1.7556C1.7806 4.04688 1.78998 4.07813 1.77123 4.09375L1.61498 4.20937L1.67435 4.39375C1.6806 4.41875 1.6556 4.4375 1.63373 4.42188L1.47748 4.30937L1.32123 4.42188C1.29935 4.4375 1.27435 4.41563 1.2806 4.39375L1.33998 4.20937L1.18373 4.09375C1.16498 4.07813 1.17435 4.04688 1.19935 4.04688H1.3931L1.4556 3.8625C1.45873 3.8375 1.48998 3.8375 1.49935 3.8625Z" fill="white"/>
<path d="M1.49935 4.82109L1.56185 5.00547H1.7556C1.7806 5.00547 1.78998 5.03672 1.77123 5.05234L1.61498 5.16797L1.67435 5.35234C1.6806 5.37734 1.6556 5.39609 1.63373 5.38047L1.47748 5.26797L1.32123 5.38047C1.29935 5.39609 1.27435 5.37422 1.2806 5.35234L1.33998 5.16797L1.18373 5.05234C1.16498 5.03672 1.17435 5.00547 1.19935 5.00547H1.3931L1.4556 4.82109C1.45873 4.79922 1.48998 4.79922 1.49935 4.82109Z" fill="white"/>
<path d="M1.49935 5.78047L1.56185 5.96484H1.7556C1.7806 5.96484 1.78998 5.99609 1.77123 6.01172L1.61498 6.12734L1.67435 6.31172C1.6806 6.33672 1.6556 6.35547 1.63373 6.33984L1.47748 6.22734L1.32123 6.33984C1.29935 6.35547 1.27435 6.33359 1.2806 6.31172L1.33998 6.12734L1.18373 6.01172C1.16498 5.99609 1.17435 5.96484 1.19935 5.96484H1.3931L1.4556 5.78047C1.45873 5.75547 1.48998 5.75547 1.49935 5.78047Z" fill="white"/>
<path d="M1.49935 6.73516L1.56185 6.91953H1.7556C1.7806 6.91953 1.78998 6.95078 1.77123 6.96641L1.61498 7.08203L1.67435 7.26641C1.6806 7.29141 1.6556 7.31016 1.63373 7.29453L1.47748 7.18203L1.32123 7.29453C1.29935 7.31016 1.27435 7.28828 1.2806 7.26641L1.33998 7.08203L1.18373 6.96641C1.16498 6.95078 1.17435 6.91953 1.19935 6.91953H1.3931L1.4556 6.73516C1.45873 6.71328 1.48998 6.71328 1.49935 6.73516Z" fill="white"/>
<path d="M2.24349 3.39141L2.30599 3.57578H2.49974C2.52474 3.57578 2.53412 3.60703 2.51537 3.62266L2.35912 3.73828L2.41849 3.92266C2.42474 3.94766 2.39974 3.96641 2.37787 3.95078L2.22162 3.83828L2.06537 3.95078C2.04349 3.96641 2.01849 3.94453 2.02474 3.92266L2.08412 3.73828L1.92787 3.62266C1.90912 3.60703 1.91849 3.57578 1.94349 3.57578H2.13724L2.19974 3.39141C2.19974 3.36953 2.23412 3.36953 2.24349 3.39141Z" fill="white"/>
<path d="M2.24349 4.35078L2.30599 4.53516H2.49974C2.52474 4.53516 2.53412 4.56641 2.51537 4.58203L2.35912 4.69766L2.41849 4.88203C2.42474 4.90703 2.39974 4.92578 2.37787 4.91016L2.22162 4.79766L2.06537 4.91016C2.04349 4.92578 2.01849 4.90391 2.02474 4.88203L2.08412 4.69766L1.92787 4.58203C1.90912 4.56641 1.91849 4.53516 1.94349 4.53516H2.13724L2.19974 4.35078C2.19974 4.32578 2.23412 4.32578 2.24349 4.35078Z" fill="white"/>
<path d="M2.24349 5.30547L2.30599 5.48984H2.49974C2.52474 5.48984 2.53412 5.52109 2.51537 5.53672L2.35912 5.65234L2.41849 5.83672C2.42474 5.86172 2.39974 5.88047 2.37787 5.86484L2.22162 5.75234L2.06537 5.86484C2.04349 5.88047 2.01849 5.85859 2.02474 5.83672L2.08412 5.65234L1.92787 5.53672C1.90912 5.52109 1.91849 5.48984 1.94349 5.48984H2.13724L2.19974 5.30547C2.19974 5.28359 2.23412 5.28359 2.24349 5.30547Z" fill="white"/>
<path d="M2.24349 6.26484L2.30599 6.44922H2.49974C2.52474 6.44922 2.53412 6.48047 2.51537 6.49609L2.35912 6.61172L2.41849 6.79609C2.42474 6.82109 2.39974 6.83984 2.37787 6.82422L2.22162 6.71172L2.06537 6.82422C2.04349 6.83984 2.01849 6.81797 2.02474 6.79609L2.08412 6.61172L1.92787 6.49609C1.90912 6.48047 1.91849 6.44922 1.94349 6.44922H2.13724L2.19974 6.26484C2.19974 6.23984 2.23412 6.23984 2.24349 6.26484Z" fill="white"/>
<path d="M2.24349 7.22578L2.30599 7.41016H2.49974C2.52474 7.41016 2.53412 7.44141 2.51537 7.45703L2.35912 7.57266L2.41849 7.75703C2.42474 7.78203 2.39974 7.80078 2.37787 7.78516L2.22162 7.67266L2.06537 7.78516C2.04349 7.80078 2.01849 7.77891 2.02474 7.75703L2.08412 7.57266L1.92787 7.45703C1.90912 7.44141 1.91849 7.41016 1.94349 7.41016H2.13724L2.19974 7.22578C2.19974 7.20078 2.23412 7.20078 2.24349 7.22578Z" fill="white"/>
<path d="M2.98568 3.8625L3.04818 4.04688H3.24193C3.26693 4.04688 3.27631 4.07813 3.25756 4.09375L3.10131 4.20937L3.16068 4.39375C3.16693 4.41875 3.14193 4.4375 3.12005 4.42188L2.9638 4.30937L2.80755 4.42188C2.78568 4.4375 2.76068 4.41563 2.76693 4.39375L2.8263 4.20937L2.67005 4.09375C2.6513 4.07813 2.66068 4.04688 2.68568 4.04688H2.87943L2.94193 3.8625C2.94193 3.8375 2.9763 3.8375 2.98568 3.8625Z" fill="white"/>
<path d="M2.98568 4.82109L3.04818 5.00547H3.24193C3.26693 5.00547 3.27631 5.03672 3.25756 5.05234L3.10131 5.16797L3.16068 5.35234C3.16693 5.37734 3.14193 5.39609 3.12005 5.38047L2.9638 5.26797L2.80755 5.38047C2.78568 5.39609 2.76068 5.37422 2.76693 5.35234L2.8263 5.16797L2.67005 5.05234C2.6513 5.03672 2.66068 5.00547 2.68568 5.00547H2.87943L2.94193 4.82109C2.94193 4.79922 2.9763 4.79922 2.98568 4.82109Z" fill="white"/>
<path d="M2.98568 5.78047L3.04818 5.96484H3.24193C3.26693 5.96484 3.27631 5.99609 3.25756 6.01172L3.10131 6.12734L3.16068 6.31172C3.16693 6.33672 3.14193 6.35547 3.12005 6.33984L2.9638 6.22734L2.80755 6.33984C2.78568 6.35547 2.76068 6.33359 2.76693 6.31172L2.8263 6.12734L2.67005 6.01172C2.6513 5.99609 2.66068 5.96484 2.68568 5.96484H2.87943L2.94193 5.78047C2.94193 5.75547 2.9763 5.75547 2.98568 5.78047Z" fill="white"/>
<path d="M2.98568 6.73516L3.04818 6.91953H3.24193C3.26693 6.91953 3.27631 6.95078 3.25756 6.96641L3.10131 7.08203L3.16068 7.26641C3.16693 7.29141 3.14193 7.31016 3.12005 7.29453L2.9638 7.18203L2.80755 7.29453C2.78568 7.31016 2.76068 7.28828 2.76693 7.26641L2.8263 7.08203L2.67005 6.96641C2.6513 6.95078 2.66068 6.91953 2.68568 6.91953H2.87943L2.94193 6.73516C2.94193 6.71328 2.9763 6.71328 2.98568 6.73516Z" fill="white"/>
<path d="M3.72982 3.39141L3.79232 3.57578H3.98607C4.01107 3.57578 4.02045 3.60703 4.0017 3.62266L3.84545 3.73828L3.90482 3.92266C3.91107 3.94766 3.88607 3.96641 3.8642 3.95078L3.70795 3.83828L3.5517 3.95078C3.52982 3.96641 3.50482 3.94453 3.51107 3.92266L3.57045 3.73828L3.4142 3.62266C3.39545 3.60703 3.40482 3.57578 3.42982 3.57578H3.62357L3.68607 3.39141C3.68607 3.36953 3.72045 3.36953 3.72982 3.39141Z" fill="white"/>
<path d="M3.72982 4.35078L3.79232 4.53516H3.98607C4.01107 4.53516 4.02045 4.56641 4.0017 4.58203L3.84545 4.69766L3.90482 4.88203C3.91107 4.90703 3.88607 4.92578 3.8642 4.91016L3.70795 4.79766L3.5517 4.91016C3.52982 4.92578 3.50482 4.90391 3.51107 4.88203L3.57045 4.69766L3.4142 4.58203C3.39545 4.56641 3.40482 4.53516 3.42982 4.53516H3.62357L3.68607 4.35078C3.68607 4.32578 3.72045 4.32578 3.72982 4.35078Z" fill="white"/>
<path d="M3.72982 5.30547L3.79232 5.48984H3.98607C4.01107 5.48984 4.02045 5.52109 4.0017 5.53672L3.84545 5.65234L3.90482 5.83672C3.91107 5.86172 3.88607 5.88047 3.8642 5.86484L3.70795 5.75234L3.5517 5.86484C3.52982 5.88047 3.50482 5.85859 3.51107 5.83672L3.57045 5.65234L3.4142 5.53672C3.39545 5.52109 3.40482 5.48984 3.42982 5.48984H3.62357L3.68607 5.30547C3.68607 5.28359 3.72045 5.28359 3.72982 5.30547Z" fill="white"/>
<path d="M3.72982 6.26484L3.79232 6.44922H3.98607C4.01107 6.44922 4.02045 6.48047 4.0017 6.49609L3.84545 6.61172L3.90482 6.79609C3.91107 6.82109 3.88607 6.83984 3.8642 6.82422L3.70795 6.71172L3.5517 6.82422C3.52982 6.83984 3.50482 6.81797 3.51107 6.79609L3.57045 6.61172L3.4142 6.49609C3.39545 6.48047 3.40482 6.44922 3.42982 6.44922H3.62357L3.68607 6.26484C3.68607 6.23984 3.72045 6.23984 3.72982 6.26484Z" fill="white"/>
<path d="M3.72982 7.22578L3.79232 7.41016H3.98607C4.01107 7.41016 4.02045 7.44141 4.0017 7.45703L3.84545 7.57266L3.90482 7.75703C3.91107 7.78203 3.88607 7.80078 3.8642 7.78516L3.70795 7.67266L3.5517 7.78516C3.52982 7.80078 3.50482 7.77891 3.51107 7.75703L3.57045 7.57266L3.4142 7.45703C3.39545 7.44141 3.40482 7.41016 3.42982 7.41016H3.62357L3.68607 7.22578C3.68607 7.20078 3.72045 7.20078 3.72982 7.22578Z" fill="white"/>
<path d="M4.47396 3.8625L4.53646 4.04688H4.73021C4.75521 4.04688 4.76459 4.07813 4.74584 4.09375L4.58959 4.20937L4.64896 4.39375C4.65521 4.41875 4.63021 4.4375 4.60834 4.42188L4.45209 4.30937L4.29584 4.42188C4.27396 4.4375 4.24896 4.41563 4.25521 4.39375L4.31459 4.20937L4.15834 4.09375C4.13959 4.07813 4.14896 4.04688 4.17396 4.04688H4.36771L4.43021 3.8625C4.43021 3.8375 4.46459 3.8375 4.47396 3.8625Z" fill="white"/>
<path d="M4.47396 4.82109L4.53646 5.00547H4.73021C4.75521 5.00547 4.76459 5.03672 4.74584 5.05234L4.58959 5.16797L4.64896 5.35234C4.65521 5.37734 4.63021 5.39609 4.60834 5.38047L4.45209 5.26797L4.29584 5.38047C4.27396 5.39609 4.24896 5.37422 4.25521 5.35234L4.31459 5.16797L4.15834 5.05234C4.13959 5.03672 4.14896 5.00547 4.17396 5.00547H4.36771L4.43021 4.82109C4.43021 4.79922 4.46459 4.79922 4.47396 4.82109Z" fill="white"/>
<path d="M4.47396 5.78047L4.53646 5.96484H4.73021C4.75521 5.96484 4.76459 5.99609 4.74584 6.01172L4.58959 6.12734L4.64896 6.31172C4.65521 6.33672 4.63021 6.35547 4.60834 6.33984L4.45209 6.22734L4.29584 6.33984C4.27396 6.35547 4.24896 6.33359 4.25521 6.31172L4.31459 6.12734L4.15834 6.01172C4.13959 5.99609 4.14896 5.96484 4.17396 5.96484H4.36771L4.43021 5.78047C4.43021 5.75547 4.46459 5.75547 4.47396 5.78047Z" fill="white"/>
<path d="M4.47396 6.73516L4.53646 6.91953H4.73021C4.75521 6.91953 4.76459 6.95078 4.74584 6.96641L4.58959 7.08203L4.64896 7.26641C4.65521 7.29141 4.63021 7.31016 4.60834 7.29453L4.45209 7.18203L4.29584 7.29453C4.27396 7.31016 4.24896 7.28828 4.25521 7.26641L4.31459 7.08203L4.15834 6.96641C4.13959 6.95078 4.14896 6.91953 4.17396 6.91953H4.36771L4.43021 6.73516C4.43021 6.71328 4.46459 6.71328 4.47396 6.73516Z" fill="white"/>
<path d="M5.2142 3.39141L5.2767 3.57578H5.47045C5.49545 3.57578 5.50482 3.60703 5.48607 3.62266L5.32982 3.73828L5.3892 3.92266C5.39545 3.94766 5.37045 3.96641 5.34857 3.95078L5.19232 3.83828L5.03607 3.95078C5.0142 3.96641 4.9892 3.94453 4.99545 3.92266L5.05482 3.73828L4.89857 3.62266C4.87982 3.60703 4.8892 3.57578 4.9142 3.57578H5.10795L5.17045 3.39141C5.17357 3.36953 5.20795 3.36953 5.2142 3.39141Z" fill="white"/>
<path d="M5.2142 4.35078L5.2767 4.53516H5.47045C5.49545 4.53516 5.50482 4.56641 5.48607 4.58203L5.32982 4.69766L5.3892 4.88203C5.39545 4.90703 5.37045 4.92578 5.34857 4.91016L5.19232 4.79766L5.03607 4.91016C5.0142 4.92578 4.9892 4.90391 4.99545 4.88203L5.05482 4.69766L4.89857 4.58203C4.87982 4.56641 4.8892 4.53516 4.9142 4.53516H5.10795L5.17045 4.35078C5.17357 4.32578 5.20795 4.32578 5.2142 4.35078Z" fill="white"/>
<path d="M5.2142 5.30547L5.2767 5.48984H5.47045C5.49545 5.48984 5.50482 5.52109 5.48607 5.53672L5.32982 5.65234L5.3892 5.83672C5.39545 5.86172 5.37045 5.88047 5.34857 5.86484L5.19232 5.75234L5.03607 5.86484C5.0142 5.88047 4.9892 5.85859 4.99545 5.83672L5.05482 5.65234L4.89857 5.53672C4.87982 5.52109 4.8892 5.48984 4.9142 5.48984H5.10795L5.17045 5.30547C5.17357 5.28359 5.20795 5.28359 5.2142 5.30547Z" fill="white"/>
<path d="M5.2142 6.26484L5.2767 6.44922H5.47045C5.49545 6.44922 5.50482 6.48047 5.48607 6.49609L5.32982 6.61172L5.3892 6.79609C5.39545 6.82109 5.37045 6.83984 5.34857 6.82422L5.19232 6.71172L5.03607 6.82422C5.0142 6.83984 4.9892 6.81797 4.99545 6.79609L5.05482 6.61172L4.89857 6.49609C4.87982 6.48047 4.8892 6.44922 4.9142 6.44922H5.10795L5.17045 6.26484C5.17357 6.23984 5.20795 6.23984 5.2142 6.26484Z" fill="white"/>
<path d="M5.2142 7.22578L5.2767 7.41016H5.47045C5.49545 7.41016 5.50482 7.44141 5.48607 7.45703L5.32982 7.57266L5.3892 7.75703C5.39545 7.78203 5.37045 7.80078 5.34857 7.78516L5.19232 7.67266L5.03607 7.78516C5.0142 7.80078 4.9892 7.77891 4.99545 7.75703L5.05482 7.57266L4.89857 7.45703C4.87982 7.44141 4.8892 7.41016 4.9142 7.41016H5.10795L5.17045 7.22578C5.17357 7.20078 5.20795 7.20078 5.2142 7.22578Z" fill="white"/>
<path d="M5.95834 3.8625L6.02084 4.04688H6.21459C6.23959 4.04688 6.24896 4.07813 6.23021 4.09375L6.07396 4.20937L6.13334 4.39375C6.13959 4.41875 6.11459 4.4375 6.09271 4.42188L5.93646 4.30937L5.78021 4.42188C5.75834 4.4375 5.73334 4.41563 5.73959 4.39375L5.79896 4.20937L5.64271 4.09375C5.62396 4.07813 5.63334 4.04688 5.65834 4.04688H5.85209L5.91459 3.8625C5.91771 3.8375 5.95209 3.8375 5.95834 3.8625Z" fill="white"/>
<path d="M5.95834 4.82109L6.02084 5.00547H6.21459C6.23959 5.00547 6.24896 5.03672 6.23021 5.05234L6.07396 5.16797L6.13334 5.35234C6.13959 5.37734 6.11459 5.39609 6.09271 5.38047L5.93646 5.26797L5.78021 5.38047C5.75834 5.39609 5.73334 5.37422 5.73959 5.35234L5.79896 5.16797L5.64271 5.05234C5.62396 5.03672 5.63334 5.00547 5.65834 5.00547H5.85209L5.91459 4.82109C5.91771 4.79922 5.95209 4.79922 5.95834 4.82109Z" fill="white"/>
<path d="M5.95834 5.78047L6.02084 5.96484H6.21459C6.23959 5.96484 6.24896 5.99609 6.23021 6.01172L6.07396 6.12734L6.13334 6.31172C6.13959 6.33672 6.11459 6.35547 6.09271 6.33984L5.93646 6.22734L5.78021 6.33984C5.75834 6.35547 5.73334 6.33359 5.73959 6.31172L5.79896 6.12734L5.64271 6.01172C5.62396 5.99609 5.63334 5.96484 5.65834 5.96484H5.85209L5.91459 5.78047C5.91771 5.75547 5.95209 5.75547 5.95834 5.78047Z" fill="white"/>
<path d="M5.95834 6.73516L6.02084 6.91953H6.21459C6.23959 6.91953 6.24896 6.95078 6.23021 6.96641L6.07396 7.08203L6.13334 7.26641C6.13959 7.29141 6.11459 7.31016 6.09271 7.29453L5.93646 7.18203L5.78021 7.29453C5.75834 7.31016 5.73334 7.28828 5.73959 7.26641L5.79896 7.08203L5.64271 6.96641C5.62396 6.95078 5.63334 6.91953 5.65834 6.91953H5.85209L5.91459 6.73516C5.91771 6.71328 5.95209 6.71328 5.95834 6.73516Z" fill="white"/>
<path d="M6.70248 3.39141L6.76498 3.57578H6.95873C6.98373 3.57578 6.9931 3.60703 6.97435 3.62266L6.8181 3.73828L6.87748 3.92266C6.88373 3.94766 6.85873 3.96641 6.83685 3.95078L6.6806 3.83828L6.52435 3.95078C6.50248 3.96641 6.47748 3.94453 6.48373 3.92266L6.5431 3.73828L6.38685 3.62266C6.3681 3.60703 6.37748 3.57578 6.40248 3.57578H6.59623L6.65873 3.39141C6.66185 3.36953 6.69623 3.36953 6.70248 3.39141Z" fill="white"/>
<path d="M6.70248 4.35078L6.76498 4.53516H6.95873C6.98373 4.53516 6.9931 4.56641 6.97435 4.58203L6.8181 4.69766L6.87748 4.88203C6.88373 4.90703 6.85873 4.92578 6.83685 4.91016L6.6806 4.79766L6.52435 4.91016C6.50248 4.92578 6.47748 4.90391 6.48373 4.88203L6.5431 4.69766L6.38685 4.58203C6.3681 4.56641 6.37748 4.53516 6.40248 4.53516H6.59623L6.65873 4.35078C6.66185 4.32578 6.69623 4.32578 6.70248 4.35078Z" fill="white"/>
<path d="M6.70248 5.30547L6.76498 5.48984H6.95873C6.98373 5.48984 6.9931 5.52109 6.97435 5.53672L6.8181 5.65234L6.87748 5.83672C6.88373 5.86172 6.85873 5.88047 6.83685 5.86484L6.6806 5.75234L6.52435 5.86484C6.50248 5.88047 6.47748 5.85859 6.48373 5.83672L6.5431 5.65234L6.38685 5.53672C6.3681 5.52109 6.37748 5.48984 6.40248 5.48984H6.59623L6.65873 5.30547C6.66185 5.28359 6.69623 5.28359 6.70248 5.30547Z" fill="white"/>
<path d="M6.70248 6.26484L6.76498 6.44922H6.95873C6.98373 6.44922 6.9931 6.48047 6.97435 6.49609L6.8181 6.61172L6.87748 6.79609C6.88373 6.82109 6.85873 6.83984 6.83685 6.82422L6.6806 6.71172L6.52435 6.82422C6.50248 6.83984 6.47748 6.81797 6.48373 6.79609L6.5431 6.61172L6.38685 6.49609C6.3681 6.48047 6.37748 6.44922 6.40248 6.44922H6.59623L6.65873 6.26484C6.66185 6.23984 6.69623 6.23984 6.70248 6.26484Z" fill="white"/>
<path d="M6.70248 7.22578L6.76498 7.41016H6.95873C6.98373 7.41016 6.9931 7.44141 6.97435 7.45703L6.8181 7.57266L6.87748 7.75703C6.88373 7.78203 6.85873 7.80078 6.83685 7.78516L6.6806 7.67266L6.52435 7.78516C6.50248 7.80078 6.47748 7.77891 6.48373 7.75703L6.5431 7.57266L6.38685 7.45703C6.3681 7.44141 6.37748 7.41016 6.40248 7.41016H6.59623L6.65873 7.22578C6.66185 7.20078 6.69623 7.20078 6.70248 7.22578Z" fill="white"/>
<path d="M15.9805 10.0195H-0.0195312V10.8258H15.9805V10.0195Z" fill="white"/>
</g>
<defs>
<clipPath id="clip0_598_52675">
<rect width="17" height="17" fill="white"/>
</clipPath>
</defs>
</svg>
