<svg width="15" height="15" viewBox="0 0 15 15" fill="none" xmlns="http://www.w3.org/2000/svg">
<path d="M10.2498 3.24889H4.24988C3.14532 3.24889 2.2499 4.14431 2.2499 5.24886V10.2488C2.2499 11.3534 3.14532 12.2488 4.24988 12.2488H10.2498C11.3544 12.2488 12.2498 11.3534 12.2498 10.2488V5.24886C12.2498 4.14431 11.3544 3.24889 10.2498 3.24889Z" stroke="#F8F8F8" stroke-width="1.10111" stroke-linecap="round" stroke-linejoin="round"/>
<path d="M5.2501 2.2499V4.24988M9.25005 2.2499V4.24988" stroke="#F8F8F8" stroke-width="1.10111" stroke-linecap="round" stroke-linejoin="round"/>
<path d="M6.72526 9.9279C6.72526 9.86613 6.72526 9.77349 6.75526 9.71172C6.78525 9.64996 6.81525 9.5882 6.87525 9.55731C6.93525 9.52643 6.96525 9.46467 7.02525 9.46467C7.08525 9.43379 7.17525 9.43379 7.23525 9.43379C7.29525 9.43379 7.38525 9.43379 7.44525 9.46467L7.62524 9.55731C7.68524 9.5882 7.71524 9.64996 7.74524 9.71172C7.77524 9.77349 7.77524 9.83525 7.77524 9.9279C7.77524 9.98966 7.77524 10.0823 7.74524 10.1441C7.71524 10.2058 7.68524 10.2676 7.62524 10.2985C7.56525 10.3294 7.53525 10.3911 7.44525 10.3911C7.35525 10.3911 7.35525 10.4529 7.26525 10.4529C7.17525 10.4529 7.11525 10.4529 7.05525 10.422C6.99525 10.3911 6.93525 10.3602 6.90525 10.3294C6.84525 10.2985 6.81525 10.2367 6.78525 10.175C6.75526 10.0823 6.72526 10.0205 6.72526 9.9279ZM7.65524 8.59997H6.87525L6.75526 5.20296H7.74524L7.65524 8.59997Z" fill="#F8F8F8"/>
</svg>
