<svg width="32" height="120" viewBox="0 0 32 120" fill="none" xmlns="http://www.w3.org/2000/svg">
<rect x="0.5" y="0.5" width="31" height="31" rx="15.5" fill="white"/>
<path d="M15.0516 16.1215L19.1161 11.9783L18.371 11.2417L15.0516 14.6253L13.629 13.1752L12.9065 13.9348L15.0516 16.1215ZM16 23.1189C17.972 21.3235 19.4624 19.6164 20.471 17.9974C21.4796 16.3785 21.9839 14.9859 21.9839 13.8197C21.9839 11.9783 21.4043 10.4706 20.2452 9.29668C19.086 8.12276 17.671 7.53581 16 7.53581C14.329 7.53581 12.914 8.12276 11.7548 9.29668C10.5957 10.4706 10.0161 11.9783 10.0161 13.8197C10.0161 14.9859 10.528 16.3785 11.5516 17.9974C12.5753 19.6164 14.0581 21.3235 16 23.1189ZM16 24.5C13.6516 22.413 11.8978 20.4795 10.7387 18.6995C9.57957 16.9194 9 15.2928 9 13.8197C9 11.5946 9.70376 9.81841 11.1113 8.49105C12.5188 7.16368 14.1484 6.5 16 6.5C17.8516 6.5 19.4812 7.16368 20.8887 8.49105C22.2962 9.81841 23 11.5946 23 13.8197C23 15.2928 22.4204 16.9194 21.2613 18.6995C20.1022 20.4795 18.3484 22.413 16 24.5Z" fill="#198460"/>
<rect x="0.5" y="0.5" width="31" height="31" rx="15.5" stroke="#E8EBF3"/>
<path d="M16 39L16 81" stroke="#D7D8D8" stroke-linecap="round" stroke-dasharray="4 4"/>
<rect x="0.5" y="88.5" width="31" height="31" rx="15.5" fill="white"/>
<path d="M15.0516 105.121L19.1161 100.978L18.371 100.242L15.0516 103.625L13.629 102.175L12.9065 102.935L15.0516 105.121ZM16 112.119C17.972 110.324 19.4624 108.616 20.471 106.997C21.4796 105.379 21.9839 103.986 21.9839 102.82C21.9839 100.978 21.4043 99.4706 20.2452 98.2967C19.086 97.1228 17.671 96.5358 16 96.5358C14.329 96.5358 12.914 97.1228 11.7548 98.2967C10.5957 99.4706 10.0161 100.978 10.0161 102.82C10.0161 103.986 10.528 105.379 11.5516 106.997C12.5753 108.616 14.0581 110.324 16 112.119ZM16 113.5C13.6516 111.413 11.8978 109.48 10.7387 107.699C9.57957 105.919 9 104.293 9 102.82C9 100.595 9.70376 98.8184 11.1113 97.491C12.5188 96.1637 14.1484 95.5 16 95.5C17.8516 95.5 19.4812 96.1637 20.8887 97.491C22.2962 98.8184 23 100.595 23 102.82C23 104.293 22.4204 105.919 21.2613 107.699C20.1022 109.48 18.3484 111.413 16 113.5Z" fill="#EE3F32"/>
<rect x="0.5" y="88.5" width="31" height="31" rx="15.5" stroke="#E8EBF3"/>
</svg>
