<svg width="12" height="12" viewBox="0 0 12 12" fill="none" xmlns="http://www.w3.org/2000/svg">
<path d="M6.00007 2.43736C6.31073 2.43736 6.56256 2.18553 6.56256 1.87488C6.56256 1.56422 6.31073 1.31239 6.00007 1.31239C5.68942 1.31239 5.43758 1.56422 5.43758 1.87488C5.43758 2.18553 5.68942 2.43736 6.00007 2.43736Z" stroke="#949AAB" stroke-width="1.12173" stroke-linecap="round" stroke-linejoin="round"/>
<path d="M6.00007 6.56232C6.31073 6.56232 6.56256 6.31048 6.56256 5.99983C6.56256 5.68917 6.31073 5.43734 6.00007 5.43734C5.68942 5.43734 5.43758 5.68917 5.43758 5.99983C5.43758 6.31048 5.68942 6.56232 6.00007 6.56232Z" stroke="#949AAB" stroke-width="1.12173" stroke-linecap="round" stroke-linejoin="round"/>
<path d="M6.00007 10.6873C6.31073 10.6873 6.56256 10.4354 6.56256 10.1248C6.56256 9.81413 6.31073 9.56229 6.00007 9.56229C5.68942 9.56229 5.43758 9.81413 5.43758 10.1248C5.43758 10.4354 5.68942 10.6873 6.00007 10.6873Z" stroke="#949AAB" stroke-width="1.12173" stroke-linecap="round" stroke-linejoin="round"/>
</svg>
