<svg width="20" height="20" viewBox="0 0 20 20" fill="none" xmlns="http://www.w3.org/2000/svg">
<path d="M17.3194 2.68202C17.235 2.59807 17.1284 2.53994 17.0122 2.51448C16.8959 2.48901 16.7748 2.49727 16.6631 2.53827L2.91311 7.53827C2.79453 7.58325 2.69244 7.66324 2.62039 7.76762C2.54835 7.87199 2.50977 7.99582 2.50977 8.12265C2.50977 8.24947 2.54835 8.3733 2.62039 8.47767C2.69244 8.58205 2.79453 8.66204 2.91311 8.70702L8.91311 11.107L11.3131 17.107C11.3582 17.2204 11.4355 17.3181 11.5354 17.3881C11.6354 17.458 11.7537 17.4972 11.8756 17.5008C12.0019 17.4982 12.1245 17.4574 12.2271 17.3837C12.3298 17.3101 12.4077 17.2071 12.4506 17.0883L17.4506 3.33827C17.4932 3.22769 17.5035 3.10729 17.4802 2.9911C17.457 2.87491 17.4012 2.76772 17.3194 2.68202ZM11.8756 15.1258L10.1319 10.7508L13.1256 7.75702L12.2444 6.87577L9.22561 9.89452L4.87561 8.12577L15.8319 4.16952L11.8756 15.1258Z" fill="#F8F8F8"/>
</svg>
