<svg width="32" height="32" viewBox="0 0 32 32" fill="none" xmlns="http://www.w3.org/2000/svg">
<rect x="0.5" y="0.5" width="31" height="31" rx="15.5" fill="white"/>
<path d="M10.7284 22.5C10.4356 22.5 10.1855 22.3963 9.9781 22.1889C9.7707 21.9815 9.66699 21.7314 9.66699 21.4386V10.8425C9.66699 10.5619 9.7707 10.3148 9.9781 10.1013C10.1855 9.8878 10.4356 9.78105 10.7284 9.78105H12.0827V8.5H12.9977V9.78105H18.8173V8.5H19.7141V9.78105H21.05C21.3428 9.78105 21.5929 9.8878 21.8003 10.1013C22.0077 10.3148 22.1114 10.5619 22.1114 10.8425V21.4386C22.1114 21.7314 22.0077 21.9815 21.8003 22.1889C21.5929 22.3963 21.3428 22.5 21.05 22.5H10.7284ZM10.7284 21.6765H21.05C21.111 21.6765 21.1659 21.6521 21.2147 21.6033C21.2635 21.5545 21.2879 21.4996 21.2879 21.4386V14.1732H10.4905V21.4386C10.4905 21.4996 10.5149 21.5545 10.5637 21.6033C10.6125 21.6521 10.6674 21.6765 10.7284 21.6765ZM10.4905 13.3497H21.2879V10.8425C21.2879 10.7815 21.2635 10.7296 21.2147 10.6869C21.1659 10.6442 21.111 10.6229 21.05 10.6229H10.7284C10.6674 10.6229 10.6125 10.6442 10.5637 10.6869C10.5149 10.7296 10.4905 10.7815 10.4905 10.8425V13.3497ZM10.4905 13.3497V10.6229V13.3497ZM15.8892 17.0647C15.7062 17.0647 15.5537 17.0007 15.4317 16.8725C15.3097 16.7444 15.2487 16.595 15.2487 16.4242C15.2487 16.2412 15.3097 16.0856 15.4317 15.9575C15.5537 15.8294 15.7062 15.7654 15.8892 15.7654C16.0722 15.7654 16.2247 15.8294 16.3467 15.9575C16.4687 16.0856 16.5297 16.2412 16.5297 16.4242C16.5297 16.595 16.4687 16.7444 16.3467 16.8725C16.2247 17.0007 16.0722 17.0647 15.8892 17.0647ZM12.9611 17.0647C12.7781 17.0647 12.6256 17.0007 12.5036 16.8725C12.3816 16.7444 12.3206 16.595 12.3206 16.4242C12.3206 16.2412 12.3816 16.0856 12.5036 15.9575C12.6256 15.8294 12.7781 15.7654 12.9611 15.7654C13.1441 15.7654 13.2966 15.8294 13.4186 15.9575C13.5406 16.0856 13.6016 16.2412 13.6016 16.4242C13.6016 16.595 13.5406 16.7444 13.4186 16.8725C13.2966 17.0007 13.1441 17.0647 12.9611 17.0647ZM18.8173 17.0647C18.6343 17.0647 18.4818 17.0007 18.3598 16.8725C18.2378 16.7444 18.1768 16.595 18.1768 16.4242C18.1768 16.2412 18.2378 16.0856 18.3598 15.9575C18.4818 15.8294 18.6343 15.7654 18.8173 15.7654C19.0003 15.7654 19.1528 15.8294 19.2748 15.9575C19.3968 16.0856 19.4578 16.2412 19.4578 16.4242C19.4578 16.595 19.3968 16.7444 19.2748 16.8725C19.1528 17.0007 19.0003 17.0647 18.8173 17.0647ZM15.8892 19.9379C15.7062 19.9379 15.5537 19.8739 15.4317 19.7458C15.3097 19.6176 15.2487 19.4682 15.2487 19.2974C15.2487 19.1144 15.3097 18.9588 15.4317 18.8307C15.5537 18.7026 15.7062 18.6386 15.8892 18.6386C16.0722 18.6386 16.2247 18.7026 16.3467 18.8307C16.4687 18.9588 16.5297 19.1144 16.5297 19.2974C16.5297 19.4682 16.4687 19.6176 16.3467 19.7458C16.2247 19.8739 16.0722 19.9379 15.8892 19.9379ZM12.9611 19.9379C12.7781 19.9379 12.6256 19.8739 12.5036 19.7458C12.3816 19.6176 12.3206 19.4682 12.3206 19.2974C12.3206 19.1144 12.3816 18.9588 12.5036 18.8307C12.6256 18.7026 12.7781 18.6386 12.9611 18.6386C13.1441 18.6386 13.2966 18.7026 13.4186 18.8307C13.5406 18.9588 13.6016 19.1144 13.6016 19.2974C13.6016 19.4682 13.5406 19.6176 13.4186 19.7458C13.2966 19.8739 13.1441 19.9379 12.9611 19.9379ZM18.8173 19.9379C18.6343 19.9379 18.4818 19.8739 18.3598 19.7458C18.2378 19.6176 18.1768 19.4682 18.1768 19.2974C18.1768 19.1144 18.2378 18.9588 18.3598 18.8307C18.4818 18.7026 18.6343 18.6386 18.8173 18.6386C19.0003 18.6386 19.1528 18.7026 19.2748 18.8307C19.3968 18.9588 19.4578 19.1144 19.4578 19.2974C19.4578 19.4682 19.3968 19.6176 19.2748 19.7458C19.1528 19.8739 19.0003 19.9379 18.8173 19.9379Z" fill="#8F97B1"/>
<rect x="0.5" y="0.5" width="31" height="31" rx="15.5" stroke="#E8EBF3"/>
</svg>
