<svg width="32" height="120" viewBox="0 0 32 120" fill="none" xmlns="http://www.w3.org/2000/svg">
<rect x="0.5" y="0.5" width="31" height="31" rx="15.5" fill="white"/>
<path d="M16.2224 14.9569C16.6076 14.9569 16.9372 14.8198 17.2113 14.5457C17.4853 14.2717 17.6224 13.942 17.6224 13.5569C17.6224 13.1717 17.4853 12.842 17.2113 12.568C16.9372 12.2939 16.6076 12.1569 16.2224 12.1569C15.8372 12.1569 15.5076 12.2939 15.2335 12.568C14.9594 12.842 14.8224 13.1717 14.8224 13.5569C14.8224 13.942 14.9594 14.2717 15.2335 14.5457C15.5076 14.8198 15.8372 14.9569 16.2224 14.9569ZM16.2224 22.7124C18.1631 20.9791 19.6298 19.3309 20.6224 17.768C21.615 16.205 22.1113 14.8606 22.1113 13.7346C22.1113 11.9569 21.5446 10.5013 20.4113 9.36797C19.2779 8.23464 17.8816 7.66797 16.2224 7.66797C14.5631 7.66797 13.1668 8.23464 12.0335 9.36797C10.9002 10.5013 10.3335 11.9569 10.3335 13.7346C10.3335 14.8606 10.8372 16.205 11.8446 17.768C12.852 19.3309 14.3113 20.9791 16.2224 22.7124ZM16.2224 24.0457C13.9113 22.0309 12.1853 20.1643 11.0446 18.4457C9.90387 16.7272 9.3335 15.1569 9.3335 13.7346C9.3335 11.5865 10.0261 9.87167 11.4113 8.59019C12.7965 7.30871 14.4002 6.66797 16.2224 6.66797C18.0446 6.66797 19.6483 7.30871 21.0335 8.59019C22.4187 9.87167 23.1113 11.5865 23.1113 13.7346C23.1113 15.1569 22.5409 16.7272 21.4002 18.4457C20.2594 20.1643 18.5335 22.0309 16.2224 24.0457Z" fill="#198460"/>
<rect x="0.5" y="0.5" width="31" height="31" rx="15.5" stroke="#E8EBF3"/>
<path d="M16 39L16 81" stroke="#D7D8D8" stroke-linecap="round" stroke-dasharray="4 4"/>
<rect x="0.5" y="88.5" width="31" height="31" rx="15.5" fill="white"/>
<path d="M16.0002 103.621C16.3854 103.621 16.715 103.484 16.9891 103.21C17.2632 102.936 17.4002 102.606 17.4002 102.221C17.4002 101.836 17.2632 101.506 16.9891 101.232C16.715 100.958 16.3854 100.821 16.0002 100.821C15.615 100.821 15.2854 100.958 15.0113 101.232C14.7373 101.506 14.6002 101.836 14.6002 102.221C14.6002 102.606 14.7373 102.936 15.0113 103.21C15.2854 103.484 15.615 103.621 16.0002 103.621ZM16.0002 111.376C17.941 109.643 19.4076 107.995 20.4002 106.432C21.3928 104.869 21.8891 103.525 21.8891 102.399C21.8891 100.621 21.3224 99.1654 20.1891 98.032C19.0558 96.8987 17.6595 96.332 16.0002 96.332C14.341 96.332 12.9447 96.8987 11.8113 98.032C10.678 99.1654 10.1113 100.621 10.1113 102.399C10.1113 103.525 10.615 104.869 11.6224 106.432C12.6298 107.995 14.0891 109.643 16.0002 111.376ZM16.0002 112.71C13.6891 110.695 11.9632 108.828 10.8224 107.11C9.6817 105.391 9.11133 103.821 9.11133 102.399C9.11133 100.251 9.80392 98.5357 11.1891 97.2543C12.5743 95.9728 14.178 95.332 16.0002 95.332C17.8224 95.332 19.4261 95.9728 20.8113 97.2543C22.1965 98.5357 22.8891 100.251 22.8891 102.399C22.8891 103.821 22.3187 105.391 21.178 107.11C20.0373 108.828 18.3113 110.695 16.0002 112.71Z" fill="#EE3F32"/>
<rect x="0.5" y="88.5" width="31" height="31" rx="15.5" stroke="#E8EBF3"/>
</svg>
