<svg width="17" height="17" viewBox="0 0 17 17" fill="none" xmlns="http://www.w3.org/2000/svg">
<path d="M7.23258 3.11668C7.23258 2.99591 7.18461 2.88009 7.09921 2.79469C7.01382 2.7093 6.898 2.66132 6.77723 2.66132C6.65646 2.66132 6.54064 2.7093 6.45524 2.79469C6.36985 2.88009 6.32187 2.99591 6.32187 3.11668V5.84882C6.32176 6.37369 6.50301 6.88247 6.83492 7.28907C7.16683 7.69566 7.62903 7.97509 8.1433 8.08007V14.956C8.1433 15.0767 8.19127 15.1925 8.27667 15.2779C8.36207 15.3633 8.47789 15.4113 8.59865 15.4113C8.71942 15.4113 8.83524 15.3633 8.92064 15.2779C9.00604 15.1925 9.05401 15.0767 9.05401 14.956V8.08007C9.56828 7.97509 10.0305 7.69566 10.3624 7.28907C10.6943 6.88247 10.8755 6.37369 10.8754 5.84882V3.11668C10.8754 2.99591 10.8275 2.88009 10.7421 2.79469C10.6567 2.7093 10.5408 2.66132 10.4201 2.66132C10.2993 2.66132 10.1835 2.7093 10.0981 2.79469C10.0127 2.88009 9.96472 2.99591 9.96472 3.11668V5.84882C9.96487 6.13144 9.87736 6.40715 9.71425 6.63794C9.55114 6.86874 9.32047 7.04327 9.05401 7.13748V3.11668C9.05401 2.99591 9.00604 2.88009 8.92064 2.79469C8.83524 2.7093 8.71942 2.66132 8.59865 2.66132C8.47789 2.66132 8.36207 2.7093 8.27667 2.79469C8.19127 2.88009 8.1433 2.99591 8.1433 3.11668V7.13748C7.87684 7.04327 7.64617 6.86874 7.48306 6.63794C7.31995 6.40715 7.23244 6.13144 7.23258 5.84882V3.11668ZM13.6076 14.956V9.03632H12.2415C12.1207 9.03632 12.0049 8.98834 11.9195 8.90295C11.8341 8.81755 11.7862 8.70173 11.7862 8.58096V4.93811C11.7862 4.3343 12.083 3.76966 12.4883 3.36348C12.8945 2.95822 13.4591 2.66132 14.0629 2.66132C14.1837 2.66132 14.2995 2.7093 14.3849 2.79469C14.4703 2.88009 14.5183 2.99591 14.5183 3.11668V14.956C14.5183 15.0767 14.4703 15.1925 14.3849 15.2779C14.2995 15.3633 14.1837 15.4113 14.0629 15.4113C13.9422 15.4113 13.8263 15.3633 13.7409 15.2779C13.6556 15.1925 13.6076 15.0767 13.6076 14.956Z" fill="white"/>
</svg>
