<svg width="112" height="32" viewBox="0 0 112 32" fill="none" xmlns="http://www.w3.org/2000/svg">
<path d="M7.75435 9.42238C7.97023 8.96445 8.42816 8.67334 8.93515 8.67334H23.0656C23.5726 8.67334 24.0305 8.96445 24.2464 9.42238C24.4623 9.88031 24.3968 10.42 24.0763 10.8125L18.0938 18.1231V22.2804C18.0938 22.6762 17.8713 23.0393 17.5148 23.2159C17.1583 23.3925 16.7363 23.3565 16.419 23.1178L14.3256 21.5477C14.0607 21.3515 13.907 21.0407 13.907 20.7104V18.1231L7.92117 10.8093C7.60389 10.42 7.5352 9.87704 7.75435 9.42238Z" stroke="#282C39" stroke-width="1.6485"/>
<path d="M54.9689 16C54.9689 16.2735 55.0775 16.5358 55.2709 16.7292C55.4643 16.9226 55.7266 17.0312 56.0001 17.0312C56.2736 17.0312 56.5359 16.9226 56.7293 16.7292C56.9227 16.5358 57.0314 16.2735 57.0314 16C57.0314 15.7265 56.9227 15.4642 56.7293 15.2708C56.5359 15.0774 56.2736 14.9688 56.0001 14.9688C55.7266 14.9688 55.4643 15.0774 55.2709 15.2708C55.0775 15.4642 54.9689 15.7265 54.9689 16ZM59.2657 16C59.2657 16.2735 59.3744 16.5358 59.5678 16.7292C59.7612 16.9226 60.0235 17.0312 60.297 17.0312C60.5705 17.0312 60.8328 16.9226 61.0262 16.7292C61.2196 16.5358 61.3282 16.2735 61.3282 16C61.3282 15.7265 61.2196 15.4642 61.0262 15.2708C60.8328 15.0774 60.5705 14.9688 60.297 14.9688C60.0235 14.9688 59.7612 15.0774 59.5678 15.2708C59.3744 15.4642 59.2657 15.7265 59.2657 16ZM50.672 16C50.672 16.2735 50.7806 16.5358 50.974 16.7292C51.1674 16.9226 51.4297 17.0312 51.7032 17.0312C51.9768 17.0312 52.2391 16.9226 52.4324 16.7292C52.6258 16.5358 52.7345 16.2735 52.7345 16C52.7345 15.7265 52.6258 15.4642 52.4324 15.2708C52.2391 15.0774 51.9768 14.9688 51.7032 14.9688C51.4297 14.9688 51.1674 15.0774 50.974 15.2708C50.7806 15.4642 50.672 15.7265 50.672 16ZM64.8775 12.2703C64.3919 11.1166 63.6958 10.0811 62.8085 9.1916C61.9274 8.3073 60.8814 7.60438 59.7298 7.12266C58.5482 6.62637 57.2935 6.375 56.0001 6.375H55.9572C54.6552 6.38145 53.3941 6.63926 52.2081 7.14629C51.0664 7.63296 50.0302 8.33712 49.1573 9.21953C48.2786 10.1068 47.589 11.1381 47.112 12.2875C46.6179 13.4777 46.3687 14.7432 46.3751 16.0451C46.3824 17.5371 46.7354 19.0072 47.4064 20.3398V23.6055C47.4064 23.8676 47.5105 24.1189 47.6958 24.3043C47.8812 24.4896 48.1325 24.5938 48.3947 24.5938H51.6624C52.9951 25.2647 54.4651 25.6177 55.9572 25.625H56.0023C57.2892 25.625 58.5374 25.3758 59.7126 24.8881C60.8584 24.4121 61.9005 23.7174 62.7806 22.8428C63.6679 21.9641 64.3661 20.9371 64.8538 19.792C65.3609 18.6061 65.6187 17.3449 65.6251 16.043C65.6316 14.7346 65.378 13.4648 64.8775 12.2703ZM61.6312 21.6805C60.1251 23.1715 58.1271 23.9922 56.0001 23.9922H55.9636C54.6681 23.9857 53.3812 23.6635 52.2447 23.0576L52.0642 22.9609H49.0392V19.9359L48.9425 19.7555C48.3366 18.6189 48.0144 17.332 48.0079 16.0365C47.9993 13.8945 48.8179 11.8836 50.3197 10.3689C51.8193 8.8543 53.8238 8.01641 55.9657 8.00781H56.0023C57.0765 8.00781 58.1185 8.21621 59.1003 8.62871C60.0585 9.03047 60.9179 9.6084 61.657 10.3475C62.3939 11.0844 62.9739 11.9459 63.3757 12.9041C63.7925 13.8967 64.0009 14.9494 63.9966 16.0365C63.9837 18.1764 63.1437 20.1809 61.6312 21.6805Z" fill="#282C39"/>
<path fill-rule="evenodd" clip-rule="evenodd" d="M102.11 16.8517C102.247 17.6758 102.385 18.3626 102.659 19.1868L103.484 21.522L102.797 22.4835H97.989C97.989 23.1703 97.7143 23.8571 97.1648 24.4066C96.6154 24.956 95.9286 25.2308 95.2418 25.2308C94.5549 25.2308 93.7308 24.956 93.3187 24.4066C92.7692 23.8571 92.4945 23.1703 92.4945 22.4835H87.6868L87 21.522L87.8242 19.1868C88.0989 18.0879 88.3736 16.989 88.3736 15.8901V12.8681C88.3736 11.9066 88.511 10.9451 88.9231 10.1209C89.3352 9.15934 89.8846 8.47253 90.5714 7.78571C91.2582 7.0989 92.0824 6.68681 93.044 6.41209C93.7308 6.13736 94.5549 6 95.2418 6C94.967 6.41209 94.6923 6.96154 94.4176 7.51099C94.1429 7.51099 93.8681 7.51099 93.456 7.78571C92.7692 7.92308 92.0824 8.33517 91.533 8.88462C90.9835 9.2967 90.4341 9.98352 90.1593 10.6703C89.8846 11.3571 89.7473 12.044 89.7473 12.8681V15.8901C89.7473 17.1264 89.4725 18.3626 89.1978 19.5989L88.6484 21.1099H101.835L101.286 19.5989C101.045 18.8764 100.909 18.0467 100.787 17.2995L100.736 16.989C101.286 16.989 101.698 16.989 102.11 16.8517ZM95.2418 23.8571C95.5165 23.8571 95.9286 23.7198 96.2033 23.4451C96.478 23.1703 96.6154 22.8956 96.6154 22.4835H93.8681C93.8681 22.8956 94.0055 23.1703 94.2802 23.4451C94.5549 23.7198 94.967 23.8571 95.2418 23.8571ZM104.857 10.1209C104.857 11.2138 104.423 12.262 103.65 13.0348C102.877 13.8076 101.829 14.2418 100.736 14.2418C99.6433 14.2418 98.5952 13.8076 97.8224 13.0348C97.0495 12.262 96.6154 11.2138 96.6154 10.1209C96.6154 9.02795 97.0495 7.97979 97.8224 7.20698C98.5952 6.43416 99.6433 6 100.736 6C101.829 6 102.877 6.43416 103.65 7.20698C104.423 7.97979 104.857 9.02795 104.857 10.1209Z" fill="#282C39"/>
</svg>
