<svg width="16" height="11" viewBox="0 0 16 11" fill="none" xmlns="http://www.w3.org/2000/svg">
<path d="M16 8.07812H0V8.88437H16V8.07812Z" fill="#B22234"/>
<path d="M7.44531 0V0.403125V0.80625H15.9984V0H7.44531Z" fill="#B22234"/>
<path d="M15.9984 0.806152H7.44531V1.6124H15.9984V0.806152Z" fill="white"/>
<path d="M15.9984 1.61572H7.44531V2.42197H15.9984V1.61572Z" fill="#B22234"/>
<path d="M15.9984 2.42188H7.44531V3.22813H15.9984V2.42188Z" fill="white"/>
<path d="M15.9984 3.23145H7.44531V4.0377H15.9984V3.23145Z" fill="#B22234"/>
<path d="M15.9984 4.0376H7.44531V4.84385H15.9984V4.0376Z" fill="white"/>
<path d="M15.9984 4.84668H7.44531V5.65293H15.9984V4.84668Z" fill="#B22234"/>
<path d="M16 5.65332H0V6.45957H16V5.65332Z" fill="white"/>
<path d="M16 6.4624H0V7.26865H16V6.4624Z" fill="#B22234"/>
<path d="M16 8.88428H0V9.69053H16V8.88428Z" fill="white"/>
<path d="M16 9.69385H0V10.5001H16V9.69385Z" fill="#B22234"/>
<path d="M0 0V0.403125V0.80625V5.65312H7.44688V0.80625V0.403125V0H0Z" fill="#3C3B6E"/>
<path d="M0.774742 0.64043L0.837242 0.824805H1.03099C1.05599 0.824805 1.06537 0.856055 1.04662 0.87168L0.890367 0.987305L0.949742 1.17168C0.955992 1.19668 0.930992 1.21543 0.909117 1.1998L0.752867 1.0873L0.596617 1.1998C0.574742 1.21543 0.549742 1.19355 0.555992 1.17168L0.615367 0.987305L0.459117 0.87168C0.440367 0.856055 0.449742 0.824805 0.474742 0.824805H0.668492L0.730992 0.64043C0.734117 0.618555 0.765367 0.618555 0.774742 0.64043Z" fill="white"/>
<path d="M0.774742 1.5998L0.837242 1.78418H1.03099C1.05599 1.78418 1.06537 1.81543 1.04662 1.83105L0.890367 1.94668L0.949742 2.13105C0.955992 2.15605 0.930992 2.1748 0.909117 2.15918L0.752867 2.04668L0.596617 2.15918C0.574742 2.1748 0.549742 2.15293 0.555992 2.13105L0.615367 1.94668L0.459117 1.83105C0.440367 1.81543 0.449742 1.78418 0.474742 1.78418H0.668492L0.730992 1.5998C0.734117 1.5748 0.765367 1.5748 0.774742 1.5998Z" fill="white"/>
<path d="M0.774742 2.55596L0.837242 2.74033H1.03099C1.05599 2.74033 1.06537 2.77158 1.04662 2.78721L0.890367 2.90283L0.949742 3.08721C0.955992 3.11221 0.930992 3.13096 0.909117 3.11533L0.752867 3.00283L0.596617 3.11533C0.574742 3.13096 0.549742 3.10908 0.555992 3.08721L0.615367 2.90283L0.459117 2.78721C0.440367 2.77158 0.449742 2.74033 0.474742 2.74033H0.668492L0.730992 2.55596C0.734117 2.53408 0.765367 2.53408 0.774742 2.55596Z" fill="white"/>
<path d="M0.774742 3.51533L0.837242 3.69971H1.03099C1.05599 3.69971 1.06537 3.73096 1.04662 3.74658L0.890367 3.86221L0.949742 4.04658C0.955992 4.07158 0.930992 4.09033 0.909117 4.07471L0.752867 3.96221L0.596617 4.07471C0.574742 4.09033 0.549742 4.06846 0.555992 4.04658L0.615367 3.86221L0.459117 3.74658C0.440367 3.73096 0.449742 3.69971 0.474742 3.69971H0.668492L0.730992 3.51533C0.734117 3.49033 0.765367 3.49033 0.774742 3.51533Z" fill="white"/>
<path d="M0.774742 4.4748L0.837242 4.65918H1.03099C1.05599 4.65918 1.06537 4.69043 1.04662 4.70605L0.890367 4.82168L0.949742 5.00605C0.955992 5.03105 0.930992 5.0498 0.909117 5.03418L0.752867 4.92168L0.596617 5.03418C0.574742 5.0498 0.549742 5.02793 0.555992 5.00605L0.615367 4.82168L0.459117 4.70605C0.440367 4.69043 0.449742 4.65918 0.474742 4.65918H0.668492L0.730992 4.4748C0.734117 4.4498 0.765367 4.4498 0.774742 4.4748Z" fill="white"/>
<path d="M1.51693 1.1125L1.57943 1.29688H1.77318C1.79818 1.29688 1.80755 1.32813 1.7888 1.34375L1.63255 1.45937L1.69193 1.64375C1.69818 1.66875 1.67318 1.6875 1.6513 1.67188L1.49505 1.55937L1.3388 1.67188C1.31693 1.6875 1.29193 1.66563 1.29818 1.64375L1.35755 1.45937L1.2013 1.34375C1.18255 1.32813 1.19193 1.29688 1.21693 1.29688H1.41068L1.47318 1.1125C1.4763 1.0875 1.50755 1.0875 1.51693 1.1125Z" fill="white"/>
<path d="M1.51693 2.06865L1.57943 2.25303H1.77318C1.79818 2.25303 1.80755 2.28428 1.7888 2.2999L1.63255 2.41553L1.69193 2.5999C1.69818 2.6249 1.67318 2.64365 1.6513 2.62803L1.49505 2.51553L1.3388 2.62803C1.31693 2.64365 1.29193 2.62178 1.29818 2.5999L1.35755 2.41553L1.2013 2.2999C1.18255 2.28428 1.19193 2.25303 1.21693 2.25303H1.41068L1.47318 2.06865C1.4763 2.04678 1.50755 2.04678 1.51693 2.06865Z" fill="white"/>
<path d="M1.51693 3.02803L1.57943 3.2124H1.77318C1.79818 3.2124 1.80755 3.24365 1.7888 3.25928L1.63255 3.3749L1.69193 3.55928C1.69818 3.58428 1.67318 3.60303 1.6513 3.5874L1.49505 3.4749L1.3388 3.5874C1.31693 3.60303 1.29193 3.58115 1.29818 3.55928L1.35755 3.3749L1.2013 3.25928C1.18255 3.24365 1.19193 3.2124 1.21693 3.2124H1.41068L1.47318 3.02803C1.4763 3.00303 1.50755 3.00303 1.51693 3.02803Z" fill="white"/>
<path d="M1.51693 3.98418L1.57943 4.16855H1.77318C1.79818 4.16855 1.80755 4.1998 1.7888 4.21543L1.63255 4.33105L1.69193 4.51543C1.69818 4.54043 1.67318 4.55918 1.6513 4.54355L1.49505 4.43105L1.3388 4.54355C1.31693 4.55918 1.29193 4.5373 1.29818 4.51543L1.35755 4.33105L1.2013 4.21543C1.18255 4.1998 1.19193 4.16855 1.21693 4.16855H1.41068L1.47318 3.98418C1.4763 3.9623 1.50755 3.9623 1.51693 3.98418Z" fill="white"/>
<path d="M2.26302 0.64043L2.32552 0.824805H2.51927C2.54427 0.824805 2.55365 0.856055 2.5349 0.87168L2.37865 0.987305L2.43802 1.17168C2.44427 1.19668 2.41927 1.21543 2.3974 1.1998L2.24115 1.0873L2.0849 1.1998C2.06302 1.21543 2.03802 1.19355 2.04427 1.17168L2.10365 0.987305L1.9474 0.87168C1.92865 0.856055 1.93802 0.824805 1.96302 0.824805H2.15677L2.21927 0.64043C2.21927 0.618555 2.25365 0.618555 2.26302 0.64043Z" fill="white"/>
<path d="M2.26302 1.5998L2.32552 1.78418H2.51927C2.54427 1.78418 2.55365 1.81543 2.5349 1.83105L2.37865 1.94668L2.43802 2.13105C2.44427 2.15605 2.41927 2.1748 2.3974 2.15918L2.24115 2.04668L2.0849 2.15918C2.06302 2.1748 2.03802 2.15293 2.04427 2.13105L2.10365 1.94668L1.9474 1.83105C1.92865 1.81543 1.93802 1.78418 1.96302 1.78418H2.15677L2.21927 1.5998C2.21927 1.5748 2.25365 1.5748 2.26302 1.5998Z" fill="white"/>
<path d="M2.26302 2.55596L2.32552 2.74033H2.51927C2.54427 2.74033 2.55365 2.77158 2.5349 2.78721L2.37865 2.90283L2.43802 3.08721C2.44427 3.11221 2.41927 3.13096 2.3974 3.11533L2.24115 3.00283L2.0849 3.11533C2.06302 3.13096 2.03802 3.10908 2.04427 3.08721L2.10365 2.90283L1.9474 2.78721C1.92865 2.77158 1.93802 2.74033 1.96302 2.74033H2.15677L2.21927 2.55596C2.21927 2.53408 2.25365 2.53408 2.26302 2.55596Z" fill="white"/>
<path d="M2.26302 3.51533L2.32552 3.69971H2.51927C2.54427 3.69971 2.55365 3.73096 2.5349 3.74658L2.37865 3.86221L2.43802 4.04658C2.44427 4.07158 2.41927 4.09033 2.3974 4.07471L2.24115 3.96221L2.0849 4.07471C2.06302 4.09033 2.03802 4.06846 2.04427 4.04658L2.10365 3.86221L1.9474 3.74658C1.92865 3.73096 1.93802 3.69971 1.96302 3.69971H2.15677L2.21927 3.51533C2.21927 3.49033 2.25365 3.49033 2.26302 3.51533Z" fill="white"/>
<path d="M2.26302 4.4748L2.32552 4.65918H2.51927C2.54427 4.65918 2.55365 4.69043 2.5349 4.70605L2.37865 4.82168L2.43802 5.00605C2.44427 5.03105 2.41927 5.0498 2.3974 5.03418L2.24115 4.92168L2.0849 5.03418C2.06302 5.0498 2.03802 5.02793 2.04427 5.00605L2.10365 4.82168L1.9474 4.70605C1.92865 4.69043 1.93802 4.65918 1.96302 4.65918H2.15677L2.21927 4.4748C2.21927 4.4498 2.25365 4.4498 2.26302 4.4748Z" fill="white"/>
<path d="M3.00521 1.1125L3.06771 1.29688H3.26146C3.28646 1.29688 3.29584 1.32813 3.27709 1.34375L3.12084 1.45937L3.18021 1.64375C3.18646 1.66875 3.16146 1.6875 3.13959 1.67188L2.98334 1.55937L2.82709 1.67188C2.80521 1.6875 2.78021 1.66563 2.78646 1.64375L2.84584 1.45937L2.68959 1.34375C2.67084 1.32813 2.68021 1.29688 2.70521 1.29688H2.89896L2.96146 1.1125C2.96146 1.0875 2.99584 1.0875 3.00521 1.1125Z" fill="white"/>
<path d="M3.00521 2.06865L3.06771 2.25303H3.26146C3.28646 2.25303 3.29584 2.28428 3.27709 2.2999L3.12084 2.41553L3.18021 2.5999C3.18646 2.6249 3.16146 2.64365 3.13959 2.62803L2.98334 2.51553L2.82709 2.62803C2.80521 2.64365 2.78021 2.62178 2.78646 2.5999L2.84584 2.41553L2.68959 2.2999C2.67084 2.28428 2.68021 2.25303 2.70521 2.25303H2.89896L2.96146 2.06865C2.96146 2.04678 2.99584 2.04678 3.00521 2.06865Z" fill="white"/>
<path d="M3.00521 3.02803L3.06771 3.2124H3.26146C3.28646 3.2124 3.29584 3.24365 3.27709 3.25928L3.12084 3.3749L3.18021 3.55928C3.18646 3.58428 3.16146 3.60303 3.13959 3.5874L2.98334 3.4749L2.82709 3.5874C2.80521 3.60303 2.78021 3.58115 2.78646 3.55928L2.84584 3.3749L2.68959 3.25928C2.67084 3.24365 2.68021 3.2124 2.70521 3.2124H2.89896L2.96146 3.02803C2.96146 3.00303 2.99584 3.00303 3.00521 3.02803Z" fill="white"/>
<path d="M3.00521 3.98418L3.06771 4.16855H3.26146C3.28646 4.16855 3.29584 4.1998 3.27709 4.21543L3.12084 4.33105L3.18021 4.51543C3.18646 4.54043 3.16146 4.55918 3.13959 4.54355L2.98334 4.43105L2.82709 4.54355C2.80521 4.55918 2.78021 4.5373 2.78646 4.51543L2.84584 4.33105L2.68959 4.21543C2.67084 4.1998 2.68021 4.16855 2.70521 4.16855H2.89896L2.96146 3.98418C2.96146 3.9623 2.99584 3.9623 3.00521 3.98418Z" fill="white"/>
<path d="M3.7513 0.64043L3.8138 0.824805H4.00755C4.03255 0.824805 4.04193 0.856055 4.02318 0.87168L3.86693 0.987305L3.9263 1.17168C3.93255 1.19668 3.90755 1.21543 3.88568 1.1998L3.72943 1.0873L3.57318 1.1998C3.5513 1.21543 3.5263 1.19355 3.53255 1.17168L3.59193 0.987305L3.43568 0.87168C3.41693 0.856055 3.4263 0.824805 3.4513 0.824805H3.64505L3.70755 0.64043C3.70755 0.618555 3.74193 0.618555 3.7513 0.64043Z" fill="white"/>
<path d="M3.7513 1.5998L3.8138 1.78418H4.00755C4.03255 1.78418 4.04193 1.81543 4.02318 1.83105L3.86693 1.94668L3.9263 2.13105C3.93255 2.15605 3.90755 2.1748 3.88568 2.15918L3.72943 2.04668L3.57318 2.15918C3.5513 2.1748 3.5263 2.15293 3.53255 2.13105L3.59193 1.94668L3.43568 1.83105C3.41693 1.81543 3.4263 1.78418 3.4513 1.78418H3.64505L3.70755 1.5998C3.70755 1.5748 3.74193 1.5748 3.7513 1.5998Z" fill="white"/>
<path d="M3.7513 2.55596L3.8138 2.74033H4.00755C4.03255 2.74033 4.04193 2.77158 4.02318 2.78721L3.86693 2.90283L3.9263 3.08721C3.93255 3.11221 3.90755 3.13096 3.88568 3.11533L3.72943 3.00283L3.57318 3.11533C3.5513 3.13096 3.5263 3.10908 3.53255 3.08721L3.59193 2.90283L3.43568 2.78721C3.41693 2.77158 3.4263 2.74033 3.4513 2.74033H3.64505L3.70755 2.55596C3.70755 2.53408 3.74193 2.53408 3.7513 2.55596Z" fill="white"/>
<path d="M3.7513 3.51533L3.8138 3.69971H4.00755C4.03255 3.69971 4.04193 3.73096 4.02318 3.74658L3.86693 3.86221L3.9263 4.04658C3.93255 4.07158 3.90755 4.09033 3.88568 4.07471L3.72943 3.96221L3.57318 4.07471C3.5513 4.09033 3.5263 4.06846 3.53255 4.04658L3.59193 3.86221L3.43568 3.74658C3.41693 3.73096 3.4263 3.69971 3.4513 3.69971H3.64505L3.70755 3.51533C3.70755 3.49033 3.74193 3.49033 3.7513 3.51533Z" fill="white"/>
<path d="M3.7513 4.4748L3.8138 4.65918H4.00755C4.03255 4.65918 4.04193 4.69043 4.02318 4.70605L3.86693 4.82168L3.9263 5.00605C3.93255 5.03105 3.90755 5.0498 3.88568 5.03418L3.72943 4.92168L3.57318 5.03418C3.5513 5.0498 3.5263 5.02793 3.53255 5.00605L3.59193 4.82168L3.43568 4.70605C3.41693 4.69043 3.4263 4.65918 3.4513 4.65918H3.64505L3.70755 4.4748C3.70755 4.4498 3.74193 4.4498 3.7513 4.4748Z" fill="white"/>
<path d="M4.49349 1.1125L4.55599 1.29688H4.74974C4.77474 1.29688 4.78412 1.32813 4.76537 1.34375L4.60912 1.45937L4.66849 1.64375C4.67474 1.66875 4.64974 1.6875 4.62787 1.67188L4.47162 1.55937L4.31537 1.67188C4.29349 1.6875 4.26849 1.66563 4.27474 1.64375L4.33412 1.45937L4.17787 1.34375C4.15912 1.32813 4.16849 1.29688 4.19349 1.29688H4.38724L4.44974 1.1125C4.44974 1.0875 4.48412 1.0875 4.49349 1.1125Z" fill="white"/>
<path d="M4.49349 2.06865L4.55599 2.25303H4.74974C4.77474 2.25303 4.78412 2.28428 4.76537 2.2999L4.60912 2.41553L4.66849 2.5999C4.67474 2.6249 4.64974 2.64365 4.62787 2.62803L4.47162 2.51553L4.31537 2.62803C4.29349 2.64365 4.26849 2.62178 4.27474 2.5999L4.33412 2.41553L4.17787 2.2999C4.15912 2.28428 4.16849 2.25303 4.19349 2.25303H4.38724L4.44974 2.06865C4.44974 2.04678 4.48412 2.04678 4.49349 2.06865Z" fill="white"/>
<path d="M4.49349 3.02803L4.55599 3.2124H4.74974C4.77474 3.2124 4.78412 3.24365 4.76537 3.25928L4.60912 3.3749L4.66849 3.55928C4.67474 3.58428 4.64974 3.60303 4.62787 3.5874L4.47162 3.4749L4.31537 3.5874C4.29349 3.60303 4.26849 3.58115 4.27474 3.55928L4.33412 3.3749L4.17787 3.25928C4.15912 3.24365 4.16849 3.2124 4.19349 3.2124H4.38724L4.44974 3.02803C4.44974 3.00303 4.48412 3.00303 4.49349 3.02803Z" fill="white"/>
<path d="M4.49349 3.98418L4.55599 4.16855H4.74974C4.77474 4.16855 4.78412 4.1998 4.76537 4.21543L4.60912 4.33105L4.66849 4.51543C4.67474 4.54043 4.64974 4.55918 4.62787 4.54355L4.47162 4.43105L4.31537 4.54355C4.29349 4.55918 4.26849 4.5373 4.27474 4.51543L4.33412 4.33105L4.17787 4.21543C4.15912 4.1998 4.16849 4.16855 4.19349 4.16855H4.38724L4.44974 3.98418C4.44974 3.9623 4.48412 3.9623 4.49349 3.98418Z" fill="white"/>
<path d="M5.23568 0.64043L5.29818 0.824805H5.49193C5.51693 0.824805 5.52631 0.856055 5.50756 0.87168L5.35131 0.987305L5.41068 1.17168C5.41693 1.19668 5.39193 1.21543 5.37006 1.1998L5.21381 1.0873L5.05756 1.1998C5.03568 1.21543 5.01068 1.19355 5.01693 1.17168L5.0763 0.987305L4.92005 0.87168C4.9013 0.856055 4.91068 0.824805 4.93568 0.824805H5.12943L5.19193 0.64043C5.19506 0.618555 5.22943 0.618555 5.23568 0.64043Z" fill="white"/>
<path d="M5.23568 1.5998L5.29818 1.78418H5.49193C5.51693 1.78418 5.52631 1.81543 5.50756 1.83105L5.35131 1.94668L5.41068 2.13105C5.41693 2.15605 5.39193 2.1748 5.37006 2.15918L5.21381 2.04668L5.05756 2.15918C5.03568 2.1748 5.01068 2.15293 5.01693 2.13105L5.0763 1.94668L4.92005 1.83105C4.9013 1.81543 4.91068 1.78418 4.93568 1.78418H5.12943L5.19193 1.5998C5.19506 1.5748 5.22943 1.5748 5.23568 1.5998Z" fill="white"/>
<path d="M5.23568 2.55596L5.29818 2.74033H5.49193C5.51693 2.74033 5.52631 2.77158 5.50756 2.78721L5.35131 2.90283L5.41068 3.08721C5.41693 3.11221 5.39193 3.13096 5.37006 3.11533L5.21381 3.00283L5.05756 3.11533C5.03568 3.13096 5.01068 3.10908 5.01693 3.08721L5.0763 2.90283L4.92005 2.78721C4.9013 2.77158 4.91068 2.74033 4.93568 2.74033H5.12943L5.19193 2.55596C5.19506 2.53408 5.22943 2.53408 5.23568 2.55596Z" fill="white"/>
<path d="M5.23568 3.51533L5.29818 3.69971H5.49193C5.51693 3.69971 5.52631 3.73096 5.50756 3.74658L5.35131 3.86221L5.41068 4.04658C5.41693 4.07158 5.39193 4.09033 5.37006 4.07471L5.21381 3.96221L5.05756 4.07471C5.03568 4.09033 5.01068 4.06846 5.01693 4.04658L5.0763 3.86221L4.92005 3.74658C4.9013 3.73096 4.91068 3.69971 4.93568 3.69971H5.12943L5.19193 3.51533C5.19506 3.49033 5.22943 3.49033 5.23568 3.51533Z" fill="white"/>
<path d="M5.23568 4.4748L5.29818 4.65918H5.49193C5.51693 4.65918 5.52631 4.69043 5.50756 4.70605L5.35131 4.82168L5.41068 5.00605C5.41693 5.03105 5.39193 5.0498 5.37006 5.03418L5.21381 4.92168L5.05756 5.03418C5.03568 5.0498 5.01068 5.02793 5.01693 5.00605L5.0763 4.82168L4.92005 4.70605C4.9013 4.69043 4.91068 4.65918 4.93568 4.65918H5.12943L5.19193 4.4748C5.19506 4.4498 5.22943 4.4498 5.23568 4.4748Z" fill="white"/>
<path d="M5.97787 1.1125L6.04037 1.29688H6.23412C6.25912 1.29688 6.26849 1.32813 6.24974 1.34375L6.09349 1.45937L6.15287 1.64375C6.15912 1.66875 6.13412 1.6875 6.11224 1.67188L5.95599 1.55937L5.79974 1.67188C5.77787 1.6875 5.75287 1.66563 5.75912 1.64375L5.81849 1.45937L5.66224 1.34375C5.64349 1.32813 5.65287 1.29688 5.67787 1.29688H5.87162L5.93412 1.1125C5.93724 1.0875 5.97162 1.0875 5.97787 1.1125Z" fill="white"/>
<path d="M5.97787 2.06865L6.04037 2.25303H6.23412C6.25912 2.25303 6.26849 2.28428 6.24974 2.2999L6.09349 2.41553L6.15287 2.5999C6.15912 2.6249 6.13412 2.64365 6.11224 2.62803L5.95599 2.51553L5.79974 2.62803C5.77787 2.64365 5.75287 2.62178 5.75912 2.5999L5.81849 2.41553L5.66224 2.2999C5.64349 2.28428 5.65287 2.25303 5.67787 2.25303H5.87162L5.93412 2.06865C5.93724 2.04678 5.97162 2.04678 5.97787 2.06865Z" fill="white"/>
<path d="M5.97787 3.02803L6.04037 3.2124H6.23412C6.25912 3.2124 6.26849 3.24365 6.24974 3.25928L6.09349 3.3749L6.15287 3.55928C6.15912 3.58428 6.13412 3.60303 6.11224 3.5874L5.95599 3.4749L5.79974 3.5874C5.77787 3.60303 5.75287 3.58115 5.75912 3.55928L5.81849 3.3749L5.66224 3.25928C5.64349 3.24365 5.65287 3.2124 5.67787 3.2124H5.87162L5.93412 3.02803C5.93724 3.00303 5.97162 3.00303 5.97787 3.02803Z" fill="white"/>
<path d="M5.97787 3.98418L6.04037 4.16855H6.23412C6.25912 4.16855 6.26849 4.1998 6.24974 4.21543L6.09349 4.33105L6.15287 4.51543C6.15912 4.54043 6.13412 4.55918 6.11224 4.54355L5.95599 4.43105L5.79974 4.54355C5.77787 4.55918 5.75287 4.5373 5.75912 4.51543L5.81849 4.33105L5.66224 4.21543C5.64349 4.1998 5.65287 4.16855 5.67787 4.16855H5.87162L5.93412 3.98418C5.93724 3.9623 5.97162 3.9623 5.97787 3.98418Z" fill="white"/>
<path d="M6.72006 0.64043L6.78256 0.824805H6.97631C7.0013 0.824805 7.01068 0.856055 6.99193 0.87168L6.83568 0.987305L6.89505 1.17168C6.9013 1.19668 6.8763 1.21543 6.85443 1.1998L6.69818 1.0873L6.54193 1.1998C6.52005 1.21543 6.49506 1.19355 6.50131 1.17168L6.56068 0.987305L6.40443 0.87168C6.38568 0.856055 6.39505 0.824805 6.42005 0.824805H6.6138L6.6763 0.64043C6.67943 0.618555 6.71381 0.618555 6.72006 0.64043Z" fill="white"/>
<path d="M6.72006 1.5998L6.78256 1.78418H6.97631C7.0013 1.78418 7.01068 1.81543 6.99193 1.83105L6.83568 1.94668L6.89505 2.13105C6.9013 2.15605 6.8763 2.1748 6.85443 2.15918L6.69818 2.04668L6.54193 2.15918C6.52005 2.1748 6.49506 2.15293 6.50131 2.13105L6.56068 1.94668L6.40443 1.83105C6.38568 1.81543 6.39505 1.78418 6.42005 1.78418H6.6138L6.6763 1.5998C6.67943 1.5748 6.71381 1.5748 6.72006 1.5998Z" fill="white"/>
<path d="M6.72006 2.55596L6.78256 2.74033H6.97631C7.0013 2.74033 7.01068 2.77158 6.99193 2.78721L6.83568 2.90283L6.89505 3.08721C6.9013 3.11221 6.8763 3.13096 6.85443 3.11533L6.69818 3.00283L6.54193 3.11533C6.52005 3.13096 6.49506 3.10908 6.50131 3.08721L6.56068 2.90283L6.40443 2.78721C6.38568 2.77158 6.39505 2.74033 6.42005 2.74033H6.6138L6.6763 2.55596C6.67943 2.53408 6.71381 2.53408 6.72006 2.55596Z" fill="white"/>
<path d="M6.72006 3.51533L6.78256 3.69971H6.97631C7.0013 3.69971 7.01068 3.73096 6.99193 3.74658L6.83568 3.86221L6.89505 4.04658C6.9013 4.07158 6.8763 4.09033 6.85443 4.07471L6.69818 3.96221L6.54193 4.07471C6.52005 4.09033 6.49506 4.06846 6.50131 4.04658L6.56068 3.86221L6.40443 3.74658C6.38568 3.73096 6.39505 3.69971 6.42005 3.69971H6.6138L6.6763 3.51533C6.67943 3.49033 6.71381 3.49033 6.72006 3.51533Z" fill="white"/>
<path d="M6.72006 4.4748L6.78256 4.65918H6.97631C7.0013 4.65918 7.01068 4.69043 6.99193 4.70605L6.83568 4.82168L6.89505 5.00605C6.9013 5.03105 6.8763 5.0498 6.85443 5.03418L6.69818 4.92168L6.54193 5.03418C6.52005 5.0498 6.49506 5.02793 6.50131 5.00605L6.56068 4.82168L6.40443 4.70605C6.38568 4.69043 6.39505 4.65918 6.42005 4.65918H6.6138L6.6763 4.4748C6.67943 4.4498 6.71381 4.4498 6.72006 4.4748Z" fill="white"/>
<path d="M16 7.26855H0V8.0748H16V7.26855Z" fill="white"/>
</svg>
