<svg width="30" height="30" viewBox="0 0 30 30" fill="none" xmlns="http://www.w3.org/2000/svg">
<path d="M9.51773 23.4999C8.8944 23.4999 8.36669 23.2839 7.93461 22.8518C7.50252 22.4197 7.28648 21.892 7.28648 21.2687V18.6124H9.98523V6.49993L11.2602 7.77493L12.5352 6.49993L13.789 7.77493L15.064 6.49993L16.339 7.77493L17.614 6.49993L18.889 7.77493L20.164 6.49993L21.439 7.77493L22.714 6.49993V21.2687C22.714 21.892 22.4979 22.4197 22.0659 22.8518C21.6338 23.2839 21.1061 23.4999 20.4827 23.4999H9.51773ZM20.4827 22.2249C20.7661 22.2249 20.9963 22.1364 21.1734 21.9593C21.3504 21.7822 21.439 21.552 21.439 21.2687V8.62493H11.2602V18.6124H19.5265V21.2687C19.5265 21.552 19.615 21.7822 19.7921 21.9593C19.9692 22.1364 20.1994 22.2249 20.4827 22.2249ZM12.3865 11.9824V10.7074H17.4865V11.9824H12.3865ZM12.3865 14.8299V13.5549H17.4865V14.8299H12.3865ZM19.4627 11.9824C19.2927 11.9824 19.144 11.9187 19.0165 11.7912C18.889 11.6637 18.8252 11.5149 18.8252 11.3449C18.8252 11.1749 18.889 11.0262 19.0165 10.8987C19.144 10.7712 19.2927 10.7074 19.4627 10.7074C19.6327 10.7074 19.7815 10.7712 19.909 10.8987C20.0365 11.0262 20.1002 11.1749 20.1002 11.3449C20.1002 11.5149 20.0365 11.6637 19.909 11.7912C19.7815 11.9187 19.6327 11.9824 19.4627 11.9824ZM19.4627 14.7237C19.2927 14.7237 19.144 14.6599 19.0165 14.5324C18.889 14.4049 18.8252 14.2562 18.8252 14.0862C18.8252 13.9162 18.889 13.7674 19.0165 13.6399C19.144 13.5124 19.2927 13.4487 19.4627 13.4487C19.6327 13.4487 19.7815 13.5124 19.909 13.6399C20.0365 13.7674 20.1002 13.9162 20.1002 14.0862C20.1002 14.2562 20.0365 14.4049 19.909 14.5324C19.7815 14.6599 19.6327 14.7237 19.4627 14.7237ZM9.49648 22.2249H18.2515V19.8874H8.56148V21.2687C8.56148 21.552 8.65002 21.7822 8.82711 21.9593C9.00419 22.1364 9.22731 22.2249 9.49648 22.2249ZM8.56148 22.2249V19.8874V22.2249Z" fill="#8F97B1"/>
</svg>
