<svg width="19" height="19" viewBox="0 0 19 19" fill="none" xmlns="http://www.w3.org/2000/svg">
<path d="M14.566 15.8132C15.2125 15.8132 15.7634 15.5856 16.2186 15.1304C16.6738 14.6751 16.9014 14.1243 16.9014 13.4777H18.2076V4.35372C18.2076 4.03705 18.0889 3.75997 17.8514 3.52247C17.6139 3.28497 17.3368 3.16622 17.0201 3.16622H5.56069V6.47145H3.48255L0.790867 10.0538V13.4777H2.19608C2.19608 14.1243 2.42369 14.6751 2.8789 15.1304C3.33411 15.5856 3.88498 15.8132 4.53152 15.8132C5.17805 15.8132 5.72892 15.5856 6.18413 15.1304C6.63934 14.6751 6.86695 14.1243 6.86695 13.4777H12.2305C12.2305 14.1243 12.4581 14.6751 12.9133 15.1304C13.3686 15.5856 13.9194 15.8132 14.566 15.8132ZM14.566 14.6257C14.2493 14.6257 13.9788 14.5135 13.7545 14.2892C13.5302 14.0649 13.418 13.7944 13.418 13.4777C13.418 13.1611 13.5302 12.8906 13.7545 12.6663C13.9788 12.442 14.2493 12.3298 14.566 12.3298C14.8826 12.3298 15.1531 12.442 15.3774 12.6663C15.6017 12.8906 15.7139 13.1611 15.7139 13.4777C15.7139 13.7944 15.6017 14.0649 15.3774 14.2892C15.1531 14.5135 14.8826 14.6257 14.566 14.6257ZM17.0201 12.2902H16.5847C16.3604 11.934 16.0767 11.6503 15.7337 11.4392C15.3906 11.2281 15.008 11.1225 14.5857 11.1225C14.1635 11.1225 13.7776 11.2314 13.4279 11.4491C13.0783 11.6668 12.7913 11.9472 12.567 12.2902H6.7482V4.35372H17.0201V12.2902ZM4.53152 14.6257C4.21485 14.6257 3.94436 14.5135 3.72005 14.2892C3.49575 14.0649 3.38359 13.7944 3.38359 13.4777C3.38359 13.1611 3.49575 12.8906 3.72005 12.6663C3.94436 12.442 4.21485 12.3298 4.53152 12.3298C4.84819 12.3298 5.11867 12.442 5.34298 12.6663C5.56729 12.8906 5.67944 13.1611 5.67944 13.4777C5.67944 13.7944 5.56729 14.0649 5.34298 14.2892C5.11867 14.5135 4.84819 14.6257 4.53152 14.6257ZM5.56069 10.5881H1.87941L4.0763 7.65895H5.56069V10.5881Z" fill="#2C30B6"/>
</svg>
