<svg width="16" height="16" viewBox="0 0 16 16" fill="none" xmlns="http://www.w3.org/2000/svg">
<path d="M8.00001 7.71667C8.2889 7.71667 8.53612 7.61389 8.74168 7.40833C8.94723 7.20278 9.05001 6.95556 9.05001 6.66667C9.05001 6.37778 8.94723 6.13056 8.74168 5.925C8.53612 5.71944 8.2889 5.61667 8.00001 5.61667C7.71112 5.61667 7.4639 5.71944 7.25834 5.925C7.05279 6.13056 6.95001 6.37778 6.95001 6.66667C6.95001 6.95556 7.05279 7.20278 7.25834 7.40833C7.4639 7.61389 7.71112 7.71667 8.00001 7.71667ZM8.00001 13.5333C9.45557 12.2333 10.5556 10.9972 11.3 9.825C12.0445 8.65278 12.4167 7.64444 12.4167 6.8C12.4167 5.46667 11.9917 4.375 11.1417 3.525C10.2917 2.675 9.24445 2.25 8.00001 2.25C6.75557 2.25 5.70834 2.675 4.85834 3.525C4.00834 4.375 3.58334 5.46667 3.58334 6.8C3.58334 7.64444 3.96112 8.65278 4.71668 9.825C5.47223 10.9972 6.56668 12.2333 8.00001 13.5333ZM8.00001 14.5333C6.26668 13.0222 4.97223 11.6222 4.11668 10.3333C3.26112 9.04444 2.83334 7.86667 2.83334 6.8C2.83334 5.18889 3.35279 3.90278 4.39168 2.94167C5.43057 1.98056 6.63334 1.5 8.00001 1.5C9.36668 1.5 10.5695 1.98056 11.6083 2.94167C12.6472 3.90278 13.1667 5.18889 13.1667 6.8C13.1667 7.86667 12.7389 9.04444 11.8833 10.3333C11.0278 11.6222 9.73334 13.0222 8.00001 14.5333Z" fill="#4247C7"/>
</svg>
