<svg width="9" height="12" viewBox="0 0 9 12" fill="none" xmlns="http://www.w3.org/2000/svg">
<path d="M4.04615 8.98462C5.14359 8.10256 5.97436 7.25641 6.53846 6.44615C7.10256 5.6359 7.38461 4.86667 7.38461 4.13846C7.38461 3.51282 7.27179 2.98205 7.04615 2.54615C6.82051 2.11026 6.53846 1.75385 6.2 1.47692C5.86154 1.2 5.49744 1 5.10769 0.876923C4.71795 0.753846 4.3641 0.692308 4.04615 0.692308C3.72821 0.692308 3.37436 0.753846 2.98462 0.876923C2.59487 1 2.23077 1.2 1.89231 1.47692C1.55385 1.75385 1.27179 2.11026 1.04615 2.54615C0.820513 2.98205 0.707692 3.51282 0.707692 4.13846C0.707692 4.86667 0.989743 5.6359 1.55385 6.44615C2.11795 7.25641 2.94872 8.10256 4.04615 8.98462ZM4.04615 9.86154C2.68205 8.8359 1.66667 7.85128 1 6.90769C0.333333 5.9641 0 5.04103 0 4.13846C0 3.45128 0.123077 2.85128 0.369231 2.33846C0.615385 1.82564 0.930769 1.39487 1.31538 1.04615C1.7 0.697436 2.13333 0.435897 2.61538 0.261538C3.09744 0.0871795 3.57436 0 4.04615 0C4.51795 0 4.99487 0.0871795 5.47692 0.261538C5.95897 0.435897 6.39231 0.697436 6.77692 1.04615C7.16154 1.39487 7.47692 1.82564 7.72308 2.33846C7.96923 2.85128 8.09231 3.45128 8.09231 4.13846C8.09231 5.04103 7.75898 5.9641 7.09231 6.90769C6.42564 7.85128 5.41026 8.8359 4.04615 9.86154ZM4.04615 5C4.31282 5 4.54103 4.90513 4.73077 4.71538C4.92051 4.52564 5.01538 4.29744 5.01538 4.03077C5.01538 3.7641 4.92051 3.53846 4.73077 3.35385C4.54103 3.16923 4.31282 3.07692 4.04615 3.07692C3.77949 3.07692 3.55128 3.1718 3.36154 3.36154C3.17179 3.55128 3.07692 3.77949 3.07692 4.04615C3.07692 4.31282 3.17179 4.53846 3.36154 4.72308C3.55128 4.90769 3.77949 5 4.04615 5ZM0 12V11.3077H8.09231V12H0Z" fill="#767676"/>
</svg>
