<svg width="17" height="17" viewBox="0 0 17 17" fill="none" xmlns="http://www.w3.org/2000/svg">
<g clip-path="url(#clip0_600_53877)">
<path d="M15.9797 10.8281H-0.0202637V11.6344H15.9797V10.8281Z" fill="#B22234"/>
<path d="M7.42661 2.75V3.15313V3.55625H15.9797V2.75H7.42661Z" fill="#B22234"/>
<path d="M15.9797 3.55627H7.42661V4.36252H15.9797V3.55627Z" fill="white"/>
<path d="M15.9797 4.3656H7.42661V5.17185H15.9797V4.3656Z" fill="#B22234"/>
<path d="M15.9797 5.17188H7.42661V5.97813H15.9797V5.17188Z" fill="white"/>
<path d="M15.9797 5.9812H7.42661V6.78745H15.9797V5.9812Z" fill="#B22234"/>
<path d="M15.9797 6.78748H7.42661V7.59373H15.9797V6.78748Z" fill="white"/>
<path d="M15.9797 7.59692H7.42661V8.40317H15.9797V7.59692Z" fill="#B22234"/>
<path d="M15.9797 8.40308H-0.0202637V9.20933H15.9797V8.40308Z" fill="white"/>
<path d="M15.9797 9.21252H-0.0202637V10.0188H15.9797V9.21252Z" fill="#B22234"/>
<path d="M15.9797 11.6344H-0.0202637V12.4406H15.9797V11.6344Z" fill="white"/>
<path d="M15.9797 12.4437H-0.0202637V13.25H15.9797V12.4437Z" fill="#B22234"/>
<path d="M-0.0202637 2.75V3.15313V3.55625V8.40312H7.42661V3.55625V3.15313V2.75H-0.0202637Z" fill="#3C3B6E"/>
<path d="M0.754738 3.39067L0.817238 3.57505H1.01099C1.03599 3.57505 1.04536 3.6063 1.02661 3.62192L0.870363 3.73755L0.929738 3.92192C0.935988 3.94692 0.910988 3.96567 0.889113 3.95005L0.732863 3.83755L0.576613 3.95005C0.554738 3.96567 0.529738 3.9438 0.535988 3.92192L0.595363 3.73755L0.439113 3.62192C0.420363 3.6063 0.429738 3.57505 0.454738 3.57505H0.648488L0.710988 3.39067C0.714113 3.3688 0.745363 3.3688 0.754738 3.39067Z" fill="white"/>
<path d="M0.754738 4.35005L0.817238 4.53442H1.01099C1.03599 4.53442 1.04536 4.56567 1.02661 4.5813L0.870363 4.69692L0.929738 4.8813C0.935988 4.9063 0.910988 4.92505 0.889113 4.90942L0.732863 4.79692L0.576613 4.90942C0.554738 4.92505 0.529738 4.90317 0.535988 4.8813L0.595363 4.69692L0.439113 4.5813C0.420363 4.56567 0.429738 4.53442 0.454738 4.53442H0.648488L0.710988 4.35005C0.714113 4.32505 0.745363 4.32505 0.754738 4.35005Z" fill="white"/>
<path d="M0.754738 5.30632L0.817238 5.4907H1.01099C1.03599 5.4907 1.04536 5.52195 1.02661 5.53757L0.870363 5.6532L0.929738 5.83757C0.935988 5.86257 0.910988 5.88132 0.889113 5.8657L0.732863 5.7532L0.576613 5.8657C0.554738 5.88132 0.529738 5.85945 0.535988 5.83757L0.595363 5.6532L0.439113 5.53757C0.420363 5.52195 0.429738 5.4907 0.454738 5.4907H0.648488L0.710988 5.30632C0.714113 5.28445 0.745363 5.28445 0.754738 5.30632Z" fill="white"/>
<path d="M0.754738 6.2657L0.817238 6.45007H1.01099C1.03599 6.45007 1.04536 6.48132 1.02661 6.49695L0.870363 6.61257L0.929738 6.79695C0.935988 6.82195 0.910988 6.8407 0.889113 6.82507L0.732863 6.71257L0.576613 6.82507C0.554738 6.8407 0.529738 6.81882 0.535988 6.79695L0.595363 6.61257L0.439113 6.49695C0.420363 6.48132 0.429738 6.45007 0.454738 6.45007H0.648488L0.710988 6.2657C0.714113 6.2407 0.745363 6.2407 0.754738 6.2657Z" fill="white"/>
<path d="M0.754738 7.22505L0.817238 7.40942H1.01099C1.03599 7.40942 1.04536 7.44067 1.02661 7.4563L0.870363 7.57192L0.929738 7.7563C0.935988 7.7813 0.910988 7.80005 0.889113 7.78442L0.732863 7.67192L0.576613 7.78442C0.554738 7.80005 0.529738 7.77817 0.535988 7.7563L0.595363 7.57192L0.439113 7.4563C0.420363 7.44067 0.429738 7.40942 0.454738 7.40942H0.648488L0.710988 7.22505C0.714113 7.20005 0.745363 7.20005 0.754738 7.22505Z" fill="white"/>
<path d="M1.49848 3.8625L1.56098 4.04688H1.75473C1.77973 4.04688 1.78911 4.07813 1.77036 4.09375L1.61411 4.20937L1.67348 4.39375C1.67973 4.41875 1.65473 4.4375 1.63286 4.42188L1.47661 4.30937L1.32036 4.42188C1.29848 4.4375 1.27348 4.41563 1.27973 4.39375L1.33911 4.20937L1.18286 4.09375C1.16411 4.07813 1.17348 4.04688 1.19848 4.04688H1.39223L1.45473 3.8625C1.45786 3.8375 1.48911 3.8375 1.49848 3.8625Z" fill="white"/>
<path d="M1.49848 4.81877L1.56098 5.00315H1.75473C1.77973 5.00315 1.78911 5.0344 1.77036 5.05002L1.61411 5.16565L1.67348 5.35002C1.67973 5.37502 1.65473 5.39377 1.63286 5.37815L1.47661 5.26565L1.32036 5.37815C1.29848 5.39377 1.27348 5.3719 1.27973 5.35002L1.33911 5.16565L1.18286 5.05002C1.16411 5.0344 1.17348 5.00315 1.19848 5.00315H1.39223L1.45473 4.81877C1.45786 4.7969 1.48911 4.7969 1.49848 4.81877Z" fill="white"/>
<path d="M1.49848 5.77815L1.56098 5.96252H1.75473C1.77973 5.96252 1.78911 5.99377 1.77036 6.0094L1.61411 6.12502L1.67348 6.3094C1.67973 6.3344 1.65473 6.35315 1.63286 6.33752L1.47661 6.22502L1.32036 6.33752C1.29848 6.35315 1.27348 6.33127 1.27973 6.3094L1.33911 6.12502L1.18286 6.0094C1.16411 5.99377 1.17348 5.96252 1.19848 5.96252H1.39223L1.45473 5.77815C1.45786 5.75315 1.48911 5.75315 1.49848 5.77815Z" fill="white"/>
<path d="M1.49848 6.73442L1.56098 6.9188H1.75473C1.77973 6.9188 1.78911 6.95005 1.77036 6.96567L1.61411 7.0813L1.67348 7.26567C1.67973 7.29067 1.65473 7.30942 1.63286 7.2938L1.47661 7.1813L1.32036 7.2938C1.29848 7.30942 1.27348 7.28755 1.27973 7.26567L1.33911 7.0813L1.18286 6.96567C1.16411 6.95005 1.17348 6.9188 1.19848 6.9188H1.39223L1.45473 6.73442C1.45786 6.71255 1.48911 6.71255 1.49848 6.73442Z" fill="white"/>
<path d="M2.24224 3.39067L2.30474 3.57505H2.49849C2.52349 3.57505 2.53287 3.6063 2.51412 3.62192L2.35787 3.73755L2.41724 3.92192C2.42349 3.94692 2.39849 3.96567 2.37662 3.95005L2.22037 3.83755L2.06412 3.95005C2.04224 3.96567 2.01724 3.9438 2.02349 3.92192L2.08287 3.73755L1.92662 3.62192C1.90787 3.6063 1.91724 3.57505 1.94224 3.57505H2.13599L2.19849 3.39067C2.19849 3.3688 2.23287 3.3688 2.24224 3.39067Z" fill="white"/>
<path d="M2.24224 4.35005L2.30474 4.53442H2.49849C2.52349 4.53442 2.53287 4.56567 2.51412 4.5813L2.35787 4.69692L2.41724 4.8813C2.42349 4.9063 2.39849 4.92505 2.37662 4.90942L2.22037 4.79692L2.06412 4.90942C2.04224 4.92505 2.01724 4.90317 2.02349 4.8813L2.08287 4.69692L1.92662 4.5813C1.90787 4.56567 1.91724 4.53442 1.94224 4.53442H2.13599L2.19849 4.35005C2.19849 4.32505 2.23287 4.32505 2.24224 4.35005Z" fill="white"/>
<path d="M2.24224 5.30632L2.30474 5.4907H2.49849C2.52349 5.4907 2.53287 5.52195 2.51412 5.53757L2.35787 5.6532L2.41724 5.83757C2.42349 5.86257 2.39849 5.88132 2.37662 5.8657L2.22037 5.7532L2.06412 5.8657C2.04224 5.88132 2.01724 5.85945 2.02349 5.83757L2.08287 5.6532L1.92662 5.53757C1.90787 5.52195 1.91724 5.4907 1.94224 5.4907H2.13599L2.19849 5.30632C2.19849 5.28445 2.23287 5.28445 2.24224 5.30632Z" fill="white"/>
<path d="M2.24224 6.2657L2.30474 6.45007H2.49849C2.52349 6.45007 2.53287 6.48132 2.51412 6.49695L2.35787 6.61257L2.41724 6.79695C2.42349 6.82195 2.39849 6.8407 2.37662 6.82507L2.22037 6.71257L2.06412 6.82507C2.04224 6.8407 2.01724 6.81882 2.02349 6.79695L2.08287 6.61257L1.92662 6.49695C1.90787 6.48132 1.91724 6.45007 1.94224 6.45007H2.13599L2.19849 6.2657C2.19849 6.2407 2.23287 6.2407 2.24224 6.2657Z" fill="white"/>
<path d="M2.24224 7.22505L2.30474 7.40942H2.49849C2.52349 7.40942 2.53287 7.44067 2.51412 7.4563L2.35787 7.57192L2.41724 7.7563C2.42349 7.7813 2.39849 7.80005 2.37662 7.78442L2.22037 7.67192L2.06412 7.78442C2.04224 7.80005 2.01724 7.77817 2.02349 7.7563L2.08287 7.57192L1.92662 7.4563C1.90787 7.44067 1.91724 7.40942 1.94224 7.40942H2.13599L2.19849 7.22505C2.19849 7.20005 2.23287 7.20005 2.24224 7.22505Z" fill="white"/>
<path d="M2.98599 3.8625L3.04849 4.04688H3.24224C3.26724 4.04688 3.27661 4.07813 3.25786 4.09375L3.10161 4.20937L3.16099 4.39375C3.16724 4.41875 3.14224 4.4375 3.12036 4.42188L2.96411 4.30937L2.80786 4.42188C2.78599 4.4375 2.76099 4.41563 2.76724 4.39375L2.82661 4.20937L2.67036 4.09375C2.65161 4.07813 2.66099 4.04688 2.68599 4.04688H2.87974L2.94224 3.8625C2.94224 3.8375 2.97661 3.8375 2.98599 3.8625Z" fill="white"/>
<path d="M2.98599 4.81877L3.04849 5.00315H3.24224C3.26724 5.00315 3.27661 5.0344 3.25786 5.05002L3.10161 5.16565L3.16099 5.35002C3.16724 5.37502 3.14224 5.39377 3.12036 5.37815L2.96411 5.26565L2.80786 5.37815C2.78599 5.39377 2.76099 5.3719 2.76724 5.35002L2.82661 5.16565L2.67036 5.05002C2.65161 5.0344 2.66099 5.00315 2.68599 5.00315H2.87974L2.94224 4.81877C2.94224 4.7969 2.97661 4.7969 2.98599 4.81877Z" fill="white"/>
<path d="M2.98599 5.77815L3.04849 5.96252H3.24224C3.26724 5.96252 3.27661 5.99377 3.25786 6.0094L3.10161 6.12502L3.16099 6.3094C3.16724 6.3344 3.14224 6.35315 3.12036 6.33752L2.96411 6.22502L2.80786 6.33752C2.78599 6.35315 2.76099 6.33127 2.76724 6.3094L2.82661 6.12502L2.67036 6.0094C2.65161 5.99377 2.66099 5.96252 2.68599 5.96252H2.87974L2.94224 5.77815C2.94224 5.75315 2.97661 5.75315 2.98599 5.77815Z" fill="white"/>
<path d="M2.98599 6.73442L3.04849 6.9188H3.24224C3.26724 6.9188 3.27661 6.95005 3.25786 6.96567L3.10161 7.0813L3.16099 7.26567C3.16724 7.29067 3.14224 7.30942 3.12036 7.2938L2.96411 7.1813L2.80786 7.2938C2.78599 7.30942 2.76099 7.28755 2.76724 7.26567L2.82661 7.0813L2.67036 6.96567C2.65161 6.95005 2.66099 6.9188 2.68599 6.9188H2.87974L2.94224 6.73442C2.94224 6.71255 2.97661 6.71255 2.98599 6.73442Z" fill="white"/>
<path d="M3.72974 3.39067L3.79224 3.57505H3.98599C4.01099 3.57505 4.02037 3.6063 4.00162 3.62192L3.84537 3.73755L3.90474 3.92192C3.91099 3.94692 3.88599 3.96567 3.86412 3.95005L3.70787 3.83755L3.55162 3.95005C3.52974 3.96567 3.50474 3.9438 3.51099 3.92192L3.57037 3.73755L3.41412 3.62192C3.39537 3.6063 3.40474 3.57505 3.42974 3.57505H3.62349L3.68599 3.39067C3.68599 3.3688 3.72037 3.3688 3.72974 3.39067Z" fill="white"/>
<path d="M3.72974 4.35005L3.79224 4.53442H3.98599C4.01099 4.53442 4.02037 4.56567 4.00162 4.5813L3.84537 4.69692L3.90474 4.8813C3.91099 4.9063 3.88599 4.92505 3.86412 4.90942L3.70787 4.79692L3.55162 4.90942C3.52974 4.92505 3.50474 4.90317 3.51099 4.8813L3.57037 4.69692L3.41412 4.5813C3.39537 4.56567 3.40474 4.53442 3.42974 4.53442H3.62349L3.68599 4.35005C3.68599 4.32505 3.72037 4.32505 3.72974 4.35005Z" fill="white"/>
<path d="M3.72974 5.30632L3.79224 5.4907H3.98599C4.01099 5.4907 4.02037 5.52195 4.00162 5.53757L3.84537 5.6532L3.90474 5.83757C3.91099 5.86257 3.88599 5.88132 3.86412 5.8657L3.70787 5.7532L3.55162 5.8657C3.52974 5.88132 3.50474 5.85945 3.51099 5.83757L3.57037 5.6532L3.41412 5.53757C3.39537 5.52195 3.40474 5.4907 3.42974 5.4907H3.62349L3.68599 5.30632C3.68599 5.28445 3.72037 5.28445 3.72974 5.30632Z" fill="white"/>
<path d="M3.72974 6.2657L3.79224 6.45007H3.98599C4.01099 6.45007 4.02037 6.48132 4.00162 6.49695L3.84537 6.61257L3.90474 6.79695C3.91099 6.82195 3.88599 6.8407 3.86412 6.82507L3.70787 6.71257L3.55162 6.82507C3.52974 6.8407 3.50474 6.81882 3.51099 6.79695L3.57037 6.61257L3.41412 6.49695C3.39537 6.48132 3.40474 6.45007 3.42974 6.45007H3.62349L3.68599 6.2657C3.68599 6.2407 3.72037 6.2407 3.72974 6.2657Z" fill="white"/>
<path d="M3.72974 7.22505L3.79224 7.40942H3.98599C4.01099 7.40942 4.02037 7.44067 4.00162 7.4563L3.84537 7.57192L3.90474 7.7563C3.91099 7.7813 3.88599 7.80005 3.86412 7.78442L3.70787 7.67192L3.55162 7.78442C3.52974 7.80005 3.50474 7.77817 3.51099 7.7563L3.57037 7.57192L3.41412 7.4563C3.39537 7.44067 3.40474 7.40942 3.42974 7.40942H3.62349L3.68599 7.22505C3.68599 7.20005 3.72037 7.20005 3.72974 7.22505Z" fill="white"/>
<path d="M4.47349 3.8625L4.53599 4.04688H4.72974C4.75474 4.04688 4.76411 4.07813 4.74536 4.09375L4.58911 4.20937L4.64849 4.39375C4.65474 4.41875 4.62974 4.4375 4.60786 4.42188L4.45161 4.30937L4.29536 4.42188C4.27349 4.4375 4.24849 4.41563 4.25474 4.39375L4.31411 4.20937L4.15786 4.09375C4.13911 4.07813 4.14849 4.04688 4.17349 4.04688H4.36724L4.42974 3.8625C4.42974 3.8375 4.46411 3.8375 4.47349 3.8625Z" fill="white"/>
<path d="M4.47349 4.81877L4.53599 5.00315H4.72974C4.75474 5.00315 4.76411 5.0344 4.74536 5.05002L4.58911 5.16565L4.64849 5.35002C4.65474 5.37502 4.62974 5.39377 4.60786 5.37815L4.45161 5.26565L4.29536 5.37815C4.27349 5.39377 4.24849 5.3719 4.25474 5.35002L4.31411 5.16565L4.15786 5.05002C4.13911 5.0344 4.14849 5.00315 4.17349 5.00315H4.36724L4.42974 4.81877C4.42974 4.7969 4.46411 4.7969 4.47349 4.81877Z" fill="white"/>
<path d="M4.47349 5.77815L4.53599 5.96252H4.72974C4.75474 5.96252 4.76411 5.99377 4.74536 6.0094L4.58911 6.12502L4.64849 6.3094C4.65474 6.3344 4.62974 6.35315 4.60786 6.33752L4.45161 6.22502L4.29536 6.33752C4.27349 6.35315 4.24849 6.33127 4.25474 6.3094L4.31411 6.12502L4.15786 6.0094C4.13911 5.99377 4.14849 5.96252 4.17349 5.96252H4.36724L4.42974 5.77815C4.42974 5.75315 4.46411 5.75315 4.47349 5.77815Z" fill="white"/>
<path d="M4.47349 6.73442L4.53599 6.9188H4.72974C4.75474 6.9188 4.76411 6.95005 4.74536 6.96567L4.58911 7.0813L4.64849 7.26567C4.65474 7.29067 4.62974 7.30942 4.60786 7.2938L4.45161 7.1813L4.29536 7.2938C4.27349 7.30942 4.24849 7.28755 4.25474 7.26567L4.31411 7.0813L4.15786 6.96567C4.13911 6.95005 4.14849 6.9188 4.17349 6.9188H4.36724L4.42974 6.73442C4.42974 6.71255 4.46411 6.71255 4.47349 6.73442Z" fill="white"/>
<path d="M5.21412 3.39067L5.27662 3.57505H5.47037C5.49537 3.57505 5.50474 3.6063 5.48599 3.62192L5.32974 3.73755L5.38912 3.92192C5.39537 3.94692 5.37037 3.96567 5.34849 3.95005L5.19224 3.83755L5.03599 3.95005C5.01412 3.96567 4.98912 3.9438 4.99537 3.92192L5.05474 3.73755L4.89849 3.62192C4.87974 3.6063 4.88912 3.57505 4.91412 3.57505H5.10787L5.17037 3.39067C5.17349 3.3688 5.20787 3.3688 5.21412 3.39067Z" fill="white"/>
<path d="M5.21412 4.35005L5.27662 4.53442H5.47037C5.49537 4.53442 5.50474 4.56567 5.48599 4.5813L5.32974 4.69692L5.38912 4.8813C5.39537 4.9063 5.37037 4.92505 5.34849 4.90942L5.19224 4.79692L5.03599 4.90942C5.01412 4.92505 4.98912 4.90317 4.99537 4.8813L5.05474 4.69692L4.89849 4.5813C4.87974 4.56567 4.88912 4.53442 4.91412 4.53442H5.10787L5.17037 4.35005C5.17349 4.32505 5.20787 4.32505 5.21412 4.35005Z" fill="white"/>
<path d="M5.21412 5.30632L5.27662 5.4907H5.47037C5.49537 5.4907 5.50474 5.52195 5.48599 5.53757L5.32974 5.6532L5.38912 5.83757C5.39537 5.86257 5.37037 5.88132 5.34849 5.8657L5.19224 5.7532L5.03599 5.8657C5.01412 5.88132 4.98912 5.85945 4.99537 5.83757L5.05474 5.6532L4.89849 5.53757C4.87974 5.52195 4.88912 5.4907 4.91412 5.4907H5.10787L5.17037 5.30632C5.17349 5.28445 5.20787 5.28445 5.21412 5.30632Z" fill="white"/>
<path d="M5.21412 6.2657L5.27662 6.45007H5.47037C5.49537 6.45007 5.50474 6.48132 5.48599 6.49695L5.32974 6.61257L5.38912 6.79695C5.39537 6.82195 5.37037 6.8407 5.34849 6.82507L5.19224 6.71257L5.03599 6.82507C5.01412 6.8407 4.98912 6.81882 4.99537 6.79695L5.05474 6.61257L4.89849 6.49695C4.87974 6.48132 4.88912 6.45007 4.91412 6.45007H5.10787L5.17037 6.2657C5.17349 6.2407 5.20787 6.2407 5.21412 6.2657Z" fill="white"/>
<path d="M5.21412 7.22505L5.27662 7.40942H5.47037C5.49537 7.40942 5.50474 7.44067 5.48599 7.4563L5.32974 7.57192L5.38912 7.7563C5.39537 7.7813 5.37037 7.80005 5.34849 7.78442L5.19224 7.67192L5.03599 7.78442C5.01412 7.80005 4.98912 7.77817 4.99537 7.7563L5.05474 7.57192L4.89849 7.4563C4.87974 7.44067 4.88912 7.40942 4.91412 7.40942H5.10787L5.17037 7.22505C5.17349 7.20005 5.20787 7.20005 5.21412 7.22505Z" fill="white"/>
<path d="M5.95786 3.8625L6.02036 4.04688H6.21411C6.23911 4.04688 6.24849 4.07813 6.22974 4.09375L6.07349 4.20937L6.13286 4.39375C6.13911 4.41875 6.11411 4.4375 6.09224 4.42188L5.93599 4.30937L5.77974 4.42188C5.75786 4.4375 5.73286 4.41563 5.73911 4.39375L5.79849 4.20937L5.64224 4.09375C5.62349 4.07813 5.63286 4.04688 5.65786 4.04688H5.85161L5.91411 3.8625C5.91724 3.8375 5.95161 3.8375 5.95786 3.8625Z" fill="white"/>
<path d="M5.95786 4.81877L6.02036 5.00315H6.21411C6.23911 5.00315 6.24849 5.0344 6.22974 5.05002L6.07349 5.16565L6.13286 5.35002C6.13911 5.37502 6.11411 5.39377 6.09224 5.37815L5.93599 5.26565L5.77974 5.37815C5.75786 5.39377 5.73286 5.3719 5.73911 5.35002L5.79849 5.16565L5.64224 5.05002C5.62349 5.0344 5.63286 5.00315 5.65786 5.00315H5.85161L5.91411 4.81877C5.91724 4.7969 5.95161 4.7969 5.95786 4.81877Z" fill="white"/>
<path d="M5.95786 5.77815L6.02036 5.96252H6.21411C6.23911 5.96252 6.24849 5.99377 6.22974 6.0094L6.07349 6.12502L6.13286 6.3094C6.13911 6.3344 6.11411 6.35315 6.09224 6.33752L5.93599 6.22502L5.77974 6.33752C5.75786 6.35315 5.73286 6.33127 5.73911 6.3094L5.79849 6.12502L5.64224 6.0094C5.62349 5.99377 5.63286 5.96252 5.65786 5.96252H5.85161L5.91411 5.77815C5.91724 5.75315 5.95161 5.75315 5.95786 5.77815Z" fill="white"/>
<path d="M5.95786 6.73442L6.02036 6.9188H6.21411C6.23911 6.9188 6.24849 6.95005 6.22974 6.96567L6.07349 7.0813L6.13286 7.26567C6.13911 7.29067 6.11411 7.30942 6.09224 7.2938L5.93599 7.1813L5.77974 7.2938C5.75786 7.30942 5.73286 7.28755 5.73911 7.26567L5.79849 7.0813L5.64224 6.96567C5.62349 6.95005 5.63286 6.9188 5.65786 6.9188H5.85161L5.91411 6.73442C5.91724 6.71255 5.95161 6.71255 5.95786 6.73442Z" fill="white"/>
<path d="M6.70161 3.39067L6.76411 3.57505H6.95786C6.98286 3.57505 6.99223 3.6063 6.97348 3.62192L6.81723 3.73755L6.87661 3.92192C6.88286 3.94692 6.85786 3.96567 6.83598 3.95005L6.67973 3.83755L6.52348 3.95005C6.50161 3.96567 6.47661 3.9438 6.48286 3.92192L6.54223 3.73755L6.38598 3.62192C6.36723 3.6063 6.37661 3.57505 6.40161 3.57505H6.59536L6.65786 3.39067C6.66098 3.3688 6.69536 3.3688 6.70161 3.39067Z" fill="white"/>
<path d="M6.70161 4.35005L6.76411 4.53442H6.95786C6.98286 4.53442 6.99223 4.56567 6.97348 4.5813L6.81723 4.69692L6.87661 4.8813C6.88286 4.9063 6.85786 4.92505 6.83598 4.90942L6.67973 4.79692L6.52348 4.90942C6.50161 4.92505 6.47661 4.90317 6.48286 4.8813L6.54223 4.69692L6.38598 4.5813C6.36723 4.56567 6.37661 4.53442 6.40161 4.53442H6.59536L6.65786 4.35005C6.66098 4.32505 6.69536 4.32505 6.70161 4.35005Z" fill="white"/>
<path d="M6.70161 5.30632L6.76411 5.4907H6.95786C6.98286 5.4907 6.99223 5.52195 6.97348 5.53757L6.81723 5.6532L6.87661 5.83757C6.88286 5.86257 6.85786 5.88132 6.83598 5.8657L6.67973 5.7532L6.52348 5.8657C6.50161 5.88132 6.47661 5.85945 6.48286 5.83757L6.54223 5.6532L6.38598 5.53757C6.36723 5.52195 6.37661 5.4907 6.40161 5.4907H6.59536L6.65786 5.30632C6.66098 5.28445 6.69536 5.28445 6.70161 5.30632Z" fill="white"/>
<path d="M6.70161 6.2657L6.76411 6.45007H6.95786C6.98286 6.45007 6.99223 6.48132 6.97348 6.49695L6.81723 6.61257L6.87661 6.79695C6.88286 6.82195 6.85786 6.8407 6.83598 6.82507L6.67973 6.71257L6.52348 6.82507C6.50161 6.8407 6.47661 6.81882 6.48286 6.79695L6.54223 6.61257L6.38598 6.49695C6.36723 6.48132 6.37661 6.45007 6.40161 6.45007H6.59536L6.65786 6.2657C6.66098 6.2407 6.69536 6.2407 6.70161 6.2657Z" fill="white"/>
<path d="M6.70161 7.22505L6.76411 7.40942H6.95786C6.98286 7.40942 6.99223 7.44067 6.97348 7.4563L6.81723 7.57192L6.87661 7.7563C6.88286 7.7813 6.85786 7.80005 6.83598 7.78442L6.67973 7.67192L6.52348 7.78442C6.50161 7.80005 6.47661 7.77817 6.48286 7.7563L6.54223 7.57192L6.38598 7.4563C6.36723 7.44067 6.37661 7.40942 6.40161 7.40942H6.59536L6.65786 7.22505C6.66098 7.20005 6.69536 7.20005 6.70161 7.22505Z" fill="white"/>
<path d="M15.9797 10.0188H-0.0202637V10.825H15.9797V10.0188Z" fill="white"/>
</g>
<defs>
<clipPath id="clip0_600_53877">
<rect width="17" height="17" fill="white"/>
</clipPath>
</defs>
</svg>
