<svg width="20" height="20" viewBox="0 0 20 20" fill="none" xmlns="http://www.w3.org/2000/svg">
<path d="M9.9215 10.4239C8.54002 10.4239 7.40973 9.97383 6.53061 9.07378C5.65149 8.17373 5.21193 7.05389 5.21193 5.71428H4.89796C4.7305 5.71428 4.58398 5.65149 4.4584 5.5259C4.33281 5.40031 4.27001 5.25379 4.27001 5.08634C4.27001 4.91889 4.33281 4.77237 4.4584 4.64678C4.58398 4.52119 4.7305 4.4584 4.89796 4.4584H5.21193C5.21193 3.62114 5.42124 2.86761 5.83987 2.1978C6.2585 1.52799 6.80272 0.983778 7.47252 0.565149V1.78964C7.47252 1.91523 7.51962 2.02512 7.61381 2.11931C7.708 2.2135 7.81789 2.26059 7.94348 2.26059C8.09 2.26059 8.20512 2.2135 8.28885 2.11931C8.37257 2.02512 8.41444 1.91523 8.41444 1.78964V0.156986C8.58189 0.115123 8.81213 0.0784934 9.10517 0.0470962C9.39821 0.0156991 9.68079 0 9.9529 0C10.225 0 10.5076 0.0156991 10.8006 0.0470962C11.0937 0.0784934 11.3239 0.115123 11.4914 0.156986V1.78964C11.4914 1.91523 11.5332 2.02512 11.6169 2.11931C11.7007 2.2135 11.8158 2.26059 11.9623 2.26059C12.0879 2.26059 12.1978 2.2135 12.292 2.11931C12.3862 2.02512 12.4333 1.91523 12.4333 1.78964V0.565149C13.1031 0.983778 13.6368 1.52799 14.0345 2.1978C14.4322 2.86761 14.6311 3.62114 14.6311 4.4584H14.945C15.1125 4.4584 15.259 4.52119 15.3846 4.64678C15.5102 4.77237 15.573 4.91889 15.573 5.08634C15.573 5.25379 15.5102 5.40031 15.3846 5.5259C15.259 5.65149 15.1125 5.71428 14.945 5.71428H14.6311C14.6311 7.05389 14.1915 8.17373 13.3124 9.07378C12.4333 9.97383 11.303 10.4239 9.9215 10.4239ZM9.9215 8.54002C10.8006 8.54002 11.4914 8.27838 11.9937 7.7551C12.4961 7.23181 12.7472 6.55154 12.7472 5.71428H7.09576C7.09576 6.55154 7.34693 7.23181 7.84929 7.7551C8.35164 8.27838 9.04238 8.54002 9.9215 8.54002ZM0 20V17.1114C0 16.3998 0.167452 15.8085 0.502355 15.3375C0.837257 14.8666 1.30821 14.4846 1.91523 14.1915C3.04552 13.6473 4.25431 13.1973 5.5416 12.8414C6.82888 12.4856 8.28885 12.3077 9.9215 12.3077C11.5542 12.3077 13.0141 12.4856 14.3014 12.8414C15.5887 13.1973 16.7975 13.6473 17.9278 14.1915C18.5348 14.4846 19.0057 14.8666 19.3406 15.3375C19.6755 15.8085 19.843 16.3998 19.843 17.1114V20H0ZM1.88383 18.1162H17.9592V17.1114C17.9592 16.7975 17.8702 16.5411 17.6923 16.3422C17.5144 16.1434 17.2998 15.9916 17.0487 15.887C16.1486 15.4893 15.1439 15.1073 14.0345 14.741C12.9252 14.3747 11.5542 14.1915 9.9215 14.1915C8.28885 14.1915 6.91784 14.3747 5.80847 14.741C4.69911 15.1073 3.6944 15.4893 2.79435 15.887C2.54317 15.9916 2.32862 16.1434 2.1507 16.3422C1.97279 16.5411 1.88383 16.7975 1.88383 17.1114V18.1162Z" fill="#2C30B6"/>
</svg>
