<svg width="16" height="11" viewBox="0 0 16 11" fill="none" xmlns="http://www.w3.org/2000/svg">
<path d="M16 8.07812H0V8.88437H16V8.07812Z" fill="#B22234"/>
<path d="M7.4469 0V0.403125V0.80625H16V0H7.4469Z" fill="#B22234"/>
<path d="M16 0.806274H7.4469V1.61252H16V0.806274Z" fill="white"/>
<path d="M16 1.6156H7.4469V2.42185H16V1.6156Z" fill="#B22234"/>
<path d="M16 2.42188H7.4469V3.22813H16V2.42188Z" fill="white"/>
<path d="M16 3.2312H7.4469V4.03745H16V3.2312Z" fill="#B22234"/>
<path d="M16 4.03748H7.4469V4.84373H16V4.03748Z" fill="white"/>
<path d="M16 4.84692H7.4469V5.65317H16V4.84692Z" fill="#B22234"/>
<path d="M16 5.65308H0V6.45933H16V5.65308Z" fill="white"/>
<path d="M16 6.46252H0V7.26877H16V6.46252Z" fill="#B22234"/>
<path d="M16 8.8844H0V9.69065H16V8.8844Z" fill="white"/>
<path d="M16 9.69373H0V10.5H16V9.69373Z" fill="#B22234"/>
<path d="M0 0V0.403125V0.80625V5.65312H7.44688V0.80625V0.403125V0H0Z" fill="#3C3B6E"/>
<path d="M0.774987 0.640674L0.837487 0.825049H1.03124C1.05624 0.825049 1.06561 0.856299 1.04686 0.871924L0.890612 0.987549L0.949987 1.17192C0.956237 1.19692 0.931237 1.21567 0.909362 1.20005L0.753112 1.08755L0.596862 1.20005C0.574987 1.21567 0.549987 1.1938 0.556237 1.17192L0.615612 0.987549L0.459362 0.871924C0.440612 0.856299 0.449987 0.825049 0.474987 0.825049H0.668737L0.731237 0.640674C0.734362 0.618799 0.765612 0.618799 0.774987 0.640674Z" fill="white"/>
<path d="M0.774987 1.60005L0.837487 1.78442H1.03124C1.05624 1.78442 1.06561 1.81567 1.04686 1.8313L0.890612 1.94692L0.949987 2.1313C0.956237 2.1563 0.931237 2.17505 0.909362 2.15942L0.753112 2.04692L0.596862 2.15942C0.574987 2.17505 0.549987 2.15317 0.556237 2.1313L0.615612 1.94692L0.459362 1.8313C0.440612 1.81567 0.449987 1.78442 0.474987 1.78442H0.668737L0.731237 1.60005C0.734362 1.57505 0.765612 1.57505 0.774987 1.60005Z" fill="white"/>
<path d="M0.774987 2.55632L0.837487 2.7407H1.03124C1.05624 2.7407 1.06561 2.77195 1.04686 2.78757L0.890612 2.9032L0.949987 3.08757C0.956237 3.11257 0.931237 3.13132 0.909362 3.1157L0.753112 3.0032L0.596862 3.1157C0.574987 3.13132 0.549987 3.10945 0.556237 3.08757L0.615612 2.9032L0.459362 2.78757C0.440612 2.77195 0.449987 2.7407 0.474987 2.7407H0.668737L0.731237 2.55632C0.734362 2.53445 0.765612 2.53445 0.774987 2.55632Z" fill="white"/>
<path d="M0.774987 3.5157L0.837487 3.70007H1.03124C1.05624 3.70007 1.06561 3.73132 1.04686 3.74695L0.890612 3.86257L0.949987 4.04695C0.956237 4.07195 0.931237 4.0907 0.909362 4.07507L0.753112 3.96257L0.596862 4.07507C0.574987 4.0907 0.549987 4.06882 0.556237 4.04695L0.615612 3.86257L0.459362 3.74695C0.440612 3.73132 0.449987 3.70007 0.474987 3.70007H0.668737L0.731237 3.5157C0.734362 3.4907 0.765612 3.4907 0.774987 3.5157Z" fill="white"/>
<path d="M0.774987 4.47505L0.837487 4.65942H1.03124C1.05624 4.65942 1.06561 4.69067 1.04686 4.7063L0.890612 4.82192L0.949987 5.0063C0.956237 5.0313 0.931237 5.05005 0.909362 5.03442L0.753112 4.92192L0.596862 5.03442C0.574987 5.05005 0.549987 5.02817 0.556237 5.0063L0.615612 4.82192L0.459362 4.7063C0.440612 4.69067 0.449987 4.65942 0.474987 4.65942H0.668737L0.731237 4.47505C0.734362 4.45005 0.765612 4.45005 0.774987 4.47505Z" fill="white"/>
<path d="M1.51876 1.1125L1.58126 1.29688H1.77501C1.80001 1.29688 1.80939 1.32813 1.79064 1.34375L1.63439 1.45937L1.69376 1.64375C1.70001 1.66875 1.67501 1.6875 1.65314 1.67188L1.49689 1.55937L1.34064 1.67188C1.31876 1.6875 1.29376 1.66563 1.30001 1.64375L1.35939 1.45937L1.20314 1.34375C1.18439 1.32813 1.19376 1.29688 1.21876 1.29688H1.41251L1.47501 1.1125C1.47814 1.0875 1.50939 1.0875 1.51876 1.1125Z" fill="white"/>
<path d="M1.51876 2.06877L1.58126 2.25315H1.77501C1.80001 2.25315 1.80939 2.2844 1.79064 2.30002L1.63439 2.41565L1.69376 2.60002C1.70001 2.62502 1.67501 2.64377 1.65314 2.62815L1.49689 2.51565L1.34064 2.62815C1.31876 2.64377 1.29376 2.6219 1.30001 2.60002L1.35939 2.41565L1.20314 2.30002C1.18439 2.2844 1.19376 2.25315 1.21876 2.25315H1.41251L1.47501 2.06877C1.47814 2.0469 1.50939 2.0469 1.51876 2.06877Z" fill="white"/>
<path d="M1.51876 3.02815L1.58126 3.21252H1.77501C1.80001 3.21252 1.80939 3.24377 1.79064 3.2594L1.63439 3.37502L1.69376 3.5594C1.70001 3.5844 1.67501 3.60315 1.65314 3.58752L1.49689 3.47502L1.34064 3.58752C1.31876 3.60315 1.29376 3.58127 1.30001 3.5594L1.35939 3.37502L1.20314 3.2594C1.18439 3.24377 1.19376 3.21252 1.21876 3.21252H1.41251L1.47501 3.02815C1.47814 3.00315 1.50939 3.00315 1.51876 3.02815Z" fill="white"/>
<path d="M1.51876 3.98442L1.58126 4.1688H1.77501C1.80001 4.1688 1.80939 4.20005 1.79064 4.21567L1.63439 4.3313L1.69376 4.51567C1.70001 4.54067 1.67501 4.55942 1.65314 4.5438L1.49689 4.4313L1.34064 4.5438C1.31876 4.55942 1.29376 4.53755 1.30001 4.51567L1.35939 4.3313L1.20314 4.21567C1.18439 4.20005 1.19376 4.1688 1.21876 4.1688H1.41251L1.47501 3.98442C1.47814 3.96255 1.50939 3.96255 1.51876 3.98442Z" fill="white"/>
<path d="M2.26254 0.640674L2.32504 0.825049H2.51879C2.54379 0.825049 2.55316 0.856299 2.53441 0.871924L2.37816 0.987549L2.43754 1.17192C2.44379 1.19692 2.41879 1.21567 2.39691 1.20005L2.24066 1.08755L2.08441 1.20005C2.06254 1.21567 2.03754 1.1938 2.04379 1.17192L2.10316 0.987549L1.94691 0.871924C1.92816 0.856299 1.93754 0.825049 1.96254 0.825049H2.15629L2.21879 0.640674C2.21879 0.618799 2.25316 0.618799 2.26254 0.640674Z" fill="white"/>
<path d="M2.26254 1.60005L2.32504 1.78442H2.51879C2.54379 1.78442 2.55316 1.81567 2.53441 1.8313L2.37816 1.94692L2.43754 2.1313C2.44379 2.1563 2.41879 2.17505 2.39691 2.15942L2.24066 2.04692L2.08441 2.15942C2.06254 2.17505 2.03754 2.15317 2.04379 2.1313L2.10316 1.94692L1.94691 1.8313C1.92816 1.81567 1.93754 1.78442 1.96254 1.78442H2.15629L2.21879 1.60005C2.21879 1.57505 2.25316 1.57505 2.26254 1.60005Z" fill="white"/>
<path d="M2.26254 2.55632L2.32504 2.7407H2.51879C2.54379 2.7407 2.55316 2.77195 2.53441 2.78757L2.37816 2.9032L2.43754 3.08757C2.44379 3.11257 2.41879 3.13132 2.39691 3.1157L2.24066 3.0032L2.08441 3.1157C2.06254 3.13132 2.03754 3.10945 2.04379 3.08757L2.10316 2.9032L1.94691 2.78757C1.92816 2.77195 1.93754 2.7407 1.96254 2.7407H2.15629L2.21879 2.55632C2.21879 2.53445 2.25316 2.53445 2.26254 2.55632Z" fill="white"/>
<path d="M2.26254 3.5157L2.32504 3.70007H2.51879C2.54379 3.70007 2.55316 3.73132 2.53441 3.74695L2.37816 3.86257L2.43754 4.04695C2.44379 4.07195 2.41879 4.0907 2.39691 4.07507L2.24066 3.96257L2.08441 4.07507C2.06254 4.0907 2.03754 4.06882 2.04379 4.04695L2.10316 3.86257L1.94691 3.74695C1.92816 3.73132 1.93754 3.70007 1.96254 3.70007H2.15629L2.21879 3.5157C2.21879 3.4907 2.25316 3.4907 2.26254 3.5157Z" fill="white"/>
<path d="M2.26254 4.47505L2.32504 4.65942H2.51879C2.54379 4.65942 2.55316 4.69067 2.53441 4.7063L2.37816 4.82192L2.43754 5.0063C2.44379 5.0313 2.41879 5.05005 2.39691 5.03442L2.24066 4.92192L2.08441 5.03442C2.06254 5.05005 2.03754 5.02817 2.04379 5.0063L2.10316 4.82192L1.94691 4.7063C1.92816 4.69067 1.93754 4.65942 1.96254 4.65942H2.15629L2.21879 4.47505C2.21879 4.45005 2.25316 4.45005 2.26254 4.47505Z" fill="white"/>
<path d="M3.00619 1.1125L3.06869 1.29688H3.26244C3.28744 1.29688 3.29681 1.32813 3.27806 1.34375L3.12181 1.45937L3.18119 1.64375C3.18744 1.66875 3.16244 1.6875 3.14056 1.67188L2.98431 1.55937L2.82806 1.67188C2.80619 1.6875 2.78119 1.66563 2.78744 1.64375L2.84681 1.45937L2.69056 1.34375C2.67181 1.32813 2.68119 1.29688 2.70619 1.29688H2.89994L2.96244 1.1125C2.96244 1.0875 2.99681 1.0875 3.00619 1.1125Z" fill="white"/>
<path d="M3.00619 2.06877L3.06869 2.25315H3.26244C3.28744 2.25315 3.29681 2.2844 3.27806 2.30002L3.12181 2.41565L3.18119 2.60002C3.18744 2.62502 3.16244 2.64377 3.14056 2.62815L2.98431 2.51565L2.82806 2.62815C2.80619 2.64377 2.78119 2.6219 2.78744 2.60002L2.84681 2.41565L2.69056 2.30002C2.67181 2.2844 2.68119 2.25315 2.70619 2.25315H2.89994L2.96244 2.06877C2.96244 2.0469 2.99681 2.0469 3.00619 2.06877Z" fill="white"/>
<path d="M3.00619 3.02815L3.06869 3.21252H3.26244C3.28744 3.21252 3.29681 3.24377 3.27806 3.2594L3.12181 3.37502L3.18119 3.5594C3.18744 3.5844 3.16244 3.60315 3.14056 3.58752L2.98431 3.47502L2.82806 3.58752C2.80619 3.60315 2.78119 3.58127 2.78744 3.5594L2.84681 3.37502L2.69056 3.2594C2.67181 3.24377 2.68119 3.21252 2.70619 3.21252H2.89994L2.96244 3.02815C2.96244 3.00315 2.99681 3.00315 3.00619 3.02815Z" fill="white"/>
<path d="M3.00619 3.98442L3.06869 4.1688H3.26244C3.28744 4.1688 3.29681 4.20005 3.27806 4.21567L3.12181 4.3313L3.18119 4.51567C3.18744 4.54067 3.16244 4.55942 3.14056 4.5438L2.98431 4.4313L2.82806 4.5438C2.80619 4.55942 2.78119 4.53755 2.78744 4.51567L2.84681 4.3313L2.69056 4.21567C2.67181 4.20005 2.68119 4.1688 2.70619 4.1688H2.89994L2.96244 3.98442C2.96244 3.96255 2.99681 3.96255 3.00619 3.98442Z" fill="white"/>
<path d="M3.74996 0.640674L3.81246 0.825049H4.00621C4.03121 0.825049 4.04059 0.856299 4.02184 0.871924L3.86559 0.987549L3.92496 1.17192C3.93121 1.19692 3.90621 1.21567 3.88434 1.20005L3.72809 1.08755L3.57184 1.20005C3.54996 1.21567 3.52496 1.1938 3.53121 1.17192L3.59059 0.987549L3.43434 0.871924C3.41559 0.856299 3.42496 0.825049 3.44996 0.825049H3.64371L3.70621 0.640674C3.70621 0.618799 3.74059 0.618799 3.74996 0.640674Z" fill="white"/>
<path d="M3.74996 1.60005L3.81246 1.78442H4.00621C4.03121 1.78442 4.04059 1.81567 4.02184 1.8313L3.86559 1.94692L3.92496 2.1313C3.93121 2.1563 3.90621 2.17505 3.88434 2.15942L3.72809 2.04692L3.57184 2.15942C3.54996 2.17505 3.52496 2.15317 3.53121 2.1313L3.59059 1.94692L3.43434 1.8313C3.41559 1.81567 3.42496 1.78442 3.44996 1.78442H3.64371L3.70621 1.60005C3.70621 1.57505 3.74059 1.57505 3.74996 1.60005Z" fill="white"/>
<path d="M3.74996 2.55632L3.81246 2.7407H4.00621C4.03121 2.7407 4.04059 2.77195 4.02184 2.78757L3.86559 2.9032L3.92496 3.08757C3.93121 3.11257 3.90621 3.13132 3.88434 3.1157L3.72809 3.0032L3.57184 3.1157C3.54996 3.13132 3.52496 3.10945 3.53121 3.08757L3.59059 2.9032L3.43434 2.78757C3.41559 2.77195 3.42496 2.7407 3.44996 2.7407H3.64371L3.70621 2.55632C3.70621 2.53445 3.74059 2.53445 3.74996 2.55632Z" fill="white"/>
<path d="M3.74996 3.5157L3.81246 3.70007H4.00621C4.03121 3.70007 4.04059 3.73132 4.02184 3.74695L3.86559 3.86257L3.92496 4.04695C3.93121 4.07195 3.90621 4.0907 3.88434 4.07507L3.72809 3.96257L3.57184 4.07507C3.54996 4.0907 3.52496 4.06882 3.53121 4.04695L3.59059 3.86257L3.43434 3.74695C3.41559 3.73132 3.42496 3.70007 3.44996 3.70007H3.64371L3.70621 3.5157C3.70621 3.4907 3.74059 3.4907 3.74996 3.5157Z" fill="white"/>
<path d="M3.74996 4.47505L3.81246 4.65942H4.00621C4.03121 4.65942 4.04059 4.69067 4.02184 4.7063L3.86559 4.82192L3.92496 5.0063C3.93121 5.0313 3.90621 5.05005 3.88434 5.03442L3.72809 4.92192L3.57184 5.03442C3.54996 5.05005 3.52496 5.02817 3.53121 5.0063L3.59059 4.82192L3.43434 4.7063C3.41559 4.69067 3.42496 4.65942 3.44996 4.65942H3.64371L3.70621 4.47505C3.70621 4.45005 3.74059 4.45005 3.74996 4.47505Z" fill="white"/>
<path d="M4.49374 1.1125L4.55624 1.29688H4.74999C4.77499 1.29688 4.78436 1.32813 4.76561 1.34375L4.60936 1.45937L4.66874 1.64375C4.67499 1.66875 4.64999 1.6875 4.62811 1.67188L4.47186 1.55937L4.31561 1.67188C4.29374 1.6875 4.26874 1.66563 4.27499 1.64375L4.33436 1.45937L4.17811 1.34375C4.15936 1.32813 4.16874 1.29688 4.19374 1.29688H4.38749L4.44999 1.1125C4.44999 1.0875 4.48436 1.0875 4.49374 1.1125Z" fill="white"/>
<path d="M4.49374 2.06877L4.55624 2.25315H4.74999C4.77499 2.25315 4.78436 2.2844 4.76561 2.30002L4.60936 2.41565L4.66874 2.60002C4.67499 2.62502 4.64999 2.64377 4.62811 2.62815L4.47186 2.51565L4.31561 2.62815C4.29374 2.64377 4.26874 2.6219 4.27499 2.60002L4.33436 2.41565L4.17811 2.30002C4.15936 2.2844 4.16874 2.25315 4.19374 2.25315H4.38749L4.44999 2.06877C4.44999 2.0469 4.48436 2.0469 4.49374 2.06877Z" fill="white"/>
<path d="M4.49374 3.02815L4.55624 3.21252H4.74999C4.77499 3.21252 4.78436 3.24377 4.76561 3.2594L4.60936 3.37502L4.66874 3.5594C4.67499 3.5844 4.64999 3.60315 4.62811 3.58752L4.47186 3.47502L4.31561 3.58752C4.29374 3.60315 4.26874 3.58127 4.27499 3.5594L4.33436 3.37502L4.17811 3.2594C4.15936 3.24377 4.16874 3.21252 4.19374 3.21252H4.38749L4.44999 3.02815C4.44999 3.00315 4.48436 3.00315 4.49374 3.02815Z" fill="white"/>
<path d="M4.49374 3.98442L4.55624 4.1688H4.74999C4.77499 4.1688 4.78436 4.20005 4.76561 4.21567L4.60936 4.3313L4.66874 4.51567C4.67499 4.54067 4.64999 4.55942 4.62811 4.5438L4.47186 4.4313L4.31561 4.5438C4.29374 4.55942 4.26874 4.53755 4.27499 4.51567L4.33436 4.3313L4.17811 4.21567C4.15936 4.20005 4.16874 4.1688 4.19374 4.1688H4.38749L4.44999 3.98442C4.44999 3.96255 4.48436 3.96255 4.49374 3.98442Z" fill="white"/>
<path d="M5.23434 0.640674L5.29684 0.825049H5.49059C5.51559 0.825049 5.52496 0.856299 5.50621 0.871924L5.34996 0.987549L5.40934 1.17192C5.41559 1.19692 5.39059 1.21567 5.36871 1.20005L5.21246 1.08755L5.05621 1.20005C5.03434 1.21567 5.00934 1.1938 5.01559 1.17192L5.07496 0.987549L4.91871 0.871924C4.89996 0.856299 4.90934 0.825049 4.93434 0.825049H5.12809L5.19059 0.640674C5.19371 0.618799 5.22809 0.618799 5.23434 0.640674Z" fill="white"/>
<path d="M5.23434 1.60005L5.29684 1.78442H5.49059C5.51559 1.78442 5.52496 1.81567 5.50621 1.8313L5.34996 1.94692L5.40934 2.1313C5.41559 2.1563 5.39059 2.17505 5.36871 2.15942L5.21246 2.04692L5.05621 2.15942C5.03434 2.17505 5.00934 2.15317 5.01559 2.1313L5.07496 1.94692L4.91871 1.8313C4.89996 1.81567 4.90934 1.78442 4.93434 1.78442H5.12809L5.19059 1.60005C5.19371 1.57505 5.22809 1.57505 5.23434 1.60005Z" fill="white"/>
<path d="M5.23434 2.55632L5.29684 2.7407H5.49059C5.51559 2.7407 5.52496 2.77195 5.50621 2.78757L5.34996 2.9032L5.40934 3.08757C5.41559 3.11257 5.39059 3.13132 5.36871 3.1157L5.21246 3.0032L5.05621 3.1157C5.03434 3.13132 5.00934 3.10945 5.01559 3.08757L5.07496 2.9032L4.91871 2.78757C4.89996 2.77195 4.90934 2.7407 4.93434 2.7407H5.12809L5.19059 2.55632C5.19371 2.53445 5.22809 2.53445 5.23434 2.55632Z" fill="white"/>
<path d="M5.23434 3.5157L5.29684 3.70007H5.49059C5.51559 3.70007 5.52496 3.73132 5.50621 3.74695L5.34996 3.86257L5.40934 4.04695C5.41559 4.07195 5.39059 4.0907 5.36871 4.07507L5.21246 3.96257L5.05621 4.07507C5.03434 4.0907 5.00934 4.06882 5.01559 4.04695L5.07496 3.86257L4.91871 3.74695C4.89996 3.73132 4.90934 3.70007 4.93434 3.70007H5.12809L5.19059 3.5157C5.19371 3.4907 5.22809 3.4907 5.23434 3.5157Z" fill="white"/>
<path d="M5.23434 4.47505L5.29684 4.65942H5.49059C5.51559 4.65942 5.52496 4.69067 5.50621 4.7063L5.34996 4.82192L5.40934 5.0063C5.41559 5.0313 5.39059 5.05005 5.36871 5.03442L5.21246 4.92192L5.05621 5.03442C5.03434 5.05005 5.00934 5.02817 5.01559 5.0063L5.07496 4.82192L4.91871 4.7063C4.89996 4.69067 4.90934 4.65942 4.93434 4.65942H5.12809L5.19059 4.47505C5.19371 4.45005 5.22809 4.45005 5.23434 4.47505Z" fill="white"/>
<path d="M5.97811 1.1125L6.04061 1.29688H6.23436C6.25936 1.29688 6.26874 1.32813 6.24999 1.34375L6.09374 1.45937L6.15311 1.64375C6.15936 1.66875 6.13436 1.6875 6.11249 1.67188L5.95624 1.55937L5.79999 1.67188C5.77811 1.6875 5.75311 1.66563 5.75936 1.64375L5.81874 1.45937L5.66249 1.34375C5.64374 1.32813 5.65311 1.29688 5.67811 1.29688H5.87186L5.93436 1.1125C5.93749 1.0875 5.97186 1.0875 5.97811 1.1125Z" fill="white"/>
<path d="M5.97811 2.06877L6.04061 2.25315H6.23436C6.25936 2.25315 6.26874 2.2844 6.24999 2.30002L6.09374 2.41565L6.15311 2.60002C6.15936 2.62502 6.13436 2.64377 6.11249 2.62815L5.95624 2.51565L5.79999 2.62815C5.77811 2.64377 5.75311 2.6219 5.75936 2.60002L5.81874 2.41565L5.66249 2.30002C5.64374 2.2844 5.65311 2.25315 5.67811 2.25315H5.87186L5.93436 2.06877C5.93749 2.0469 5.97186 2.0469 5.97811 2.06877Z" fill="white"/>
<path d="M5.97811 3.02815L6.04061 3.21252H6.23436C6.25936 3.21252 6.26874 3.24377 6.24999 3.2594L6.09374 3.37502L6.15311 3.5594C6.15936 3.5844 6.13436 3.60315 6.11249 3.58752L5.95624 3.47502L5.79999 3.58752C5.77811 3.60315 5.75311 3.58127 5.75936 3.5594L5.81874 3.37502L5.66249 3.2594C5.64374 3.24377 5.65311 3.21252 5.67811 3.21252H5.87186L5.93436 3.02815C5.93749 3.00315 5.97186 3.00315 5.97811 3.02815Z" fill="white"/>
<path d="M5.97811 3.98442L6.04061 4.1688H6.23436C6.25936 4.1688 6.26874 4.20005 6.24999 4.21567L6.09374 4.3313L6.15311 4.51567C6.15936 4.54067 6.13436 4.55942 6.11249 4.5438L5.95624 4.4313L5.79999 4.5438C5.77811 4.55942 5.75311 4.53755 5.75936 4.51567L5.81874 4.3313L5.66249 4.21567C5.64374 4.20005 5.65311 4.1688 5.67811 4.1688H5.87186L5.93436 3.98442C5.93749 3.96255 5.97186 3.96255 5.97811 3.98442Z" fill="white"/>
<path d="M6.72189 0.640674L6.78439 0.825049H6.97814C7.00314 0.825049 7.01251 0.856299 6.99376 0.871924L6.83751 0.987549L6.89689 1.17192C6.90314 1.19692 6.87814 1.21567 6.85626 1.20005L6.70001 1.08755L6.54376 1.20005C6.52189 1.21567 6.49689 1.1938 6.50314 1.17192L6.56251 0.987549L6.40626 0.871924C6.38751 0.856299 6.39689 0.825049 6.42189 0.825049H6.61564L6.67814 0.640674C6.68126 0.618799 6.71564 0.618799 6.72189 0.640674Z" fill="white"/>
<path d="M6.72189 1.60005L6.78439 1.78442H6.97814C7.00314 1.78442 7.01251 1.81567 6.99376 1.8313L6.83751 1.94692L6.89689 2.1313C6.90314 2.1563 6.87814 2.17505 6.85626 2.15942L6.70001 2.04692L6.54376 2.15942C6.52189 2.17505 6.49689 2.15317 6.50314 2.1313L6.56251 1.94692L6.40626 1.8313C6.38751 1.81567 6.39689 1.78442 6.42189 1.78442H6.61564L6.67814 1.60005C6.68126 1.57505 6.71564 1.57505 6.72189 1.60005Z" fill="white"/>
<path d="M6.72189 2.55632L6.78439 2.7407H6.97814C7.00314 2.7407 7.01251 2.77195 6.99376 2.78757L6.83751 2.9032L6.89689 3.08757C6.90314 3.11257 6.87814 3.13132 6.85626 3.1157L6.70001 3.0032L6.54376 3.1157C6.52189 3.13132 6.49689 3.10945 6.50314 3.08757L6.56251 2.9032L6.40626 2.78757C6.38751 2.77195 6.39689 2.7407 6.42189 2.7407H6.61564L6.67814 2.55632C6.68126 2.53445 6.71564 2.53445 6.72189 2.55632Z" fill="white"/>
<path d="M6.72189 3.5157L6.78439 3.70007H6.97814C7.00314 3.70007 7.01251 3.73132 6.99376 3.74695L6.83751 3.86257L6.89689 4.04695C6.90314 4.07195 6.87814 4.0907 6.85626 4.07507L6.70001 3.96257L6.54376 4.07507C6.52189 4.0907 6.49689 4.06882 6.50314 4.04695L6.56251 3.86257L6.40626 3.74695C6.38751 3.73132 6.39689 3.70007 6.42189 3.70007H6.61564L6.67814 3.5157C6.68126 3.4907 6.71564 3.4907 6.72189 3.5157Z" fill="white"/>
<path d="M6.72189 4.47505L6.78439 4.65942H6.97814C7.00314 4.65942 7.01251 4.69067 6.99376 4.7063L6.83751 4.82192L6.89689 5.0063C6.90314 5.0313 6.87814 5.05005 6.85626 5.03442L6.70001 4.92192L6.54376 5.03442C6.52189 5.05005 6.49689 5.02817 6.50314 5.0063L6.56251 4.82192L6.40626 4.7063C6.38751 4.69067 6.39689 4.65942 6.42189 4.65942H6.61564L6.67814 4.47505C6.68126 4.45005 6.71564 4.45005 6.72189 4.47505Z" fill="white"/>
<path d="M16 7.2688H0V8.07505H16V7.2688Z" fill="white"/>
</svg>
