<svg width="13" height="13" viewBox="0 0 13 13" fill="none" xmlns="http://www.w3.org/2000/svg">
<g clip-path="url(#clip0_635_54630)">
<path d="M12.8794 9.22314L9.34375 12.7651L7.63623 11.0513L8.20752 10.48L9.34375 11.6099L12.3081 8.65186L12.8794 9.22314ZM6.5 2.4375V5.6875H8.9375V6.5H5.6875V2.4375H6.5ZM6.09375 11.375C6.16146 11.375 6.22917 11.3729 6.29688 11.3687C6.36458 11.3644 6.43229 11.3602 6.5 11.356L7.22363 12.0796C7.0332 12.1134 6.84489 12.1388 6.65869 12.1558C6.47249 12.1727 6.28418 12.1833 6.09375 12.1875C5.53516 12.1875 4.99772 12.1156 4.48145 11.9717C3.96517 11.8278 3.47852 11.6226 3.02148 11.356C2.56445 11.0894 2.15397 10.772 1.79004 10.4038C1.42611 10.0356 1.10872 9.62305 0.837891 9.16602C0.567057 8.70898 0.361816 8.22445 0.222168 7.7124C0.0825195 7.20036 0.00846354 6.66081 0 6.09375C0 5.53516 0.0719401 4.99772 0.21582 4.48145C0.359701 3.96517 0.564941 3.47852 0.831543 3.02148C1.09814 2.56445 1.41553 2.15397 1.78369 1.79004C2.15186 1.42611 2.56445 1.10872 3.02148 0.837891C3.47852 0.567057 3.96305 0.361816 4.4751 0.222168C4.98714 0.0825195 5.52669 0.00846354 6.09375 0C6.65234 0 7.18978 0.0719401 7.70605 0.21582C8.22233 0.359701 8.70898 0.564941 9.16602 0.831543C9.62305 1.09814 10.0335 1.41553 10.3975 1.78369C10.7614 2.15186 11.0788 2.56445 11.3496 3.02148C11.6204 3.47852 11.8257 3.96305 11.9653 4.4751C12.105 4.98714 12.179 5.52669 12.1875 6.09375C12.1875 6.30534 12.1748 6.51904 12.1494 6.73486L11.083 7.80762C11.2777 7.24479 11.375 6.6735 11.375 6.09375C11.375 5.6071 11.3115 5.13949 11.1846 4.69092C11.0576 4.24235 10.8799 3.8234 10.6514 3.43408C10.4229 3.04476 10.1478 2.68717 9.82617 2.36133C9.50456 2.03548 9.14909 1.76042 8.75977 1.53613C8.37044 1.31185 7.94938 1.13411 7.49658 1.00293C7.04378 0.871745 6.57617 0.808268 6.09375 0.8125C5.6071 0.8125 5.13949 0.875977 4.69092 1.00293C4.24235 1.12988 3.8234 1.30762 3.43408 1.53613C3.04476 1.76465 2.68717 2.03971 2.36133 2.36133C2.03548 2.68294 1.76042 3.03841 1.53613 3.42773C1.31185 3.81706 1.13411 4.23812 1.00293 4.69092C0.871745 5.14372 0.808268 5.61133 0.8125 6.09375C0.8125 6.5804 0.875977 7.04801 1.00293 7.49658C1.12988 7.94515 1.30762 8.3641 1.53613 8.75342C1.76465 9.14274 2.03971 9.50033 2.36133 9.82617C2.68294 10.152 3.03841 10.4271 3.42773 10.6514C3.81706 10.8757 4.23812 11.0534 4.69092 11.1846C5.14372 11.3158 5.61133 11.3792 6.09375 11.375Z" fill="white"/>
</g>
<defs>
<clipPath id="clip0_635_54630">
<rect width="12.2769" height="12.2769" fill="white" transform="scale(1.0589)"/>
</clipPath>
</defs>
</svg>
