<svg width="32" height="32" viewBox="0 0 32 32" fill="none" xmlns="http://www.w3.org/2000/svg">
<rect x="0.5" y="0.5" width="31" height="31" rx="15.5" fill="white"/>
<path d="M16.2229 14.9569C16.6081 14.9569 16.9377 14.8198 17.2118 14.5457C17.4858 14.2717 17.6229 13.942 17.6229 13.5569C17.6229 13.1717 17.4858 12.842 17.2118 12.568C16.9377 12.2939 16.6081 12.1569 16.2229 12.1569C15.8377 12.1569 15.5081 12.2939 15.234 12.568C14.9599 12.842 14.8229 13.1717 14.8229 13.5569C14.8229 13.942 14.9599 14.2717 15.234 14.5457C15.5081 14.8198 15.8377 14.9569 16.2229 14.9569ZM16.2229 22.7124C18.1636 20.9791 19.6303 19.3309 20.6229 17.768C21.6155 16.205 22.1118 14.8606 22.1118 13.7346C22.1118 11.9569 21.5451 10.5013 20.4118 9.36797C19.2784 8.23464 17.8821 7.66797 16.2229 7.66797C14.5636 7.66797 13.1673 8.23464 12.034 9.36797C10.9007 10.5013 10.334 11.9569 10.334 13.7346C10.334 14.8606 10.8377 16.205 11.8451 17.768C12.8525 19.3309 14.3118 20.9791 16.2229 22.7124ZM16.2229 24.0457C13.9118 22.0309 12.1858 20.1643 11.0451 18.4457C9.90435 16.7272 9.33398 15.1569 9.33398 13.7346C9.33398 11.5865 10.0266 9.87167 11.4118 8.59019C12.7969 7.30871 14.4007 6.66797 16.2229 6.66797C18.0451 6.66797 19.6488 7.30871 21.034 8.59019C22.4192 9.87167 23.1118 11.5865 23.1118 13.7346C23.1118 15.1569 22.5414 16.7272 21.4007 18.4457C20.2599 20.1643 18.534 22.0309 16.2229 24.0457Z" fill="#198460"/>
<rect x="0.5" y="0.5" width="31" height="31" rx="15.5" stroke="#E8EBF3"/>
</svg>
